<svg height="224pt" viewBox="0 0 1159 224" width="1159pt" xmlns="http://www.w3.org/2000/svg" xmlns:xlink="http://www.w3.org/1999/xlink"><linearGradient id="a" gradientTransform="matrix(.99946 0 0 1.0005 307.42 297.54)" gradientUnits="userSpaceOnUse" x1="-.75034" x2="-.75034" y1="-.78024" y2="18.89"><stop offset="0" stop-color="#dcdcdc"/><stop offset="1" stop-color="#dcdcdc"/></linearGradient><linearGradient id="b" gradientTransform="matrix(.99738 0 0 1.0026 469.76 234.73)" gradientUnits="userSpaceOnUse" x1="-.57651" x2="-.57651" xlink:href="#H" y1="-.81104" y2="12.474"/><linearGradient id="c" gradientUnits="userSpaceOnUse" x1="469.18" x2="469.18" xlink:href="#I" y1="257.34" y2="269.48"/><linearGradient id="d" gradientUnits="userSpaceOnUse" x1="469.18" x2="469.18" xlink:href="#I" y1="302.54" y2="314.68"/><linearGradient id="e" gradientUnits="userSpaceOnUse" x1="469.18" x2="469.18" xlink:href="#I" y1="325.14" y2="337.28"/><linearGradient id="f" gradientUnits="userSpaceOnUse" x1="469.18" x2="469.18" xlink:href="#I" y1="347.74" y2="359.88"/><linearGradient id="g" gradientTransform="matrix(.98481 0 0 1.0154 469.76 374.24)" gradientUnits="userSpaceOnUse" x1="-.41286" x2="-.41286" xlink:href="#K" y1="-.80082" y2="12.483"/><linearGradient id="h" gradientTransform="matrix(1.1144 0 0 .89736 608.77 398.86)" gradientUnits="userSpaceOnUse" x1="-.61828" x2="-.61828" xlink:href="#y" y1="-.76781" y2="10.102"/><linearGradient id="i" gradientTransform="matrix(1.0891 0 0 .9182 587.25 398.86)" gradientUnits="userSpaceOnUse" x1="-.38932" x2="-.38932" xlink:href="#y" y1="-.75038" y2="10.128"/><linearGradient id="j" gradientTransform="matrix(.98191 0 0 1.0184 565.39 398.92)" gradientUnits="userSpaceOnUse" x1="-.36007" x2="-.36007" xlink:href="#y" y1="-.69431" y2="8.988"/><linearGradient id="k" gradientTransform="matrix(.99738 0 0 1.0026 69.764 34.728)" gradientUnits="userSpaceOnUse" x1="-.57651" x2="-.57651" xlink:href="#H" y1="-.81104" y2="12.474"/><linearGradient id="l" gradientUnits="userSpaceOnUse" x1="69.189" x2="69.189" xlink:href="#I" y1="57.338" y2="69.488"/><linearGradient id="m" gradientTransform="matrix(.98481 0 0 1.0154 69.764 83.844)" gradientUnits="userSpaceOnUse" x1="-.41286" x2="-.41286" xlink:href="#K" y1="-.80082" y2="12.483"/><linearGradient id="n" gradientTransform="matrix(1.1144 0 0 .89736 198.38 108.46)" gradientUnits="userSpaceOnUse" x1="-.61828" x2="-.61828" xlink:href="#y" y1="-.76781" y2="10.102"/><linearGradient id="o" gradientTransform="matrix(1.0891 0 0 .9182 176.86 108.46)" gradientUnits="userSpaceOnUse" x1="-.38932" x2="-.38932" xlink:href="#y" y1="-.75038" y2="10.128"/><linearGradient id="p" gradientTransform="matrix(.98191 0 0 1.0184 155 108.52)" gradientUnits="userSpaceOnUse" x1="-.36007" x2="-.36007" xlink:href="#y" y1="-.69431" y2="8.988"/><linearGradient id="q" gradientTransform="matrix(.99738 0 0 1.0026 9.7643 254.73)" gradientUnits="userSpaceOnUse" x1="-.57651" x2="-.57651" xlink:href="#H" y1="-.81104" y2="12.474"/><linearGradient id="r" gradientTransform="matrix(.99738 0 0 1.0026 9.7643 277.33)" gradientUnits="userSpaceOnUse" x1="-.57651" x2="-.57651" xlink:href="#H" y1="-.81104" y2="12.474"/><linearGradient id="s" gradientTransform="matrix(.98481 0 0 1.0154 9.7643 303.84)" gradientUnits="userSpaceOnUse" x1="-.41286" x2="-.41286" xlink:href="#K" y1="-.80082" y2="12.483"/><linearGradient id="t" gradientTransform="matrix(.98481 0 0 1.0154 9.7643 326.44)" gradientUnits="userSpaceOnUse" x1="-.41286" x2="-.41286" xlink:href="#K" y1="-.80082" y2="12.483"/><linearGradient id="u" gradientTransform="matrix(.98481 0 0 1.0154 9.7643 349.04)" gradientUnits="userSpaceOnUse" x1="-.41286" x2="-.41286" xlink:href="#K" y1="-.80082" y2="12.483"/><linearGradient id="v" x2="0" y2="1"><stop offset="0" stop-color="#a9a9a9" stop-opacity=".19608"/><stop offset="1" stop-color="#a9a9a9" stop-opacity=".19608"/></linearGradient><linearGradient id="w" x2="0" y2="1"><stop offset="0" stop-color="#eeffe0"/><stop offset="1" stop-color="#eeffe0"/></linearGradient><linearGradient id="x" x2="0" y2="1"><stop offset="0" stop-color="#fcfcfc"/><stop offset="1" stop-color="#fcfcfc"/></linearGradient><linearGradient id="y" x2="0" y2="1"><stop offset="0" stop-color="#f3f3f3"/><stop offset="1" stop-color="#e1e1e1"/></linearGradient><linearGradient id="z" x2="0" y2="1"><stop offset="0" stop-color="#4aa5ff"/><stop offset="1" stop-color="#4aa5ff"/></linearGradient><linearGradient id="A" gradientTransform="matrix(1.6815 0 0 .59469 209.76 169.69)" gradientUnits="userSpaceOnUse" x2="0" xlink:href="#v" y2="48.765"/><linearGradient id="B" gradientTransform="matrix(1.6633 0 0 .6012 201.76 161.69)" gradientUnits="userSpaceOnUse" x1="-.3006" x2="-.3006" xlink:href="#w" y1="-.83166" y2="49.068"/><linearGradient id="C" gradientTransform="matrix(2.0511 0 0 .48755 327.89 332.87)" gradientUnits="userSpaceOnUse" x2="0" xlink:href="#v" y2="59.481"/><linearGradient id="D" gradientTransform="matrix(2.0248 0 0 .49386 319.89 324.87)" gradientUnits="userSpaceOnUse" x1="-.24693" x2="-.24693" xlink:href="#w" y1="-1.0124" y2="59.733"/><linearGradient id="E" gradientTransform="matrix(1.1214 0 0 .89174 469.76 209.69)" gradientUnits="userSpaceOnUse" x2="0" xlink:href="#v" y2="239"/><linearGradient id="F" gradientTransform="matrix(1.3807 0 0 .72429 461.76 227.69)" gradientUnits="userSpaceOnUse" x1="-.36215" x2="-.36215" xlink:href="#x" y1="-.69033" y2="193.43"/><linearGradient id="G" gradientTransform="matrix(3.1162 0 0 .32091 461.76 367.29)" gradientUnits="userSpaceOnUse" x1="-.16045" x2="-.16045" xlink:href="#x" y1="-1.5581" y2="84.449"/><linearGradient id="H" gradientTransform="scale(.99738 1.0026)" gradientUnits="userSpaceOnUse" x1="-.57651" x2="-.57651" y1="-.81104" y2="12.474"><stop offset="0" stop-color="#ffff80"/><stop offset="1" stop-color="#ffff80"/></linearGradient><linearGradient id="I" gradientUnits="userSpaceOnUse" x1="-.575" x2="-.575" y1="-.575" y2="11.575"><stop offset="0" stop-color="#d2e9ff"/><stop offset="1" stop-color="#d2e9ff"/></linearGradient><linearGradient id="J" gradientUnits="userSpaceOnUse" x1="469.18" x2="469.18" y1="279.94" y2="292.08"><stop offset="0" stop-color="#e0e0e0"/><stop offset="1" stop-color="#e0e0e0"/></linearGradient><linearGradient id="K" gradientTransform="scale(.98481 1.0154)" gradientUnits="userSpaceOnUse" x1="-.41286" x2="-.41286" y1="-.80082" y2="12.483"><stop offset="0" stop-color="#c5cbff"/><stop offset="1" stop-color="#c5cbff"/></linearGradient><linearGradient id="L" gradientTransform="matrix(3.5789 0 0 .27941 461.76 393.89)" gradientUnits="userSpaceOnUse" x1="-.13971" x2="-.13971" xlink:href="#x" y1="-1.7895" y2="73.096"/><linearGradient id="M" gradientTransform="matrix(1.1144 0 0 .89736 158.09 373.66)" gradientUnits="userSpaceOnUse" x1="-.61828" x2="-.61828" xlink:href="#y" y1="-.76781" y2="10.102"/><linearGradient id="N" gradientTransform="matrix(1.0891 0 0 .9182 136.57 373.66)" gradientUnits="userSpaceOnUse" x1="-.38932" x2="-.38932" xlink:href="#y" y1="-.75038" y2="10.128"/><linearGradient id="O" gradientTransform="matrix(.98191 0 0 1.0184 114.71 373.72)" gradientUnits="userSpaceOnUse" x1="-.36007" x2="-.36007" xlink:href="#y" y1="-.69431" y2="8.988"/><linearGradient id="P" gradientTransform="matrix(3.1509 0 0 .31737 461.76 201.69)" gradientUnits="userSpaceOnUse" x1="-.17191" x2="-.17191" xlink:href="#z" y1="-1.5754" y2="83.498"/><linearGradient id="Q" gradientTransform="matrix(1.4193 0 0 .70455 69.764 9.688)" gradientUnits="userSpaceOnUse" x2="0" xlink:href="#v" y2="174.19"/><linearGradient id="R" gradientTransform="matrix(2.2192 0 0 .45061 61.764 27.688)" gradientUnits="userSpaceOnUse" x1="-.2253" x2="-.2253" xlink:href="#x" y1="-1.1096" y2="110.3"/><linearGradient id="S" gradientTransform="matrix(2.993 0 0 .33412 61.764 76.888)" gradientUnits="userSpaceOnUse" x1="-.16706" x2="-.16706" xlink:href="#x" y1="-1.4965" y2="81.109"/><linearGradient id="T" gradientTransform="matrix(3.4374 0 0 .29092 61.764 103.49)" gradientUnits="userSpaceOnUse" x1="-.14546" x2="-.14546" xlink:href="#x" y1="-1.7187" y2="70.206"/><linearGradient id="U" gradientTransform="matrix(3.0263 0 0 .33044 61.764 1.688)" gradientUnits="userSpaceOnUse" x1="-.17899" x2="-.17899" xlink:href="#z" y1="-1.5131" y2="80.196"/><linearGradient id="V" gradientTransform="matrix(1.3065 0 0 .76538 9.7643 229.69)" gradientUnits="userSpaceOnUse" x2="0" xlink:href="#v" y2="219.4"/><linearGradient id="W" gradientTransform="matrix(2.3896 0 0 .41848 1.7643 247.69)" gradientUnits="userSpaceOnUse" x1="-.20924" x2="-.20924" xlink:href="#x" y1="-1.1948" y2="118.76"/><linearGradient id="X" gradientTransform="matrix(1.9843 0 0 .50395 1.7643 296.89)" gradientUnits="userSpaceOnUse" x1="-.25197" x2="-.25197" xlink:href="#x" y1="-.99217" y2="143.47"/><linearGradient id="Y" gradientTransform="matrix(3.7013 0 0 .27017 1.7643 368.69)" gradientUnits="userSpaceOnUse" x1="-.13509" x2="-.13509" xlink:href="#x" y1="-1.8507" y2="75.596"/><linearGradient id="Z" gradientTransform="matrix(3.2586 0 0 .30688 1.7643 221.69)" gradientUnits="userSpaceOnUse" x1="-.16623" x2="-.16623" xlink:href="#z" y1="-1.6293" y2="86.353"/><path d="m312.52 133.67h82v29h-82z" fill="url(#A)" fill-rule="evenodd"/><g stroke-linecap="square" stroke-linejoin="bevel"><path d="m304.52 125.67h82v29h-82z" fill="url(#B)" fill-rule="evenodd" stroke="#a4b09b"/><text fill-rule="evenodd" font-family="Noto Sans" font-size="13.2" font-style="italic" font-weight="400" x="311.51593" y="145.36485">has_address</text><g stroke="#606060" stroke-width="1.5"><g fill="none"><path d="m707.68 106.48h33"/><path d="m740.68 106.48c59.172 0 59.172 1 118.34 1"/><path d="m859.02 107.48h22"/><path d="m725.68 106.48-18-11"/><path d="m725.68 106.48-18 11"/></g><circle cx="735.75" cy="106.62" fill="url(#a)" fill-rule="evenodd" r="9.075" stroke-dasharray="6 3"/><g fill="none"><path d="m871.02 98.68v17.6"/><path d="m863.02 98.68v17.6"/><path d="m248.7 118.52h33"/><path d="m281.7 118.52c59.172 0 59.172 1 118.34 1"/><path d="m400.04 119.52h22"/><path d="m266.7 118.52-18-11"/><path d="m266.7 118.52-18 11"/></g><circle cx="276.78" cy="118.66" fill="url(#a)" fill-rule="evenodd" r="9.075" stroke-dasharray="6 3"/><g fill="none"><path d="m412.04 110.72v17.6"/><path d="m404.04 110.72v17.6"/></g></g></g><g fill-rule="evenodd"><path d="m747.15 132.87h122v29h-122z" fill="url(#C)"/><path d="m739.15 124.87h122v29h-122z" fill="url(#D)" stroke="#a4b09b" stroke-linecap="square" stroke-linejoin="bevel"/><text style="font-family:Noto Sans;font-size:13.2;font-style:italic;font-weight:400;stroke-linecap:square;stroke-linejoin:bevel" x="746.14935" y="144.56065">address_of_student</text><path d="m889.02 21.69c0-6.6274 5.3726-12 12-12h244.01c6.628 0 12 5.3726 12 12v189.12c0 6.627-5.372 12-12 12h-244.01c-6.6274 0-12-5.373-12-12z" fill="url(#E)"/><g stroke-linecap="square" stroke-linejoin="bevel"><path d="m881.02 27.69h267.01v139.6h-267.01z" fill="url(#F)" stroke="#d7d7d7"/><path d="m881.02 167.29h267.01v26.6h-267.01z" fill="url(#G)" stroke="#d7d7d7"/><path d="m891.71 34.73-2.6889 2.6889v6.7222l2.6889 2.6889 1.3444-1.3444v-2.6889h1.3444l1.3444 1.3444 2.6889-2.6889 2.6889 2.6889v-5.3778h-8.0667v-2.6889z" fill="url(#b)" stroke="#897416" stroke-width="1.15"/><g font-family="Noto Sans" font-size="14.667" font-style="italic"><text fill="#2b7dba" font-weight="700" x="906.26935" y="46.521351">id</text><text fill="#4964a6" font-weight="700" x="1001.0994" xml:space="preserve" y="46.521351"> integer</text><text fill="#25682d" font-weight="400" x="1106.8794" y="46.521351">« pk »</text></g><circle cx="894.52" cy="63.41" fill="url(#c)" r="5.5" stroke="#5a9ee4" stroke-width="1.15"/><g font-family="Noto Sans" font-size="14.667" font-style="italic"><text font-weight="400" x="905.16937" y="69.121361">country</text><text fill="#4964a6" font-weight="700" x="1001.0994" xml:space="preserve" y="69.121361"> varchar(100)</text><text fill="#25682d" font-weight="400" x="1105.6294" y="69.121361">« nn »</text></g><circle cx="894.52" cy="86.01" fill="url(#J)" r="5.5" stroke="#808080" stroke-width="1.15"/><text font-family="'Noto Sans'" font-size="14.667" font-weight="400" x="905.16937" y="91.721367">province</text><text fill="#4964a6" font-family="Noto Sans" font-size="14.667" font-style="italic" font-weight="700" x="1001.0994" xml:space="preserve" y="91.721367"> varchar(100)</text><text fill="#25682d" x="1141.1494" y="91.721367"/><circle cx="894.52" cy="108.61" fill="url(#d)" r="5.5" stroke="#5a9ee4" stroke-width="1.15"/><g font-family="Noto Sans" font-size="14.667" font-style="italic"><text font-weight="400" x="905.16937" y="114.32134">city</text><text fill="#4964a6" font-weight="700" x="1001.0994" xml:space="preserve" y="114.32134"> varchar(100)</text><text fill="#25682d" font-weight="400" x="1105.6294" y="114.32134">« nn »</text></g><circle cx="894.52" cy="131.21" fill="url(#e)" r="5.5" stroke="#5a9ee4" stroke-width="1.15"/><g font-family="Noto Sans" font-size="14.667" font-style="italic"><text font-weight="400" x="905.16937" y="136.92134">postal_code</text><text fill="#4964a6" font-weight="700" x="1001.0994" xml:space="preserve" y="136.92134"> varchar(40)</text><text fill="#25682d" font-weight="400" x="1105.6294" y="136.92134">« nn »</text></g><circle cx="894.52" cy="153.81" fill="url(#f)" r="5.5" stroke="#5a9ee4" stroke-width="1.15"/><g font-family="Noto Sans" font-size="14.667" font-style="italic"><text font-weight="400" x="905.16937" y="159.52135">street_address</text><text fill="#4964a6" font-weight="700" x="1001.0994" xml:space="preserve" y="159.52135"> varchar(255)</text><text fill="#25682d" font-weight="400" x="1105.6294" y="159.52135">« nn »</text></g><path d="m895.74 174.24-6.7222 6.7222 5.3778 5.3778h6.7222v-6.7222z" fill="url(#g)" stroke="#4c4c98" stroke-width="1.15"/><g font-family="Noto Sans" font-size="14.667" font-style="italic"><text fill="#082061" font-weight="400" x="906.10938" y="186.12135">address_id_pk</text><text fill="#4964a6" font-weight="700" x="1001.0994" xml:space="preserve" y="186.12135"> constraint</text><text fill="#25682d" font-weight="400" x="1106.8794" y="186.12135">« pk »</text></g><path d="m881.02 193.89h267.01v7.924l-.182 2.0838-.541 2.0204-.884 1.8958-1.2 1.7135-1.479 1.479-1.714 1.1998-1.895.884-2.021.5414-2.084.1823h-243.01l-2.0838-.1823-2.0205-.5414-1.8958-.884-1.7134-1.1998-1.4791-1.479-1.1998-1.7135-.88401-1.8958-.54138-2.0204-.18231-2.0838z" fill="url(#L)" stroke="#d7d7d7"/><g stroke="#bebebe"><path d="m1028 198.86h11l-5.5 8.8z" fill="url(#h)" opacity=".4"/><path d="m1012 198.86-5.5 8.8h11z" fill="url(#i)"/><path d="m989.05 198.92 4.4 4.4-4.4 4.4-4.4-4.4z" fill="url(#j)"/></g><path d="m881.01934 13.69005.18231-2.0838.54138-2.0205.88401-1.8958 1.1998-1.7134 1.4791-1.4791 1.7134-1.1998 1.8958-.88401 2.0205-.54138 2.0838-.18231h243.00996l2.084.18231 2.021.54138 1.895.88401 1.714 1.1998 1.479 1.4791 1.2 1.7134.884 1.8958.541 2.0205.182 2.0838v14h-267.00996z" fill="url(#P)" stroke="#3175b0"/><g font-family="Noto Sans" font-size="14.667"><text font-style="italic" font-weight="400" x="963.70685" y="19.02335">public.</text><text fill="#fff" font-weight="700" x="1008.0504" y="19.02335">address</text></g></g><path d="m10.471 74.324c0-6.6274 5.3726-12 12-12h223.23c6.627 0 12 5.3726 12 12v98.724c0 6.627-5.373 12-12 12h-223.23c-6.6274 0-12-5.373-12-12z" fill="url(#Q)"/><g stroke-linecap="square" stroke-linejoin="bevel"><path d="m2.4707 80.324h246.23v49.2h-246.23z" fill="url(#R)" stroke="#d7d7d7"/><path d="m2.4707 129.52h246.23v26.6h-246.23z" fill="url(#S)" stroke="#d7d7d7"/><path d="m13.16 87.364-2.6889 2.6889v6.7222l2.6889 2.6889 1.3444-1.3444v-2.6889h1.3444l1.3444 1.3444 2.6889-2.6889 2.6889 2.6889v-5.3778h-8.0667v-2.6889z" fill="url(#k)" stroke="#897416" stroke-width="1.15"/><g font-family="Noto Sans" font-size="14.667" font-style="italic"><text fill="#2b7dba" font-weight="700" x="27.720675" y="99.155571">id</text><text fill="#4964a6" font-weight="700" x="65.416656" xml:space="preserve" y="99.155571"> integer</text><text fill="#25682d" font-weight="400" x="207.54666" y="99.155571">« pk »</text></g><circle cx="15.971" cy="116.05" fill="url(#l)" r="5.5" stroke="#5a9ee4" stroke-width="1.15"/><g font-family="Noto Sans" font-size="14.667" font-style="italic"><text font-weight="400" x="26.620638" y="121.75555">name</text><text fill="#4964a6" font-weight="700" x="65.416656" xml:space="preserve" y="121.75555"> varchar(255)</text><text fill="#25682d" font-weight="400" x="206.29666" y="121.75555">« nn »</text></g><path d="m17.193 136.48-6.7222 6.7222 5.3778 5.3778h6.7222v-6.7222z" fill="url(#m)" stroke="#4c4c98" stroke-width="1.15"/><g font-family="Noto Sans" font-size="14.667" font-style="italic"><text fill="#082061" font-weight="400" x="27.552645" y="148.35555">student_id_pk</text><text fill="#4964a6" font-weight="700" x="118.92667" xml:space="preserve" y="148.35555"> constraint</text><text fill="#25682d" font-weight="400" x="207.54666" y="148.35555">« pk »</text></g><path d="m2.4707 156.13h246.23v7.924l-.182 2.0838-.542 2.0204-.884 1.8958-1.2 1.7135-1.479 1.479-1.713 1.1998-1.896.884-2.02.5414-2.084.1823h-222.23l-2.0838-.1823-2.0205-.5414-1.8958-.884-1.7134-1.1998-1.4791-1.479-1.1998-1.7135-.88402-1.8958-.54138-2.0204-.1823-2.0838z" fill="url(#T)" stroke="#d7d7d7"/><g stroke="#bebebe"><path d="m139.09 161.1h11l-5.5 8.8z" fill="url(#n)" opacity=".4"/><path d="m123.07 161.1-5.5 8.8h11z" fill="url(#o)"/><path d="m100.11 161.16 4.4 4.4-4.4 4.4-4.4-4.4z" fill="url(#p)"/></g><path d="m2.47066 66.32426.18231-2.0838.54138-2.0205.88401-1.8958 1.1998-1.7134 1.4791-1.4791 1.7134-1.1998 1.8958-.88401 2.0205-.54138 2.0838-.18231h222.22999l2.084.18231 2.02.54138 1.896.88401 1.713 1.1998 1.479 1.4791 1.2 1.7134.884 1.8958.542 2.0205.182 2.0838v14h-246.22999z" fill="url(#U)" stroke="#3175b0"/><g font-family="Noto Sans" font-size="14.667"><text font-style="italic" font-weight="400" x="74.658157" y="71.657562">public.</text><text fill="#fff" font-weight="700" x="119.00166" y="71.657562">student</text></g></g><path d="m429.02 41.69c0-6.6274 5.3726-12 12-12h262.66c6.627 0 12 5.3726 12 12v143.92c0 6.627-5.373 12-12 12h-262.66c-6.6274 0-12-5.373-12-12z" fill="url(#V)"/><g stroke-linecap="square" stroke-linejoin="bevel"><path d="m421.02 47.69h285.66v49.2h-285.66z" fill="url(#W)" stroke="#d7d7d7"/><path d="m421.02 96.89h285.66v71.8h-285.66z" fill="url(#X)" stroke="#d7d7d7"/><path d="m431.71 54.73-2.6889 2.6889v6.7222l2.6889 2.6889 1.3444-1.3444v-2.6889h1.3444l1.3444 1.3444 2.6889-2.6889 2.6889 2.6889v-5.3778h-8.0667v-2.6889z" fill="url(#q)" stroke="#897416" stroke-width="1.15"/><g font-family="Noto Sans" font-size="14.667" font-style="italic"><text fill="#2b7dba" font-weight="700" x="446.27335" y="66.521355">student</text><text fill="#4964a6" font-weight="700" x="501.99234" xml:space="preserve" y="66.521355"> integer</text><text fill="#25682d" font-weight="400" x="649.44934" y="66.521355">« pk fk »</text></g><path d="m431.71 77.33-2.6889 2.6889v6.7222l2.6889 2.6889 1.3444-1.3444v-2.6889h1.3444l1.3444 1.3444 2.6889-2.6889 2.6889 2.6889v-5.3778h-8.0667v-2.6889z" fill="url(#r)" stroke="#897416" stroke-width="1.15"/><g font-family="Noto Sans" font-size="14.667" font-style="italic"><text fill="#2b7dba" font-weight="700" x="446.27335" y="89.121361">address</text><text fill="#4964a6" font-weight="700" x="501.99234" xml:space="preserve" y="89.121361"> integer</text><text fill="#25682d" font-weight="400" x="649.44934" y="89.121361">« pk fk »</text></g><path d="m435.75 103.84-6.7222 6.7222 5.3778 5.3778h6.7222v-6.7222z" fill="url(#s)" stroke="#4c4c98" stroke-width="1.15"/><g font-family="Noto Sans" font-size="14.667" font-style="italic"><text fill="#082061" font-weight="400" x="446.10535" y="115.72137">student_address_pk</text><text fill="#4964a6" font-weight="700" x="576.89935" xml:space="preserve" y="115.72137"> constraint</text><text fill="#25682d" font-weight="400" x="665.51935" y="115.72137">« pk »</text></g><path d="m435.75 126.44-6.7222 6.7222 5.3778 5.3778h6.7222v-6.7222z" fill="url(#t)" stroke="#4c4c98" stroke-width="1.15"/><g font-family="Noto Sans" font-size="14.667" font-style="italic"><text fill="#082061" font-weight="400" x="446.10535" y="138.32133">student_fk</text><text fill="#4964a6" font-weight="700" x="576.89935" xml:space="preserve" y="138.32133"> constraint</text><text fill="#25682d" font-weight="400" x="669.42932" y="138.32133">« fk »</text></g><path d="m435.75 149.04-6.7222 6.7222 5.3778 5.3778h6.7222v-6.7222z" fill="url(#u)" stroke="#4c4c98" stroke-width="1.15"/><g font-family="Noto Sans" font-size="14.667" font-style="italic"><text fill="#082061" font-weight="400" x="446.10535" y="160.92134">address_fk</text><text fill="#4964a6" font-weight="700" x="576.89935" xml:space="preserve" y="160.92134"> constraint</text><text fill="#25682d" font-weight="400" x="669.42932" y="160.92134">« fk »</text></g><path d="m421.02364 168.69005h285.656v7.924l-.183 2.0838-.541 2.0204-.884 1.8958-1.2 1.7135-1.479 1.479-1.713 1.1998-1.896.884-2.02.5414-2.084.1823h-261.656l-2.08378-.1823-2.02046-.5414-1.89576-.884-1.71345-1.1998-1.47908-1.479-1.19977-1.7135-.88401-1.8958-.54138-2.0204-.18231-2.0838z" fill="url(#Y)" stroke="#d7d7d7"/><g stroke="#bebebe"><path d="m577.35 173.66h11l-5.5 8.8z" fill="url(#M)" opacity=".4"/><path d="m561.33 173.66-5.5 8.8h11z" fill="url(#N)"/><path d="m538.37 173.72 4.4 4.4-4.4 4.4-4.4-4.4z" fill="url(#O)"/></g><path d="m421.02364 33.69005.18231-2.0838.54138-2.0205.88401-1.8958 1.1998-1.7134 1.4791-1.4791 1.7134-1.1998 1.8958-.88401 2.0205-.54138 2.0838-.18231h261.66l2.084.18231 2.02.54138 1.896.88401 1.713 1.1998 1.479 1.4791 1.2 1.7134.884 1.8958.541 2.0205.183 2.0838v14h-285.66z" fill="url(#Z)" stroke="#3175b0"/><g font-family="Noto Sans" font-size="14.667"><text font-style="italic" font-weight="400" x="480.71115" y="39.02335">public.</text><text fill="#fff" font-weight="700" x="525.05463" y="39.02335">student_address</text></g></g></g></svg>