<svg height="54pt" viewBox="0 0 154 54" width="154pt" xmlns="http://www.w3.org/2000/svg"><path d="m1.6253 1.591h95.034v50.818h-95.034z" fill="#ee7105" stroke="#b5161e" stroke-linecap="round" stroke-linejoin="round" stroke-width=".353"/><text stroke-width=".35278" x="272.78867" y="-3.134116"><tspan stroke-width=".35278" x="272.78867" y="-3.134116"/></text><text stroke-width=".35278" x="329.68045" y="-60.873306"><tspan stroke-width=".35278" x="329.68045" y="-60.873306"/></text><g fill="none" stroke="#fff" stroke-linecap="round" stroke-linejoin="round" stroke-width="2"><path d="m28.78837 38.8002v9.6554c6.7441 1.014 14.443.92823 20.314.93548 2.403-.00081 20.175-.24359 20.314-.94025v-9.6507c-13.651-2.0044-27.092-.11253-40.629.00001z"/><ellipse cx="49.103" cy="38.83" rx="20.315" ry="1.0213"/><path d="m20.387 8.8302 28.716 17.723"/><path d="m49.143 8.8302-.03987 29.823"/><path d="m77.899 8.8302-28.796 17.723"/><g stroke-miterlimit="10"><path d="m69.417 30.67v-8.4366h-40.629v8.4366z"/><path d="m32.992 13.05v-8.4366h-25.211v8.4366z"/><path d="m61.748 13.05v-8.4366h-25.211v8.4366z"/><path d="m90.504 13.05v-8.4366h-25.211v8.4366z"/></g></g><path d="m28.787367 38.7972v9.6554c6.7441 1.014 14.443.92823 20.314.93548 2.403-.00081 20.175-.24359 20.314-.94025v-9.6507c-13.651-2.0044-27.092-.11253-40.629.00001z" fill="#ee7105" stroke="#b5161e" stroke-width=".353"/><ellipse cx="49.102" cy="38.83" fill="#ee7105" rx="20.315" ry="1.0213" stroke="#b5161e" stroke-linecap="round" stroke-linejoin="round" stroke-width=".353"/><g stroke-width=".35278"><g stroke="#b5161e" stroke-linejoin="round"><g fill="none" stroke-linecap="round"><path d="m20.386 8.8304 28.716 17.723"/><path d="m49.142 8.8304-.03987 29.823"/><path d="m77.898 8.8304-28.796 17.723"/></g><path d="m69.416 30.666v-8.4366h-40.629v8.4366z" fill="#ee7105" stroke-miterlimit="10"/></g><text font-family="DejaVu Sans" font-size="2.707" x="29.269258" y="27.194704"><tspan x="29.269258" y="27.194704">Konzeptuelle/Logische Ebene</tspan></text><path d="m32.991 13.048v-8.4366h-25.211v8.4366z" fill="#ee7105" stroke="#b5161e" stroke-linejoin="round" stroke-miterlimit="10"/><text font-family="'DejaVu Sans'" font-size="2.707" x="10.045603" y="9.839533"><tspan font-family="'DejaVu Sans'" stroke-width=".35278" x="10.045603" y="9.839533">Externe Sicht 1</tspan></text><path d="m61.747 13.048v-8.4366h-25.211v8.4366z" fill="#ee7105" stroke="#b5161e" stroke-linejoin="round" stroke-miterlimit="10"/><text font-family="'DejaVu Sans'" font-size="2.707" x="38.812176" y="9.839533"><tspan font-family="'DejaVu Sans'" stroke-width=".35278" x="38.812176" y="9.839533">Externe Sicht 2</tspan></text><path d="m90.503 13.048v-8.4366h-25.211v8.4366z" fill="#ee7105" stroke="#b5161e" stroke-linejoin="round" stroke-miterlimit="10"/><text font-family="'DejaVu Sans'" font-size="2.707" x="67.579414" y="9.839533"><tspan font-family="'DejaVu Sans'" stroke-width=".35278" x="67.579414" y="9.839533">Externe Sicht...</tspan></text><text font-family="DejaVu Sans" font-size="2.707" x="37.676582" y="45.690979"><tspan x="37.676582" y="45.690979">Physische Ebene</tspan></text><text x="103.83743" y="47.000862"><tspan x="103.83743" y="47.000862"/></text></g><text font-family="DejaVu Sans" font-size="2.707" stroke-width=".75" x="100.00926" y="39.305237"><tspan x="100.00926" y="39.305237">Wie die Daten tatsächlich</tspan><tspan x="100.00926" y="42.688988">gespeichert werden.</tspan><tspan x="100.00926" y="46.072739">Dies geschieht versteckt von den</tspan><tspan x="100.00926" y="49.456486">Anwendungen.</tspan></text><text style="font-family:Ubuntu;font-size:3.0192;font-weight:bold;stroke:#fff;stroke-linecap:round;stroke-linejoin:round;stroke-width:.5" x="2.493668" y="51.067039"><tspan style="font-family:DejaVu Sans;font-size:3.0192;font-weight:normal;stroke:#fff;stroke-linecap:round;stroke-linejoin:round;stroke-width:.5" x="2.493668" y="51.067039">Datenbank</tspan></text><text font-family="DejaVu Sans" font-size="2.707" stroke-width=".75" x="99.932594" y="25.405977"><tspan x="99.932594" y="25.405977">Definition von allen Tabellen</tspan><tspan x="99.932594" y="28.789728">in der Datenbank</tspan><tspan x="99.932594" y="32.173477">und deren Relationen.</tspan></text><text font-family="DejaVu Sans" font-size="2.707" stroke-width=".75" x="99.935242" y="6.261865"><tspan x="99.935242" y="6.261865">Verschiedene Sichten (views)</tspan><tspan x="99.935242" y="9.645616">auf die Daten:</tspan><tspan x="99.935242" y="13.029366">Verschiedene Applikationen sehen</tspan><tspan x="99.935242" y="16.413115">verschiedene Untermengen der Daten.</tspan></text><text style="font-family:Ubuntu;font-size:3.0192;font-weight:bold;stroke-linecap:round;stroke-linejoin:round;stroke-width:.5" x="2.493668" y="51.067039"><tspan style="font-family:DejaVu Sans;font-size:3.0192;font-weight:normal;stroke-linecap:round;stroke-linejoin:round;stroke-width:.5" x="2.493668" y="51.067039">Datenbank</tspan></text></svg>