<svg height="35pt" preserveAspectRatio="none" viewBox="0 0 35 35" width="35pt" xmlns="http://www.w3.org/2000/svg"><path d="m.99934.99934v7h7v-7zm9.0005 0v2.0006h1.0003v-1.0003h2.0006v-1.0003zm1.0003 2.0006v1.0003h-1.0003v-1.0003h-1.0003v5.9997h4.0011v1.0003h-3.0009v1.0003h-1.0003v-1.0003h-1.0003v1.0003h-.99825v1.0003h.99825v1.0003h-1.9985v1.0003h3.9991v-1.0003h1.0003v-2.0006h1.0003v2.0006h2.9988v-1.0003h1.0003v1.0003h1.0003v-1.0003h1.0003v1.0003h2.0006v1.0003h-1.0003v.99825h3.9991v1.0003h-1.0003v1.0003h1.0003v1.0003h1.0003v-3.0009h1.0003v-.99825h1.0003v-1.0003h-2.0006v-1.0003h-1.0003v-1.0003h2.0006v-1.0003h-1.0003v-2.9988h-1.0003v.99825h-1.0003v-.99825h-.99825v1.9985h1.9985v1.0003h-2.9988v1.0003h1.9985v1.0003h-2.9988v-3.0009h-1.0003v1.0003h-1.0003v1.0003h-2.0006v-1.0003h1.0003v-3.9991h3.0009v1.9985h1.0003v-1.9985h2.9988v-1.0003h-2.9988v-1.0003h2.9988v-1.0003h-1.0003v-1.0003h3.0009v-1.0003h-5.9997v1.0003h2.0006v1.0003h-2.0006v2.0006h-4.9994v-2.0006h-1.0003v1.0003h-1.0003v-1.0003h-1.0003zm8.0003 0v-1.0003h-3.0009v1.0003h1.0003v1.0003h1.0003v-1.0003zm-3.0009 0h-1.0003v1.0003h1.0003zm7 1.0003v1.0003h1.0003v-1.0003zm1.0003 1.0003v1.0003h1.0003v-1.0003zm1.0003 0h1.0003v-2.0006h-1.0003zm-7 3.9991v-1.9985h-1.0003v1.9985zm7 1.0003h1.0003v-2.9988h-1.0003zm1.0003 3.0009h2.0006v-1.0003h-2.0006zm-1.0003 1.9985v1.0003h1.0003v1.0003h-1.0003v1.0003h1.0003v3.9991h1.0003v-.99825h1.0003v.99825h2.9988v-.99825h2.0006v-2.0006h1.0003v-2.0006h-1.0003v1.0003h-3.0009v1.0003h1.0003v1.0003h-1.0003v-1.0003h-1.0003v-1.0003h1.0003v-1.0003h-1.9985v1.0003h-1.0003v-1.0003h1.0003v-2.9988h-1.0003v.99825zm4.9994 2.0006h2.0006v-1.0003h1.0003v-1.0003h1.0003v-.99825h-1.0003v-1.0003h-1.0003v1.0003h-1.0003v.99825h-1.0003zm1.0003-2.9988v-1.0003h1.0003v-1.0003h1.0003v-1.0003h-1.0003v-2.0006h-4.9994v2.0006h1.9985v-1.0003h1.0003v1.0003h1.0003v1.0003h-1.0003v-1.0003h-1.0003v3.0009zm2.0006-3.0009h1.0003v-1.0003h-1.0003zm-2.0006 10.999v1.0003h1.0003v-1.0003zm1.0003 1.0003v1.0003h-2.0006v1.0003h2.0006v1.0003h1.0003v-3.0009zm1.0003 0h1.0003v-1.0003h-1.0003zm0 3.0009v1.0003h1.0003v-1.0003zm0 1.0003h-1.0003v-1.0003h-1.0003v2.0006h-1.0003v-3.0009h-1.0003v-1.0003h-.99825v1.0003h-2.0006v-1.0003h-1.0003v3.0009h-2.0006v-1.0003h-1.9985v-1.0003h1.9985v1.0003h1.0003v-3.0009h-1.0003v-1.0003h-1.0003v-.99825h1.0003v.99825h1.0003v1.0003h1.0003v-2.9988h-3.0009v-1.0003h-.99825v2.9988h-1.0003v1.0003h1.9985v1.0003h-1.9985v-1.0003h-1.0003v2.0006h1.0003v2.0006h1.0003v1.0003h.99825v.99825h1.0003v2.0006h1.0003v-2.0006h1.0003v2.0006h2.0006v-1.0003h1.9985v1.0003h1.0003v-1.0003h1.0003v-1.0003h1.0003v-.99825h1.0003v-1.0003zm-1.0003 1.9985v1.0003h-1.0003v1.0003h-1.0003v1.0003h-1.0003v1.0003h1.0003v1.0003h1.0003v-1.0003h1.0003v-2.0006h2.0006v-1.0003h-1.0003v-1.0003zm0 4.0011v1.0003h1.0003v-1.0003zm-3.0009 0h-.99825v1.0003h.99825zm0-1.0003v-1.0003h-1.9985v1.0003zm-1.9985 0h-1.0003v1.0003h1.0003zm-1.0003 1.0003h-2.0006v-1.0003h-1.0003v-1.0003h-1.9985v1.0003h.99825v1.0003h1.0003v1.0003h3.0009v-1.0003zm-4.0011 0h-.99825v1.0003h.99825zm-.99825 0v-1.0003h-1.0003v1.0003zm0-2.0006v-1.0003h-2.0006v1.0003zm0-2.9988h-2.0006v-3.0009h-1.0003v3.9991h3.0009v-.99825zm-3.0009.99825h-2.0006v1.0003h-1.0003v3.0009h-.99825v1.0003h2.9988v-2.0006h1.0003v-1.0003h-1.0003v-1.0003h1.0003v-1.0003zm0-3.9991v-1.0003h-1.0003v1.0003zm1.0003-2.0006v-1.0003h-3.0009v1.0003zm-3.0009 0h-1.0003v1.0003h-.99825v3.0009h.99825v-1.0003h1.0003zm-1.0003 4.0011v1.0003h2.0006v-1.0003zm0 1.0003h-.99825v.99825h.99825zm-.99825.99825h-1.0003v-.99825h1.0003v-1.0003h-1.0003v-3.0009h-1.0003v1.0003h-3.0009v2.0006h1.0003v1.0003h-1.0003v3.9991h2.0006v-1.0003h-1.0003v-2.0006h1.0003v-1.9985h1.0003v1.9985h-1.0003v2.0006h1.0003v-1.0003h1.0003v2.0006h1.0003v-3.0009zm-1.0003 3.0009h-1.0003v1.0003h-3.0009v1.0003h4.0011v-2.0006zm-4.0011-7v-1.0003h-1.0003v1.0003zm-1.0003 0h-.99825v-1.0003h-1.0003v1.0003h-1.0003v1.0003h2.9988v-1.0003zm-.99825-1.0003h.99825v-1.0003h-.99825zm.99825-1.0003h2.0006v-1.0003h-2.0006zm0-1.0003v-.99825h-.99825v.99825zm0-.99825h1.0003v-2.0006h-1.9985v1.0003h.99825zm-.99825-2.0006v-1.0003h-2.0006v3.0009h1.0003v-2.0006zm-2.0006-1.0003v-2.0006h-2.0006v-1.0003h-2.0006v1.0003h1.0003v1.0003h2.0006v1.0003zm-1.0003 0h-1.0003v1.0003h-1.0003v1.0003h-1.0003v1.0003h1.0003v.99825h-1.0003v4.0011h1.0003v-3.0009h2.0006v-1.0003h-1.0003v-.99825h1.0003v-3.0009zm-2.0006-1.0003h-1.0003v1.0003h1.0003zm3.0009-1.0003h2.9988v-1.0003h-1.9985v-.99825h-1.0003v-1.0003h1.0003v-1.0003h-2.0006v-1.0003h-1.0003v2.0006h-1.0003v1.0003h2.0006v.99825h1.0003zm-3.0009-2.9988v-1.0003h-1.0003v1.0003zm2.0006-2.0006h1.0003v-1.0003h2.9988v-1.0003h-4.9994v1.0003h1.0003zm3.0009 7h.99825v-1.0003h-.99825zm1.9985 1.0003h1.0003v-1.0003h-1.0003zm1.0003-1.0003h1.0003v2.0006h1.0003v-1.0003h2.0006v-1.0003h-1.0003v-1.0003h-1.0003v-1.0003h-2.0006zm0-2.0006v-1.0003h-1.0003v1.0003zm2.0006 0h1.0003v-1.0003h1.0003v-.99825h-2.0006zm0-1.9985v-1.0003h-1.0003v1.0003zm2.0006.99825v1.0003h1.9985v1.0003h-1.0003v1.0003h2.0006v-2.0006h1.0003v-1.0003h-1.0003v-.99825h-1.0003v.99825zm1.9985-.99825v-1.0003h-1.0003v1.0003zm1.0003 0h1.0003v-1.0003h-1.0003zm0 3.9991v1.0003h1.0003v-1.0003zm1.0003 0h1.0003v-1.0003h-1.0003zm1.0003-1.0003h1.0003v-1.0003h-1.0003zm0 1.0003v2.0006h1.0003v-1.0003h1.0003v-1.0003zm-2.0006 1.0003h-1.0003v1.0003h1.0003zm0 1.0003v1.0003h1.0003v-1.0003zm-1.0003 0h-1.0003v1.0003h-.99825v-1.0003h-1.0003v1.0003h-1.0003v.99825h1.0003v2.0006h1.0003v-2.0006h1.9985v-1.9985zm-3.9991 3.9991v-1.0003h-1.0003v1.0003zm7-2.0006h1.0003v-.99825h-1.0003zm2.9988-2.9988h1.0003v-1.0003h-1.0003zm4.0011 4.9994h1.0003v-1.0003h-1.0003zm1.0003-1.0003h1.0003v-1.0003h-1.0003zm1.9985 1.0003h1.0003v-1.0003h-1.0003zm-3.9991-5.9997h-1.0003v1.0003h1.0003zm2.0006-17.001v7h7v-7zm-25.001 1.0003h5.0014v5.0014h-5.0014zm26.001 0h4.9994v5.0014h-4.9994zm-25.001 1.0003v3.0009h3.0009v-3.0009zm25.999 0v3.0009h3.0009v-3.0009zm-18.999 2.0006h1.0003v1.0003h1.0003v1.0003h1.0003v.99825h-1.0003v-.99825h-1.0003v.99825h-1.0003v-.99825h1.0003v-1.0003h-1.0003zm4.0011 2.0006h.99825v1.9985h-.99825zm-13.002 1.9985v1.0003h1.0003v-1.0003zm20.002 4.0011h1.9985v1.0003h-1.9985zm-18.001 10.999v2.0006h1.0003v-2.0006zm23 2.0006h2.9988v2.9988h-2.9988zm-25.001 1.0003v7h7v-7zm26.001 0v1.0003h1.0003v-1.0003zm-25.001 1.0003h5.0014v4.9994h-5.0014zm1.0003.99825v3.0009h3.0009v-3.0009zm15 4.0011v1.0003h1.0003v-1.0003z"/></svg>