<svg height="108pt" viewBox="0 0 542 108" width="542pt" xmlns="http://www.w3.org/2000/svg" xmlns:xlink="http://www.w3.org/1999/xlink"><linearGradient id="a"><stop offset="0" stop-color="#666"/><stop offset="1" stop-color="#333"/></linearGradient><linearGradient id="b" gradientTransform="matrix(6.1537 0 0 6.1522 -681.6 -6005.6)" gradientUnits="userSpaceOnUse" x1="121.31" x2="121.31" xlink:href="#a" y1="976.38" y2="992.42"/><linearGradient id="c" gradientTransform="matrix(6.1783 0 0 6.2105 -690.83 -6062.6)" gradientUnits="userSpaceOnUse" x1="110.97" x2="110.97" xlink:href="#a" y1="976.3" y2="992.38"/><linearGradient id="d" gradientTransform="matrix(6.1378 0 0 6.1635 -1792.8 -1491)" gradientUnits="userSpaceOnUse" x1="294.34" x2="294.42" y1="256.58" y2="243.14"><stop offset="0" stop-color="#b3b3b3"/><stop offset="1" stop-color="#e6e6e6"/></linearGradient><linearGradient id="e" gradientUnits="userSpaceOnUse" x1="10.884" x2="10.884" y1="60.206" y2="10.477"><stop offset="0" stop-color="#fff" stop-opacity=".58824"/><stop offset="1" stop-color="#fff" stop-opacity=".86274"/></linearGradient><linearGradient id="f" gradientTransform="matrix(.28506 .28506 -.54394 .54394 -613.72 633.65)" gradientUnits="userSpaceOnUse" x1="78.822" x2="144" xlink:href="#g" y1="-1194.6" y2="-1194.6"/><linearGradient id="g"><stop offset="0" stop-opacity="0"/><stop offset=".49306"/><stop offset="1" stop-opacity="0"/></linearGradient><linearGradient id="h" gradientTransform="matrix(.28506 .28506 -.54394 .54394 -613.72 646.72)" gradientUnits="userSpaceOnUse" x1="30.744" x2="144" xlink:href="#g" y1="-1194.6" y2="-1194.6"/><linearGradient id="i" gradientTransform="matrix(.52079 0 0 .76923 16.977 912.87)" gradientUnits="userSpaceOnUse" x1="-17" x2="144" xlink:href="#g" y1="-1194.6" y2="-1194.6"/><linearGradient id="j" gradientTransform="matrix(.26278 0 0 .76923 -57.764 823.13)" gradientUnits="userSpaceOnUse" x1="-17" x2="144" xlink:href="#g" y1="-1194.6" y2="-1194.6"/><linearGradient id="k" gradientUnits="userSpaceOnUse" x1="-9.9228" x2="-21.366" xlink:href="#l" y1="91.203" y2="79.76"/><linearGradient id="l"><stop offset="0"/><stop offset=".45461" stop-opacity=".36078"/><stop offset="1" stop-opacity="0"/></linearGradient><linearGradient id="m" gradientUnits="userSpaceOnUse" x1="73" x2="61.558" xlink:href="#l" y1="91.203" y2="79.76"/><linearGradient id="n" gradientTransform="matrix(.76924 0 0 -.76924 -272.39 239.71)" gradientUnits="userSpaceOnUse" x1="364.87" x2="377.85" y1="300.82" y2="287.83"><stop offset="0"/><stop offset="1" stop-opacity="0"/></linearGradient><linearGradient id="o" gradientTransform="matrix(.28506 .28506 -.54394 .54394 -615.26 650.57)" gradientUnits="userSpaceOnUse" x1="30.744" x2="144" xlink:href="#g" y1="-1194.6" y2="-1194.6"/><linearGradient id="p" gradientTransform="matrix(.40133 0 0 .76924 15.976 1010.9)" gradientUnits="userSpaceOnUse" x1="-17" x2="144" xlink:href="#g" y1="-1194.6" y2="-1194.6"/><filter id="q" color-interpolation-filters="sRGB" height="1.1703" width="1.8254" x="-.34156" y="-.070481"><feGaussianBlur result="result8" stdDeviation="1"/><feOffset dx="1" dy="1" result="result11"/><feComposite in="SourceGraphic" in2="result11" operator="in" result="result6"/><feFlood flood-color="#333" in="result6" result="result10"/><feBlend in="result6" in2="result10" result="result12"/><feComposite in2="SourceGraphic" operator="in" result="result2"/></filter><linearGradient id="r" gradientUnits="userSpaceOnUse" x1="158.49" x2="158.49" y1="2022.2" y2="1982.2"><stop offset="0" stop-color="#333"/><stop offset="1" stop-color="#808080"/></linearGradient><filter id="s" color-interpolation-filters="sRGB" height="1.1724" width="1.5574" x="-.23067" y="-.071331"><feGaussianBlur result="result8" stdDeviation="1"/><feOffset dx="1" dy="1" result="result11"/><feComposite in="SourceGraphic" in2="result11" operator="in" result="result6"/><feFlood flood-color="#106802" in="result6" result="result10"/><feBlend in="result6" in2="result10" result="result12"/><feComposite in2="SourceGraphic" operator="in" result="result2"/></filter><linearGradient id="t" gradientUnits="userSpaceOnUse" x1="160.77" x2="160.77" y1="2011.2" y2="1972.8"><stop offset="0" stop-color="#18a303"/><stop offset="1" stop-color="#92e285"/></linearGradient><g fill="url(#r)"><path d="m273.62 1975c-12.161 0-22.16 8.8506-22.16 23.579s9.9992 23.579 22.16 23.579c12.161 0 22.16-8.8507 22.16-23.579s-9.9992-23.579-22.16-23.579m0 4.5942c9.0534 0 15.945 6.7562 15.945 18.985s-6.8914 18.985-15.945 18.985c-9.0533 0-15.945-6.7562-15.945-18.985s6.8914-18.985 15.945-18.985" filter="url(#q)" transform="matrix(1.3486 0 0 1.3542 -37.714 -2638.3)"/><path d="m304.43 1986.7v2.0945h-5.3374v4.324h5.3374v28.376h5.6752v-28.376h8.3777v-4.324h-8.3777v-2.9728c0-5.8779 2.4998-9.3236 7.0265-9.3236 2.0944 0 3.4457.3378 4.7294.8108l.5405-4.1889c-1.2161-.4729-3.5132-.9459-5.3374-.9459-8.0399 0-12.634 5.2023-12.634 14.526" filter="url(#q)" transform="matrix(1.3486 0 0 1.3542 -37.714 -2638.3)"/><path d="m323.3 1986.7v2.0945h-5.3374v4.324h5.3374v28.376h5.6752v-28.376h8.3777v-4.324h-8.3777v-2.9728c0-5.8779 2.4998-9.3236 7.0265-9.3236 2.0944 0 3.4457.3378 4.7294.8108l.54049-4.1889c-1.2161-.4729-3.5132-.9459-5.3374-.9459-8.0399 0-12.634 5.2023-12.634 14.526" filter="url(#q)" transform="matrix(1.3486 0 0 1.3542 -37.714 -2638.3)"/><path d="m343.93 2021.5h5.6752v-32.7h-5.6752zm2.8376-37.497c1.9593 0 3.5132-1.5539 3.5132-3.5132s-1.5539-3.5132-3.5132-3.5132-3.5132 1.5539-3.5132 3.5132 1.5539 3.5132 3.5132 3.5132" filter="url(#q)" transform="matrix(1.3486 0 0 1.3542 -37.714 -2638.3)"/><path d="m361.4 2005c0-8.2426 4.9321-12.567 11.35-12.567 3.3781 0 6.3509.8108 8.7831 1.9593l.5405-4.3239c-2.0269-1.0135-5.2699-1.9594-8.8507-1.9594-10.134 0-17.769 6.1482-17.769 17.634 0 10.81 6.8914 16.418 16.012 16.418 4.0537 0 6.9589-.473 10.269-1.8918l-.5405-4.324c-2.8376 1.2837-5.8779 1.8918-8.7155 1.8918-6.5535 0-11.08-4.1213-11.08-12.837" filter="url(#q)" transform="matrix(1.3486 0 0 1.3542 -37.714 -2638.3)"/><path d="m414.09 2006.5c.13512-1.2161.20268-2.2295.20268-3.243 0-8.3777-4.3916-15.066-12.837-15.066-9.1209 0-15.81 7.567-15.81 17.634 0 11.08 6.6887 16.418 15.81 16.418 4.0537 0 7.094-.6081 10.269-1.8918l-.54049-4.324c-2.4998 1.2161-6.0806 1.8918-8.9182 1.8918-6.5535 0-10.81-3.9862-10.945-11.418zm-13.107-13.985c4.9996 0 7.7021 4.1213 7.7021 9.5263h-17.093c.81075-5.7428 3.9862-9.5263 9.3912-9.5263" filter="url(#q)" transform="matrix(1.3486 0 0 1.3542 -37.714 -2638.3)"/></g><g fill="url(#t)"><path d="m103.62 1975.7v45.807h29.66v-6.9589h-20.607v-38.848z" filter="url(#s)" transform="matrix(1.3486 0 0 1.3542 -37.714 -2638.3)"/><path d="m138.75 2021.5h9.0534v-32.97h-9.0534zm4.5267-35.808c2.8376 0 5.2023-2.2971 5.2023-5.2023 0-2.8376-2.3647-5.2023-5.2023-5.2023-2.9052 0-5.2023 2.3647-5.2023 5.2023 0 2.9052 2.2971 5.2023 5.2023 5.2023" filter="url(#s)" transform="matrix(1.3486 0 0 1.3542 -37.714 -2638.3)"/><path d="m163.57 1992.4h-.13513v-19.526h-9.0534v48.645h8.8507l.20268-3.851h.13513c2.8376 3.1754 5.6752 4.5267 10.337 4.5267 8.7831 0 14.593-7.9048 14.593-17.769 0-9.5263-5.2023-16.553-14.188-16.553-4.7969 0-7.6346 1.4188-10.742 4.5267m-.13513 11.891c0-5.6752 2.5674-9.4587 7.4319-9.4587 5.405 0 8.1075 3.8511 8.1075 10.134 0 6.2157-2.6349 10.269-7.9724 10.269-4.6618 0-7.567-3.6483-7.567-9.4587z" filter="url(#s)" transform="matrix(1.3486 0 0 1.3542 -37.714 -2638.3)"/><path d="m212.79 1987.9c-4.324.2702-8.4453 2.9052-10.337 6.5535h-.13512l-.20269-5.8779h-8.8507v32.97h9.0534v-12.431c0-6.6211 1.2161-8.9858 3.3106-10.472 1.8242-1.2837 3.9862-1.8242 6.9589-1.9593z" filter="url(#s)" transform="matrix(1.3486 0 0 1.3542 -37.714 -2638.3)"/><path d="m246.1 2003.1c0-8.175-4.9996-15.202-13.648-15.202-10.405 0-17.093 7.1616-17.093 18.039 0 10.607 6.8914 16.283 17.093 16.283 4.7969 0 8.175-.7432 11.35-2.162l-.94587-6.7563c-2.9727 1.2161-6.013 1.9593-9.256 1.9593-5.4725 0-8.9858-2.4998-9.3236-7.6345h21.417c.27025-1.2161.40537-3.1079.40537-4.5267m-14.593-8.2426c3.9186 0 5.7428 3.1754 5.8779 6.5536h-12.769c.67563-3.7835 3.3106-6.5536 6.8914-6.5536" filter="url(#s)" transform="matrix(1.3486 0 0 1.3542 -37.714 -2638.3)"/></g><path d="m1.4635 5.8443v89.208c.000307 3.2212 1.3933 4.6134 4.6152 4.6137h70.768c3.222-.00031 4.6149-1.3925 4.6152-4.6137v-55.246c.0369-1.6246-.59999-3.2543-1.7307-4.4219l-32.433-32.423c-1.1679-1.1302-2.798-1.768-4.423-1.7303h-36.797c-3.1937 0-4.6293 2.6806-4.6152 4.6137z" fill="url(#b)"/><path d="m58.874 1.2503c-2.0481.656-2.7374 3.7739-1.1584 5.2401l18.535 18.632c1.7123 1.6321 5.1227.2356 5.213-2.1349v-18.632c-.00019-1.6259-1.4717-3.1051-3.0892-3.1053h-18.535c-.31938-.04921-.64614-.04921-.96534 0z" fill="url(#c)"/><path d="m6.0767 5.8641v89.232h70.769v-56.059l-.48075-.48062-32.115-32.308-.38459-.38462h-36.25z" fill="url(#d)"/><path d="m9.1536 8.941h32.488l32.126 32.308v50.77h-64.614z" fill="url(#e)"/><path d="m58.929 6.6871 18.202 18.202-.54401.54401-18.202-18.202z" fill="url(#f)" opacity=".25"/><path d="m45.083 5.9179 32.048 32.048-.54401.54401-32.048-32.048z" fill="url(#h)" opacity=".25"/><path d="m8.125-6.0765h83.847v.76924h-83.847z" fill="url(#i)" opacity=".25" transform="rotate(90)"/><path d="m-62.231-95.818h42.308v.76924h-42.308z" fill="url(#j)" opacity=".25" transform="scale(-1)"/><path d="m-34.538 66.587h24.616v24.616h-24.616z" fill="url(#k)" opacity=".15" transform="scale(-1 1)"/><path d="m48.385 66.587h24.616v24.616h-24.616z" fill="url(#m)" opacity=".15"/><path d="m8.3844 27.403v-19.231h19.231v.76924h-18.462v18.462z" fill="url(#n)" opacity=".1"/><path d="m43.544 9.7641 32.048 32.048-.544.54401-32.048-32.048z" fill="url(#o)" opacity=".1"/><path d="m9.1536 91.972h64.614v.76925h-64.614z" fill="url(#p)" opacity=".2"/><path d="m533.47 37.504c-.8327.000014-1.6082.14939-2.3264.44813-.71828.29876-1.3762.74689-1.9737 1.3444-.59751.59751-1.0488 1.2618-1.3539 1.9927-.30511.72464-.45766 1.5001-.45766 2.3264 0 .81998.15255 1.5923.45766 2.3169.30511.71828.75641 1.3762 1.3539 1.9737.5975.5975 1.2554 1.0488 1.9737 1.3539.71827.29875 1.4938.44813 2.3264.44813.83903.000001 1.6177-.14938 2.336-.44813.72462-.30511 1.3857-.75641 1.9832-1.3539.59113-.59114 1.0329-1.2459 1.3253-1.9641.29873-.71827.44811-1.4938.44813-2.3264-.00002-.8454-.1494-1.6272-.44813-2.3455-.29877-.72462-.74054-1.3825-1.3253-1.9737-.59752-.59749-1.2586-1.0456-1.9832-1.3444-.71829-.29874-1.497-.44811-2.336-.44813m0-.98206c.96616.000014 1.8656.17482 2.6983.5244.83904.34962 1.605.87084 2.2978 1.5637.69284.69286 1.2109 1.4556 1.5542 2.2883.34323.8327.51485 1.7385.51487 2.7174-.00002.96618-.17164 1.8656-.51487 2.6983-.34327.82634-.86131 1.5859-1.5542 2.2788-.69286.69285-1.4588 1.2141-2.2978 1.5637-.8327.3496-1.7321.5244-2.6983.5244-.96618 0-1.8688-.1748-2.7078-.5244-.8327-.3496-1.5955-.87083-2.2883-1.5637-.69285-.69284-1.2109-1.4524-1.5541-2.2788-.34325-.83268-.51487-1.7321-.51487-2.6983 0-.97888.17162-1.8847.51487-2.7174.34324-.83268.86129-1.5954 1.5541-2.2883.69285-.69284 1.4556-1.2141 2.2883-1.5637.83904-.34959 1.7416-.52439 2.7078-.5244m-.25744 3.9473h-1.1728v2.6316h1.1728c.6992.000007 1.1855-.09852 1.4588-.29557.27967-.19704.41951-.53393.41952-1.0107-.00001-.48308-.13985-.82314-.41952-1.0202-.27969-.2034-.76596-.3051-1.4588-.30511m.0667-.98206c1.1187.000012 1.9546.1907 2.5076.57208.55299.37504.8295.94711.82951 1.7162-.00001.54666-.16846.99796-.50533 1.3539-.33055.35597-.80092.58797-1.4111.69603.15255.05086.3337.20023.54348.44813.2161.24155.47036.59433.76277 1.0583l1.3062 2.1262h-1.64l-1.23-1.9927c-.37504-.61021-.68015-.99477-.91532-1.1537-.22884-.16526-.51488-.24789-.85812-.2479h-.62928v3.3943h-1.4779v-7.9709z" fill="#3c3c3c"/></svg>