<?xml version="1.0" encoding="UTF-8"?>
<svg width="131pt" height="131pt" viewBox="0 0 131 131" xmlns="http://www.w3.org/2000/svg"><filter id="a" x="-.028201" y="-.028208" width="1.0564" height="1.0564" color-interpolation-filters="sRGB"><feGaussianBlur stdDeviation=".87589692"/></filter><filter id="b" x="-.026997" y="-.027003" width="1.054" height="1.054" color-interpolation-filters="sRGB"><feGaussianBlur stdDeviation=".83848665"/></filter><filter id="c" x="-.020604" y="-.01488" width="1.0412" height="1.0298" color-interpolation-filters="sRGB"><feGaussianBlur stdDeviation=".65837875"/></filter><radialGradient id="d" cx="537.48" cy="263.01" r="38.48" gradientTransform="matrix(-2.5389 -4.4034 2.5221 -1.4544 780.32 2845.6)" gradientUnits="userSpaceOnUse"><stop stop-color="#eff3f6" offset="0"/><stop stop-color="#6a90c4" offset="1"/></radialGradient><linearGradient id="e" x1="78.441" x2="79.782" y1="82.866" y2="79.362" gradientUnits="userSpaceOnUse"><stop stop-color="#ccc" offset="0"/><stop stop-color="#f9f9f9" offset="1"/></linearGradient><filter id="f" x="-.26554" y="-.15932" width="1.5311" height="1.3186" color-interpolation-filters="sRGB"><feGaussianBlur stdDeviation="2.4948366"/></filter><g transform="translate(-.75 -.5)"><path d="m47.321 112.99 58.755-58.758 15.786 15.782-58.735 58.741z" fill="#333" filter="url(#a)" opacity=".3"/><path d="m36.764 91.675 58.755-58.758 15.786 15.782-58.735 58.741z" fill="#333" filter="url(#a)" opacity=".3"/><g stroke-linejoin="round" stroke-miterlimit="3" stroke-width=".20172"><path d="m56.716 70.246-19.624 19.625 25.61 5.9746z" fill="#f7ba5d" stroke="#f7ba5d"/><path d="m62.682 95.866 19.617-19.617-25.602-5.9822z" fill="#f8c270" stroke="#f8c270"/><path d="m76.288 50.674-19.609 19.609 25.6 5.9846z" fill="#f9ca83" stroke="#f9ca83"/><path d="m82.26 76.286 19.609-19.609-25.597-5.9874z" fill="#fad296" stroke="#fad296"/><path d="m95.848 31.112-19.591 19.591 25.597 5.987z" fill="#fbdaa9" stroke="#fbdaa9"/><path d="m95.883 31.078 15.786 15.782-9.7798 9.7964z" fill="#fce2bc" stroke="#fce2bc"/><path d="m37.103 89.86 15.806 15.765 9.7733-9.7582z" fill="#f6b14a" stroke="#f6b14a"/><path d="m67.106 91.429-19.624 19.625 25.61 5.9746z" fill="#45d543" stroke="#45d543"/><path d="m73.072 117.05 19.617-19.617-25.602-5.9822z" fill="#55d953" stroke="#55d953"/><path d="m86.677 71.858-19.609 19.609 25.6 5.9846z" fill="#65dc64" stroke="#65dc64"/><path d="m92.65 97.47 19.609-19.609-25.597-5.9874z" fill="#75e074" stroke="#75e074"/><path d="m106.24 52.296-19.591 19.591 25.597 5.987z" fill="#86e385" stroke="#86e385"/><path d="m106.27 52.262 15.786 15.782-9.7798 9.7964z" fill="#96e795" stroke="#96e795"/><path d="m47.493 111.04 15.806 15.765 9.7733-9.7582z" fill="#36d034" stroke="#36d034"/></g><path d="m4.0647 62.005 58.755-58.758 15.786 15.782-58.735 58.741z" fill="#333" filter="url(#a)" opacity=".3"/><g stroke-linejoin="round" stroke-miterlimit="3" stroke-width=".20172"><path d="m23.833 40.665-19.624 19.625 25.61 5.9746z" fill="#74cae0" fill-opacity=".98886" stroke="#74cae0" stroke-opacity=".98824"/><path d="m29.799 66.285 19.617-19.617-25.602-5.9822z" fill="#84d0e4" stroke="#84d0e4"/><path d="m43.404 21.093-19.609 19.609 25.6 5.9846z" fill="#95d6e7" stroke="#95d6e7"/><path d="m49.377 46.705 19.609-19.609-25.597-5.9874z" fill="#a5dceb" stroke="#a5dceb"/><path d="m62.965 1.5311-19.591 19.591 25.597 5.987z" fill="#b5e3ef" stroke="#b5e3ef"/><path d="m63 1.4972 15.786 15.782-9.7798 9.7964z" fill="#c6e9f2" stroke="#c6e9f2"/><path d="m4.2202 60.279 15.806 15.765 9.7733-9.7582z" fill="#64c4dc" stroke="#64c4dc"/></g><path d="m7.7625 77.055 58.755-58.758 15.786 15.782-58.735 58.741z" fill="#333" filter="url(#a)" opacity=".3"/><g stroke-linejoin="round" stroke-miterlimit="3" stroke-width=".20172"><path d="m51.654 56.159-19.624 19.625 25.61 5.9746z" fill="#45d543" stroke="#45d543"/><path d="m57.62 81.78 19.617-19.617-25.602-5.9822z" fill="#55d953" stroke="#55d953"/><path d="m71.225 36.588-19.609 19.609 25.6 5.9846z" fill="#65dc64" stroke="#65dc64"/><path d="m77.198 62.2 19.609-19.609-25.597-5.9874z" fill="#75e074" stroke="#75e074"/><path d="m90.785 17.025-19.591 19.591 25.597 5.987z" fill="#86e385" stroke="#86e385"/><path d="m90.82 16.992 15.786 15.782-9.7798 9.7964z" fill="#96e795" stroke="#96e795"/><path d="m32.041 75.773 15.806 15.765 9.7733-9.7582z" fill="#36d034" stroke="#36d034"/></g><path d="m53.984 95.563 58.755-58.758 15.786 15.782-58.735 58.741z" fill="#333" filter="url(#b)" opacity=".3"/><path d="m31.984 77.805 58.755-58.758 15.786 15.782-58.735 58.741z" fill="#333" filter="url(#a)" opacity=".3"/><g stroke-linejoin="round"><path d="m95.682 31.078 15.987 15.782-58.76 58.764-15.816-15.754z" fill="none" stroke="#e8a746" stroke-width=".5"/><path d="m62.799 1.497 15.987 15.782-58.76 58.764-15.816-15.754z" fill="none" stroke="#5db5cb" stroke-width=".5"/><g stroke-miterlimit="3"><path d="m27.32 55.576-19.624 19.625 11.672 7.6932 13.938-1.7186 2.2882-12.914z" fill="#dc5c50" stroke="#dc5c50" stroke-linecap="round" stroke-width=".302"/><g stroke-width=".20172"><path d="m46.891 36.005-19.609 19.609 25.6 5.9846z" fill="#e27b72" stroke="#e27b72"/><path d="m52.864 61.617 19.609-19.609-25.597-5.9874z" fill="#e68a82" stroke="#e68a82"/><path d="m66.451 16.443-19.591 19.591 25.597 5.987z" fill="#e99a93" stroke="#e99a93"/><path d="m66.486 16.409 15.786 15.782-9.7798 9.7964z" fill="#eca9a4" stroke="#eca9a4"/></g><path d="m7.7068 75.191 15.806 15.765 9.7733-9.7582z" fill="#c8635a" stroke="#c8635a" stroke-linecap="round" stroke-width=".302"/><path d="m33.286 81.197 19.617-19.617-25.602-5.9822z" fill="#df6b61" stroke="#df6b61" stroke-width=".20172"/></g><path d="m66.286 16.409 15.987 15.782-58.76 58.764-15.816-15.754z" fill="none" stroke="#b0584f" stroke-width=".5"/><g stroke-width=".20172"><g stroke-miterlimit="3"><path d="m51.618 56.13-19.624 19.625 25.61 5.9746z" fill="#6497f0" stroke="#6497f0"/><path d="m57.584 81.751 19.617-19.617-25.602-5.9822z" fill="#76a3f2" stroke="#76a3f2"/><path d="m71.19 36.559-19.609 19.609 25.6 5.9846z" fill="#88aff4" stroke="#88aff4"/><path d="m77.162 62.171 19.609-19.609-25.597-5.9874z" fill="#9bbcf5" stroke="#9bbcf5"/><path d="m90.75 16.997-19.591 19.591 25.597 5.987z" fill="#adc8f7" stroke="#adc8f7"/><path d="m90.75 16.997 15.786 15.782-9.7798 9.7964z" fill="#bfd4f9" stroke="#bfd4f9"/></g><path d="m32.005 75.744 15.806 15.765 9.7733-9.7582z" fill="#518aef" stroke="#518aef"/></g><path d="m90.75 16.997 15.987 15.782-58.76 58.764-15.816-15.754z" fill="none" stroke="#4676cc" stroke-width=".5"/><path d="m106.07 52.262 15.987 15.782-58.76 58.764-15.816-15.754z" fill="none" stroke="#33c331" stroke-width=".5"/><g stroke-miterlimit="3" stroke-width=".20172"><path d="m54.172 93.595 15.806 15.765 9.7733-9.7582z" fill="#f6ea4a" stroke="#f6ea4a"/><path d="m73.795 73.97-19.624 19.625 25.61 5.9746z" fill="#f8ed5c" stroke="#f8ed5c"/><path d="m79.761 99.591 19.617-19.617-25.602-5.9822z" fill="#f8ee70" stroke="#f8ee70"/><path d="m93.367 54.399-19.609 19.609 25.6 5.9846z" fill="#faf182" stroke="#faf182"/><path d="m99.339 80.011 19.609-19.609-25.597-5.9874z" fill="#faf396" stroke="#faf396"/><path d="m112.93 34.836-19.591 19.591 25.597 5.987z" fill="#fcf5a8" stroke="#fcf5a8"/><path d="m112.93 34.836 15.786 15.782-9.7798 9.7964z" fill="#fdf7bb" stroke="#fdf7bb"/></g><path d="m112.75 34.813 15.987 15.782-58.76 58.764-15.816-15.754z" fill="none" stroke="#d8ce41" stroke-width=".5"/></g><path transform="matrix(.93117 0 0 .93117 -366.34 -125.91)" d="m472.72 265.66c3.4611-1.2887 6.9406-4.6566 7.005-6.8893.0576-1.9969.18558-3.5199-2.9805-5.4725-1.2149-.74924-1.8846-1.4304-2.2816-2.2114-.28845-.56748-.50991-1.1868-.0742-2.0785.91707-1.8772 2.7771-3.2165 8.2476-7.6512 7.0301-5.6991 9.3401-8.468 11.813-12.64 3.0566-5.1554 5.167-12.238 5.5852-19.873.79116-14.443-6.4429-32.192-15.551-39.958-2.6398-2.2507-4.6284-3.814-13.947-6.211-23.996-6.1725-42.341-1.8731-46.204 12.564-1.4673 5.4826-1.0499 15.567.24342 20.142 1.6799 5.9432 5.3576 11.332 10.145 14.947 3.8906 2.9375 10.256 3.7854 13.817 3.8122 2.6382.0199 4.8618-1.017 7.2072-4.1181 1.3218-1.7478 1.7969-2.3747 3.4909-5.88.8115-1.6791.71369-1.7369-.19198 1.615-.8785 3.2511-2.1748 4.9476-3.4898 6.4839-.66784.78022-2.8732 2.5404-2.7637 2.9661.2254.87637 3.2961 4.734 6.0854 7.4918 1.3503 1.335 3.8062 4.2244 5.3045 5.3107 1.1152.80854 1.6713 1.5831 2.0921 2.1114.78235.9823.77084 1.4303.71723 1.8954-.0643.55772-.0711.66556-.37587 1.173-.2291.3814-.57023 1.0022-1.5433 2.1336-6.4636 7.5157-7.6734 10.568-7.6522 13.85.0267 4.1452 2.5911 10.08 5.9492 13.739 2.2106 2.4089 5.7783 4.078 9.3527 2.7472z" fill="#333" filter="url(#c)" opacity=".3"/><path d="m71.505 118.6c3.2229-1.2 6.4628-4.336 6.5228-6.4151.0536-1.8594.1728-3.2776-2.7754-5.0958-1.1313-.69766-1.7548-1.3319-2.1245-2.0592-.26859-.52842-.47481-1.1051-.0691-1.9355.85395-1.748 2.586-2.9951 7.6798-7.1245 6.5462-5.3068 8.6972-7.8851 11-11.77 2.8462-4.8005 4.8113-11.395 5.2008-18.505.7367-13.449-5.9994-29.976-14.481-37.207-2.4581-2.0958-4.3098-3.5514-12.987-5.7834-22.344-5.7476-39.426-1.7442-43.024 11.699-1.3663 5.1053-.97763 14.495.22666 18.756 1.5643 5.5341 4.9888 10.552 9.4471 13.918 3.6228 2.7353 9.5504 3.5248 12.866 3.5498 2.4566.0185 4.5271-.94703 6.7111-3.8346 1.2309-1.6275 1.6732-2.2112 3.2506-5.4752.75565-1.5636.66457-1.6173-.17876 1.5038-.81803 3.0273-2.0251 4.6071-3.2495 6.0376-.62187.72652-2.6754 2.3655-2.5735 2.7619.20988.81604 3.0692 4.4082 5.6666 6.9761 1.2573 1.2431 3.5442 3.9337 4.9394 4.9452 1.0384.75289 1.5563 1.4741 1.9481 1.9661.7285.91468.71778 1.3319.66786 1.7649-.0599.51933-.0662.61975-.35 1.0922-.21333.35515-.53098.93318-1.4371 1.9867-6.0186 6.9984-7.1452 9.8404-7.1255 12.896.0249 3.8599 2.4127 9.3861 5.5397 12.794 2.0584 2.2431 5.3805 3.7973 8.7089 2.5581z" fill="url(#d)" stroke="#9ec9ff" stroke-width=".24637"/><path d="m77.450669 62.69599c-.30645-.33791-.56609-.7858-.57499-1.24189-.0132-.67852.31116-1.39138.78264-1.87949.66793-.69147 1.55885-.68233 1.69113-.68233 1.28611 1.60321 2.59524 3.22971 3.83417 4.75129-.46242.19784-1.0991.28586-1.56921.29295-.27964.003-.65591-.006-.94047-.0379-1.05544-.12195-1.13276-.14983-1.71633-.31729-.51106-.14665-1.11541-.45377-1.50673-.88527z" fill="#333" stroke="#333" stroke-width=".275"/><path d="m66.396 119.95c-3.2342-1.0641-6.6576-4.6268-8.648-9.3464-1.0583-2.5093-1.8052-5.4592-1.8052-7.1294 0-3.4825 1.9209-7.3944 5.8242-11.861 2.2806-2.6098 3.2915-4.0499 3.2915-4.6888 0-.36882-.77767-1.2094-2.5253-2.7294-4.573-3.9776-7.8074-7.4883-10.132-10.997l-.91337-1.379-1.8186.11672c-3.4238.21971-8.0262-.80556-11.589-2.5816-5.7635-2.8733-9.9263-7.8371-12.218-14.569-1.4209-4.1735-2.1034-8.5543-2.0213-11.897.0821-3.3423.11306-4.734 1.0501-8.3795.77738-3.0242 1.2417-4.0542 2.0553-5.2639 2.8576-4.2485 8.2953-7.7967 12.795-8.7613 1.0375-.22241 4.2386-.97296 7.146-1.0425 2.0736-.0496 4.6584-.19114 7.6093-.0376 6.4235.3342 14.173 1.3922 19.275 3.0844 7.776 2.579 11.309 5.3964 16.278 12.979 3.6337 5.5458 5.9217 12.698 7.1074 19.511 2.0929 12.026-.1959 24.619-6.2007 32.617-1.4425 1.9214-2.9388 3.7496-5.3606 5.934-1.0143.9149-1.7068 1.6086-2.778 2.3824-1.2013.86795-2.8943 2.2495-4.4696 3.412-2.102 1.5512-3.8632 3.0725-4.0862 4.1875-.13622.68112.0488 1.3341 1.5427 2.5082.89242.70133 1.949 1.7608 2.3224 2.3252.60958.92113 1.0455 1.2157 1.0424 3.1117-.17461 1.8009-.58915 2.9417-1.3341 3.9924-.58913.83095-1.0835 1.2692-1.5468 1.6968-.72702.67092-1.4333 1.1581-2.7364 1.8917-1.8346 1.0327-2.3291 1.1749-4.1606 1.2442-1.2289.0465-2.4006-.13486-2.9957-.33089zm5.1089-1.3518c3.2229-1.2 6.4628-4.336 6.5228-6.4151.0536-1.8594.1728-3.2776-2.7754-5.0958-1.1313-.69766-1.7548-1.3319-2.1245-2.0592-.26859-.52842-.4748-1.1051-.0691-1.9355.85397-1.748 2.586-2.9951 7.6798-7.1245 6.5462-5.3068 8.6972-7.8851 11-11.769 2.8462-4.8005 4.8113-11.395 5.2008-18.505.73667-13.449-5.9994-29.976-14.481-37.207-2.4581-2.0958-4.3098-3.5514-12.987-5.7834-4.7065-1.2106-9.3383-1.7824-13.501-2.1307-15.6-1.3053-26.683 3.2181-29.523 13.83-.63905 2.3879-1.224 5.639-1.1912 8.9384.0372 3.7545.77692 7.5495 1.4179 9.8173 1.5643 5.5341 4.9888 10.552 9.4471 13.918 3.6228 2.7353 9.5504 3.5248 12.866 3.5498 2.4566.0185 4.5272-.94703 6.7111-3.8346 1.2309-1.6275 1.6732-2.2112 3.2506-5.4752.75564-1.5636.66456-1.6173-.17878 1.5038-.818 3.0273-2.025 4.6071-3.2495 6.0376-.62186.72652-2.6754 2.3655-2.5734 2.7619.20985.81604 3.0692 4.4081 5.6665 6.9761 1.2574 1.2431 3.649 3.803 4.9394 4.9452 1.0035.88837 1.5563 1.4741 1.9481 1.9661.72849.91468.81171 1.3477.7618 1.7808-.0599.51932-.16013.60389-.44394 1.0764-.21333.35514-.53098.93317-1.4371 1.9868-6.0187 6.9984-7.1452 9.8404-7.1255 12.896.0249 3.8599 2.4128 9.3861 5.5396 12.794 2.0584 2.2431 5.3805 3.7973 8.7089 2.5581z" fill="#333" stroke="#333" stroke-width=".5"/><path d="m85.163 84.963c1.0588-.09831 2.0789-.52561 3.0265-1.008.52821-.26886.99241-.65309 1.447-1.0334.18771-.15701.35549-.33666.52549-.51269.1576-.1632.33033-.31593.45805-.50344.13356-.19608.32928-.40172.31447-.63852-.0074-.114-.11656-.258-.18855-.28617-.21065-.08241-.28029-.01602-.50023.03743-.48513.11806-.97602.2899-1.4596.35779-1.6757.23525-3.5051-.14664-5.1733-.7773-1.6682-.63065-2.5731-1.9005-3.739-2.9901-.71182-.66522-1.2828-1.4691-1.9756-2.154-.27499-.27188-.51738-.60264-.86387-.77436-.43453-.21535-.97105-.43395-1.4289-.27397-1.3638.47655-2.4064 1.9094-2.8218 3.2895-.8821 2.9311-.59149 4.4605 2.9892 5.9792 3.4193 1.4502 6.2442 1.5801 9.39 1.288z" fill="url(#e)"/><path d="m80.245 85.729c-.57144-.06164-1.1448-.12829-1.705-.25654-.93-.21289-1.8529-.48126-2.7337-.84786-.78383-.32622-1.5723-.68243-2.2497-1.1943-.0162-.01229-.03259-.02468-.04889-.03706-.56392-.42963-1.113-.91456-1.4541-1.5299-.27606-.49797-.40978-1.0849-.42653-1.654-.03957-1.3449.14109-2.7749.77624-3.961.54231-1.0127 1.4232-1.9062 2.4475-2.4263.49672-.25222 1.181-.29693 1.6503-.264.65759.04609 1.3492.23251 2.1351 1.1766 3.314 3.9814 4.2992 5.2797 7.4799 5.9375 1.7946.37113 2.1886.16966 4.1921-.23985.17679-.03613.59304-.01574.75552.11106.16657.13.31489.4338.31768.53397.01704.613-.24483.9168-.4863 1.318-.30995.51501-.74449.95454-1.2026 1.3437-.56298.47817-1.1862.90828-1.8686 1.1911-1.1027.45709-2.3133.61441-3.4961.77595-.81038.11068-1.6324.13526-2.4502.13016-.54531-.0037-1.0903-.0487-1.6325-.10715zm4.9183-.76623c1.0588-.09831 2.0789-.52561 3.0265-1.008.52823-.26886.99242-.65309 1.447-1.0334.1877-.15701.35547-.33666.52548-.51269.15761-.1632.33033-.31593.45805-.50344.13356-.19608.32928-.40172.31447-.63852-.0074-.114-.11655-.258-.18854-.28617-.21065-.08241-.2803-.01602-.50023.03743-.48514.11806-.97602.2899-1.4596.35779-1.6757.23525-3.5051-.14664-5.1733-.7773-1.6682-.63065-2.573-1.9005-3.739-2.9901-.71182-.66522-1.2828-1.4691-1.9756-2.154-.275-.27188-.51739-.60264-.86389-.77436-.43453-.21535-.97104-.43395-1.4289-.27397-1.3638.47655-2.4064 1.9094-2.8218 3.2895-.88211 2.9311-.59149 4.4605 2.9892 5.9792 3.4193 1.4502 6.2442 1.5801 9.39 1.288z" fill="#333" stroke="#333" stroke-width=".831"/><path transform="matrix(.32348 0 0 .32348 -521.57 2025.3)" d="m1631.2-5954.7h37.582v37.582h-30.066v15.033h-7.5164zm7.5164 7.5164v22.549h22.549v-22.549z" filter="url(#f)" opacity=".3"/><path transform="matrix(.32348 0 0 .32348 -521.57 2025.3)" d="m1676.3-5954.7h37.582v52.615h-37.582v-7.5164h30.066v-7.5164h-30.066zm7.5164 7.5164v22.549h22.549v-22.549z" filter="url(#f)" opacity=".3"/><path transform="matrix(.32348 0 0 .32348 -521.57 2025.3)" d="m1721.4-5969.7h27.961l9.621 9.621v42.994h-7.5164v-39.687l-5.4118-5.4118h-2.1046v45.098h-7.5164v-45.098h-7.5164v45.098h-7.5164z" filter="url(#f)" opacity=".3"/><path transform="matrix(.32348 0 0 .32348 -521.57 2025.3)" d="m1766.5-5954.7h37.582v37.582h-37.582zm7.5164 7.5164v22.549h22.549v-22.549z" filter="url(#f)" opacity=".3"/><path transform="matrix(.32348 0 0 .32348 -521.57 2025.3)" d="m1841.7-5969.7h7.5164v52.615h-37.582v-37.582h30.066zm-22.549 22.549v22.549h22.549v-22.549z" filter="url(#f)" opacity=".3"/><path transform="matrix(.32348 0 0 .32348 -521.57 2025.3)" d="m1856.7-5954.7h37.582v22.549h-30.066v7.5164h30.066v7.5164h-37.582zm7.5164 7.5164v7.5164h22.549v-7.5164z" filter="url(#f)" opacity=".3"/><path transform="matrix(.32348 0 0 .32348 -521.57 2025.3)" d="m1901.8-5969.7h15.033v45.098h7.5164v7.5164h-15.033v-45.098h-7.5164z" filter="url(#f)" opacity=".3"/><path transform="matrix(.32348 0 0 .32348 -521.57 2025.3)" d="m1931.9-5954.7h37.582v22.549h-30.066v7.5164h30.066v7.5164h-37.582zm7.5164 7.5164v7.5164h22.549v-7.5164z" filter="url(#f)" opacity=".3"/><path transform="matrix(.32348 0 0 .32348 -521.57 2025.3)" d="m1977-5954.7h7.5164v9.621l9.621-9.621h12.928v7.5164h-9.621l-12.928 12.928v17.137h-7.5164z" filter="url(#f)" opacity=".3"/><g stroke="#8c8c8c" stroke-width=".29986"><g fill="#fff"><g stroke-linecap="round" stroke-linejoin="round"><path d="m4.9192 97.874h12.157v12.157h-9.7257v4.8628h-2.4314zm2.4314 2.4314v7.2943h7.2943v-7.2943z"/><path d="m19.508 97.874h12.157v17.02h-12.157v-2.4314h9.7257v-2.4314h-9.7257zm2.4314 2.4314v7.2943h7.2943v-7.2943z"/><path d="m34.096 93.012h9.0449l3.1122 3.1122v13.908h-2.4314v-12.838l-1.7506-1.7506h-.6808v14.589h-2.4314v-14.589h-2.4314v14.589h-2.4314z"/><path d="m48.685 97.874h12.157v12.157h-12.157zm2.4314 2.4314v7.2943h7.2943v-7.2943z"/></g><path d="m72.999 93.012h2.4314v17.02h-12.157v-12.157h9.7257zm-7.2943 7.2943v7.2943h7.2943v-7.2943z"/><g stroke-linecap="round" stroke-linejoin="round"><path d="m77.862 97.874h12.157v7.2943h-9.7257v2.4314h9.7257v2.4314h-12.157zm2.4314 2.4314v2.4314h7.2943v-2.4314z"/><path d="m92.45 93.012h4.8628v14.589h2.4314v2.4314h-4.8628v-14.589h-2.4314z"/><path d="m102.2 97.874h12.157v7.2943h-9.7257v2.4314h9.7257v2.4314h-12.157zm2.4314 2.4314v2.4314h7.2943v-2.4314z"/></g></g><path d="m116.78 97.874h2.4314v3.1122l3.1122-3.1122h4.182v2.4314h-3.1122l-4.182 4.182v5.5436h-2.4314z" fill="#fdfdfd" stroke-linecap="round" stroke-linejoin="round"/></g></g></svg>
