<svg height="583pt" viewBox="0 0 996 583" width="996pt" xmlns="http://www.w3.org/2000/svg"><g fill="none" stroke-linejoin="round" stroke-miterlimit="10"><g stroke="#000" stroke-linecap="round"><path d="m800.05 535.12h-710.39" stroke-width=".99702" transform="matrix(1.3413 0 0 -1.3333 -97.503 920.74)"/><path d="m800.05 535.12h-710.39" stroke-width=".99702" transform="matrix(1.3413 0 0 -1.3333 -97.503 893)"/><path d="m444.87 432.68h-355.18v317h710.39v-317z" transform="matrix(1.3333 0 0 -1.3333 -91.119 1006.8)"/><path d="m89.66 749.71v-317" transform="matrix(1.3333 0 0 -1.3333 -91.119 1006.8)"/><g stroke-width=".98936" transform="matrix(1.3333 0 0 -1.3622 -91.119 1028.5)"><path d="m191.17 749.71v-317"/><path d="m292.65 749.71v-317"/><path d="m394.13 749.71v-317"/><path d="m495.61 749.71v-317"/><path d="m597.09 749.71v-317"/><path d="m698.57 749.71v-317"/><path d="m800.05 749.71v-317"/></g></g><path d="m800.05 749.71h-710.39" stroke="#b3b3b3" stroke-width=".74554" transform="matrix(1.3413 0 0 -1.3413 -97.503 1012.8)"/><g stroke="#000"><path d="m800.05 535.12h-710.39" stroke-linecap="round" stroke-width=".99702" transform="matrix(1.3413 0 0 -1.3333 -97.503 1006.8)"/><path d="m800.05 535.12h-710.39" stroke-width=".99452" transform="matrix(1.3407 0 0 -1.3407 -97.002 810.8)"/><g stroke-linecap="round"><path d="m89.66 432.71h710.39" stroke-width="1.9881" transform="matrix(1.3413 0 0 -1.3413 -97.501 1010.3)"/><path d="m89.66 432.71v317" stroke-width="1.9787" transform="matrix(1.3333 0 0 -1.3622 -91.119 1028.5)"/></g></g></g><g transform="matrix(1.3333 0 0 -1.3333 -91.119 1006.8)"><path d="m800.05 432.71h-50.74v6.435h-101.48v52.185h-101.48v12.444h-202.96v6.889h-50.74" fill="none" stroke="#83caff" stroke-linejoin="round" stroke-miterlimit="10" stroke-width="2.2676"/><path d="m697.86 442.69h1.418v-7.087h-1.418z" fill="#83caff" fill-rule="evenodd"/><path d="m697.86 442.69h1.418v-7.087h-1.418z" fill="none" stroke="#83caff" stroke-linejoin="round" stroke-miterlimit="10" stroke-width=".75"/><path d="m596.38 494.87h1.417v-7.087h-1.417z" fill="#83caff" fill-rule="evenodd"/><path d="m596.38 494.87h1.417v-7.087h-1.417z" fill="none" stroke="#83caff" stroke-linejoin="round" stroke-miterlimit="10" stroke-width=".75"/><path d="m494.9 507.32h1.417v-7.087h-1.417z" fill="#83caff" fill-rule="evenodd"/><path d="m494.9 507.32h1.417v-7.087h-1.417z" fill="none" stroke="#83caff" stroke-linejoin="round" stroke-miterlimit="10" stroke-width=".75"/><path d="m393.42 507.32h1.418v-7.087h-1.418z" fill="#83caff" fill-rule="evenodd"/><path d="m393.42 507.32h1.418v-7.087h-1.418z" fill="none" stroke="#83caff" stroke-linejoin="round" stroke-miterlimit="10" stroke-width=".75"/><path d="m291.94 514.2h1.417v-7.087h-1.417z" fill="#83caff" fill-rule="evenodd"/><path d="m291.94 514.2h1.417v-7.087h-1.417z" fill="none" stroke="#83caff" stroke-linejoin="round" stroke-miterlimit="10" stroke-width=".75"/><path d="m800.05 435.88h-50.74v6.661h-50.74" fill="none" stroke="#7e0021" stroke-linejoin="round" stroke-miterlimit="10" stroke-width="2.2676"/><path d="m796.51 436.59h7.087v-1.417h-7.087z" fill="#7e0021" fill-rule="evenodd"/><path d="m796.51 436.59h7.087v-1.417h-7.087z" fill="none" stroke="#7e0021" stroke-linejoin="round" stroke-miterlimit="10" stroke-width=".75"/><path d="m695.03 443.25h7.086v-1.418h-7.086z" fill="#7e0021" fill-rule="evenodd"/><path d="m695.03 443.25h7.086v-1.418h-7.086z" fill="none" stroke="#7e0021" stroke-linejoin="round" stroke-miterlimit="10" stroke-width=".75"/><path d="m800.05 439.14h-50.74v10.573h-101.48v35.943h-50.74" fill="none" stroke="#579d1c" stroke-linejoin="round" stroke-miterlimit="10" stroke-width="2.2676"/><path d="m799.795 442.686v-3.062l-3.004 1.73-.284-.482 3.005-1.729-3.005-1.73.284-.453 3.004 1.701v-3.062h.539v3.062l3.005-1.701.255.453-2.977 1.73 2.977 1.729-.255.482-3.005-1.73v3.062z" fill="#579d1c" fill-rule="evenodd"/><path d="m799.795 442.686v-3.062l-3.004 1.73-.284-.482 3.005-1.729-3.005-1.73.284-.453 3.004 1.701v-3.062h.539v3.062l3.005-1.701.255.453-2.977 1.73 2.977 1.729-.255.482-3.005-1.73v3.062z" fill="none" stroke="#579d1c" stroke-linejoin="round" stroke-miterlimit="10" stroke-width=".75"/><path d="m698.287 453.259v-3.061l-2.977 1.729-.283-.482 3.004-1.729-3.004-1.729.283-.482 2.977 1.729v-3.062h.567v3.062l2.976-1.729.283.482-2.976 1.729 2.976 1.729-.283.482-2.976-1.729v3.061z" fill="#579d1c" fill-rule="evenodd"/><path d="m698.287 453.259v-3.061l-2.977 1.729-.283-.482 3.004-1.729-3.004-1.729.283-.482 2.977 1.729v-3.062h.567v3.062l2.976-1.729.283.482-2.976 1.729 2.976 1.729-.283.482-2.976-1.729v3.061z" fill="none" stroke="#579d1c" stroke-linejoin="round" stroke-miterlimit="10" stroke-width=".75"/><path d="m596.806 489.202v-3.061l-2.976 1.729-.284-.482 2.977-1.729-2.977-1.729.284-.482 2.976 1.729v-3.061h.567v3.061l2.977-1.729.283.482-3.005 1.729 3.005 1.729-.283.482-2.977-1.729v3.061z" fill="#579d1c" fill-rule="evenodd"/><path d="m596.806 489.202v-3.061l-2.976 1.729-.284-.482 2.977-1.729-2.977-1.729.284-.482 2.976 1.729v-3.061h.567v3.061l2.977-1.729.283.482-3.005 1.729 3.005 1.729-.283.482-2.977-1.729v3.061z" fill="none" stroke="#579d1c" stroke-linejoin="round" stroke-miterlimit="10" stroke-width=".75"/><path d="m800.05 442.54h-50.74v10.97h-50.74" fill="none" stroke="#ffd320" stroke-linejoin="round" stroke-miterlimit="10" stroke-width="2.2676"/><path d="m799.8 446.09v-3.259h-3.288v-.567h3.288v-3.26h.539v3.26h3.26v.567h-3.26v3.259z" fill="#ffd320" fill-rule="evenodd"/><path d="m799.8 446.09v-3.259h-3.288v-.567h3.288v-3.26h.539v3.26h3.26v.567h-3.26v3.259z" fill="none" stroke="#ffd320" stroke-linejoin="round" stroke-miterlimit="10" stroke-width=".75"/><path d="m698.287 457.058v-3.26h-3.26v-.567h3.26v-3.26h.567v3.26h3.259v.567h-3.259v3.26z" fill="#ffd320" fill-rule="evenodd"/><path d="m698.287 457.058v-3.26h-3.26v-.567h3.26v-3.26h.567v3.26h3.259v.567h-3.259v3.26z" fill="none" stroke="#ffd320" stroke-linejoin="round" stroke-miterlimit="10" stroke-width=".75"/><path d="m800.05 446.06h-50.74v-10.176h-50.74" fill="none" stroke="#ff420e" stroke-linejoin="round" stroke-miterlimit="10" stroke-width="2.2676"/><path d="m800.05 446.456-3.146 3.146-.397-.396 3.175-3.147-3.175-3.146.397-.397 3.146 3.146 3.175-3.146.369.397-3.147 3.146 3.147 3.147-.369.396z" fill="#ff420e" fill-rule="evenodd"/><path d="m800.05 446.456-3.146 3.146-.397-.396 3.175-3.147-3.175-3.146.397-.397 3.146 3.146 3.175-3.146.369.397-3.147 3.146 3.147 3.147-.369.396z" fill="none" stroke="#ff420e" stroke-linejoin="round" stroke-miterlimit="10" stroke-width=".75"/><path d="m698.57 436.28-3.146 3.146-.397-.397 3.146-3.146-3.146-3.147.397-.397 3.146 3.147 3.147-3.147.396.397-3.146 3.147 3.146 3.146-.396.397z" fill="#ff420e" fill-rule="evenodd"/><path d="m698.57 436.28-3.146 3.146-.397-.397 3.146-3.146-3.146-3.147.397-.397 3.146 3.147 3.147-3.147.396.397-3.146 3.147 3.146 3.146-.396.397z" fill="none" stroke="#ff420e" stroke-linejoin="round" stroke-miterlimit="10" stroke-width=".75"/><path d="m800.05 449.72h-50.74v7.767h-50.74" fill="none" stroke="#004586" stroke-linejoin="round" stroke-miterlimit="10" stroke-width="2.2676"/><path d="m800.05 453.259.709-2.835 2.835-.708-2.835-.709-.709-2.835-.708 2.835-2.835.709 2.835.708z" fill="#004586" fill-rule="evenodd"/><path d="m800.05 453.259.709-2.835 2.835-.708-2.835-.709-.709-2.835-.708 2.835-2.835.709 2.835.708z" fill="none" stroke="#004586" stroke-linejoin="round" stroke-miterlimit="10" stroke-width=".75"/><path d="m698.57 461.026.709-2.835 2.834-.708-2.834-.709-.709-2.835-.709 2.835-2.834.709 2.834.708z" fill="#004586" fill-rule="evenodd"/><path d="m698.57 461.026.709-2.835 2.834-.708-2.834-.709-.709-2.835-.709 2.835-2.834.709 2.834.708z" fill="none" stroke="#004586" stroke-linejoin="round" stroke-miterlimit="10" stroke-width=".75"/><path d="m800.05 453.51h-50.74v-7.455h-50.74" fill="none" stroke="#0084d1" stroke-linejoin="round" stroke-miterlimit="10" stroke-width="2.2676"/><path d="m803.594 453.514v.17.142l-.029.17v.142l-.028.142-.057.17-.028.141-.057.142-.056.142-.057.142-.085.141-.057.142-.085.113-.085.142-.085.114-.113.141-.085.114-.114.113-.113.085-.114.113-.113.085-.142.114-.113.085-.142.085-.142.057-.141.085-.142.056-.142.057-.141.028-.142.057-.142.028-.17.029-.142.028-.17.029h-.142-.17-.141-.142l-.17-.029-.142-.028-.17-.029-.142-.028-.141-.057-.142-.028-.142-.057-.142-.056-.141-.085-.142-.057-.142-.085-.113-.085-.142-.114-.113-.085-.114-.113-.113-.085-.113-.113-.086-.114-.113-.141-.085-.114-.085-.142-.085-.113-.057-.142-.085-.141-.056-.142-.057-.142-.057-.142-.028-.141-.057-.17-.028-.142v-.142l-.029-.17v-.142l-.028-.17.028-.142v-.17l.029-.141v-.142l.028-.17.057-.142.028-.142.057-.141.057-.17.056-.142.085-.114.057-.141.085-.142.085-.113.085-.142.113-.114.086-.113.113-.113.113-.114.114-.113.113-.085.142-.085.113-.085.142-.085.142-.085.141-.057.142-.057.142-.056.142-.057.141-.028.142-.057.17-.028.142-.029h.17l.142-.028h.141.17l.142.028h.17l.142.029.17.028.142.057.142.028.141.057.142.056.142.057.141.057.142.085.142.085.113.085.142.085.113.085.114.113.113.114.114.113.085.113.113.114.085.142.085.113.085.142.057.141.085.114.057.142.056.17.057.141.028.142.057.142.028.17v.142l.029.141v.17z" fill="#0084d1" fill-rule="evenodd"/><path d="m803.594 453.514v.17.142l-.029.17v.142l-.028.142-.057.17-.028.141-.057.142-.056.142-.057.142-.085.141-.057.142-.085.113-.085.142-.085.114-.113.141-.085.114-.114.113-.113.085-.114.113-.113.085-.142.114-.113.085-.142.085-.142.057-.141.085-.142.056-.142.057-.141.028-.142.057-.142.028-.17.029-.142.028-.17.029h-.142-.17-.141-.142l-.17-.029-.142-.028-.17-.029-.142-.028-.141-.057-.142-.028-.142-.057-.142-.056-.141-.085-.142-.057-.142-.085-.113-.085-.142-.114-.113-.085-.114-.113-.113-.085-.113-.113-.086-.114-.113-.141-.085-.114-.085-.142-.085-.113-.057-.142-.085-.141-.056-.142-.057-.142-.057-.142-.028-.141-.057-.17-.028-.142v-.142l-.029-.17v-.142l-.028-.17.028-.142v-.17l.029-.141v-.142l.028-.17.057-.142.028-.142.057-.141.057-.17.056-.142.085-.114.057-.141.085-.142.085-.113.085-.142.113-.114.086-.113.113-.113.113-.114.114-.113.113-.085.142-.085.113-.085.142-.085.142-.085.141-.057.142-.057.142-.056.142-.057.141-.028.142-.057.17-.028.142-.029h.17l.142-.028h.141.17l.142.028h.17l.142.029.17.028.142.057.142.028.141.057.142.056.142.057.141.057.142.085.142.085.113.085.142.085.113.085.114.113.113.114.114.113.085.113.113.114.085.142.085.113.085.142.057.141.085.114.057.142.056.17.057.141.028.142.057.142.028.17v.142l.029.141v.17z" fill="none" stroke="#0084d1" stroke-linejoin="round" stroke-miterlimit="10" stroke-width=".75"/><path d="m702.113 446.059v.17.142l-.028.142-.028.17-.029.141-.028.142-.057.17-.028.142-.057.142-.056.141-.085.142-.086.142-.056.113-.085.142-.114.113-.085.114-.113.142-.085.085-.113.113-.114.113-.142.085-.113.085-.142.085-.113.085-.142.086-.142.056-.141.085-.142.057-.142.028-.141.057-.171.028-.141.029-.142.028-.17.028h-.142-.17-.142-.17l-.141-.028-.142-.028-.17-.029-.142-.028-.142-.057-.17-.028-.142-.057-.141-.085-.142-.056-.113-.086-.142-.085-.114-.085-.141-.085-.114-.085-.113-.113-.113-.113-.114-.085-.113-.142-.085-.114-.085-.113-.085-.142-.085-.113-.085-.142-.057-.142-.057-.141-.056-.142-.057-.142-.057-.17-.028-.142-.029-.141-.028-.17v-.142l-.028-.142v-.17-.142l.028-.17v-.141l.028-.171.029-.141.028-.142.057-.17.057-.142.056-.142.057-.141.057-.142.085-.113.085-.142.085-.142.085-.113.085-.114.113-.113.114-.113.113-.114.113-.113.114-.085.141-.085.114-.085.142-.085.113-.085.142-.057.141-.057.142-.056.17-.057.142-.057.142-.028.17-.029.142-.028h.141l.17-.028h.142.17l.142.028h.17l.142.028.141.029.171.028.141.057.142.057.142.056.141.057.142.057.142.085.113.085.142.085.113.085.142.085.114.113.113.114.085.113.113.113.085.114.114.113.085.142.056.142.086.113.085.142.056.141.057.142.028.142.057.17.028.142.029.141.028.171.028.141v.17z" fill="#0084d1" fill-rule="evenodd"/><path d="m702.113 446.059v.17.142l-.028.142-.028.17-.029.141-.028.142-.057.17-.028.142-.057.142-.056.141-.085.142-.086.142-.056.113-.085.142-.114.113-.085.114-.113.142-.085.085-.113.113-.114.113-.142.085-.113.085-.142.085-.113.085-.142.086-.142.056-.141.085-.142.057-.142.028-.141.057-.171.028-.141.029-.142.028-.17.028h-.142-.17-.142-.17l-.141-.028-.142-.028-.17-.029-.142-.028-.142-.057-.17-.028-.142-.057-.141-.085-.142-.056-.113-.086-.142-.085-.114-.085-.141-.085-.114-.085-.113-.113-.113-.113-.114-.085-.113-.142-.085-.114-.085-.113-.085-.142-.085-.113-.085-.142-.057-.142-.057-.141-.056-.142-.057-.142-.057-.17-.028-.142-.029-.141-.028-.17v-.142l-.028-.142v-.17-.142l.028-.17v-.141l.028-.171.029-.141.028-.142.057-.17.057-.142.056-.142.057-.141.057-.142.085-.113.085-.142.085-.142.085-.113.085-.114.113-.113.114-.113.113-.114.113-.113.114-.085.141-.085.114-.085.142-.085.113-.085.142-.057.141-.057.142-.056.17-.057.142-.057.142-.028.17-.029.142-.028h.141l.17-.028h.142.17l.142.028h.17l.142.028.141.029.171.028.141.057.142.057.142.056.141.057.142.057.142.085.113.085.142.085.113.085.142.085.114.113.113.114.085.113.113.113.085.114.114.113.085.142.056.142.086.113.085.142.056.141.057.142.028.142.057.17.028.142.029.141.028.171.028.141v.17z" fill="none" stroke="#0084d1" stroke-linejoin="round" stroke-miterlimit="10" stroke-width=".75"/><path d="m800.05 457.48h-50.74v4.138h-101.48v35.717h-101.48v13.323h-253.7v-19.333h-101.48" fill="none" stroke="#c5000b" stroke-linejoin="round" stroke-miterlimit="10" stroke-width="2.2676"/><path d="m796.51 453.94h7.087l-7.087 7.087h7.087z" fill="#c5000b" fill-rule="evenodd"/><path d="m796.51 453.94h7.087l-7.087 7.087h7.087z" fill="none" stroke="#c5000b" stroke-linejoin="round" stroke-miterlimit="10" stroke-width=".75"/><path d="m695.03 458.08h7.086l-7.086 7.087h7.086z" fill="#c5000b" fill-rule="evenodd"/><path d="m695.03 458.08h7.086l-7.086 7.087h7.086z" fill="none" stroke="#c5000b" stroke-linejoin="round" stroke-miterlimit="10" stroke-width=".75"/><path d="m593.55 493.8h7.087l-7.087 7.086h7.087z" fill="#c5000b" fill-rule="evenodd"/><path d="m593.55 493.8h7.087l-7.087 7.086h7.087z" fill="none" stroke="#c5000b" stroke-linejoin="round" stroke-miterlimit="10" stroke-width=".75"/><path d="m492.07 507.12h7.087l-7.087 7.087h7.087z" fill="#c5000b" fill-rule="evenodd"/><path d="m492.07 507.12h7.087l-7.087 7.087h7.087z" fill="none" stroke="#c5000b" stroke-linejoin="round" stroke-miterlimit="10" stroke-width=".75"/><path d="m390.59 507.12h7.086l-7.086 7.087h7.086z" fill="#c5000b" fill-rule="evenodd"/><path d="m390.59 507.12h7.086l-7.086 7.087h7.086z" fill="none" stroke="#c5000b" stroke-linejoin="round" stroke-miterlimit="10" stroke-width=".75"/><path d="m187.62 487.78h7.087l-7.087 7.087h7.087z" fill="#c5000b" fill-rule="evenodd"/><path d="m187.62 487.78h7.087l-7.087 7.087h7.087z" fill="none" stroke="#c5000b" stroke-linejoin="round" stroke-miterlimit="10" stroke-width=".75"/><path d="m800.05 461.62h-50.74v4.337h-101.48v37.814h-253.7v-18.113h-202.96" fill="none" stroke="#ff950e" stroke-linejoin="round" stroke-miterlimit="10" stroke-width="2.2676"/><path d="m796.51 465.16v-7.087l7.087 7.087v-7.087z" fill="#ff950e" fill-rule="evenodd"/><path d="m796.51 465.16v-7.087l7.087 7.087v-7.087z" fill="none" stroke="#ff950e" stroke-linejoin="round" stroke-miterlimit="10" stroke-width=".75"/><path d="m695.03 469.5v-7.087l7.086 7.087v-7.087z" fill="#ff950e" fill-rule="evenodd"/><path d="m695.03 469.5v-7.087l7.086 7.087v-7.087z" fill="none" stroke="#ff950e" stroke-linejoin="round" stroke-miterlimit="10" stroke-width=".75"/><path d="m593.55 507.32v-7.087l7.087 7.087v-7.087z" fill="#ff950e" fill-rule="evenodd"/><path d="m593.55 507.32v-7.087l7.087 7.087v-7.087z" fill="none" stroke="#ff950e" stroke-linejoin="round" stroke-miterlimit="10" stroke-width=".75"/><path d="m187.62 489.2v-7.086l7.087 7.086v-7.086z" fill="#ff950e" fill-rule="evenodd"/><path d="m187.62 489.2v-7.086l7.087 7.086v-7.086z" fill="none" stroke="#ff950e" stroke-linejoin="round" stroke-miterlimit="10" stroke-width=".75"/><path d="m796.51 465.96 7.087-3.543v7.087z" fill="#4b1f6f" fill-rule="evenodd"/><path d="m796.51 465.96 7.087-3.543v7.087z" fill="none" stroke="#4b1f6f" stroke-linejoin="round" stroke-miterlimit="10" stroke-width=".75"/><path d="m800.05 470.52h-50.74v4.762h-101.48v35.377h-101.48v7.455h-304.44v-20.778h-101.48v58.564h-50.768" fill="none" stroke="#aecf00" stroke-linejoin="round" stroke-miterlimit="10" stroke-width="2.2676"/><path d="m796.51 474.06v-7.086l7.087 3.543z" fill="#aecf00" fill-rule="evenodd"/><path d="m796.51 474.06v-7.086l7.087 3.543z" fill="none" stroke="#aecf00" stroke-linejoin="round" stroke-miterlimit="10" stroke-width=".75"/><path d="m695.03 478.83v-7.087l7.086 3.543z" fill="#aecf00" fill-rule="evenodd"/><path d="m695.03 478.83v-7.087l7.086 3.543z" fill="none" stroke="#aecf00" stroke-linejoin="round" stroke-miterlimit="10" stroke-width=".75"/><path d="m593.55 514.2v-7.087l7.087 3.544z" fill="#aecf00" fill-rule="evenodd"/><path d="m593.55 514.2v-7.087l7.087 3.544z" fill="none" stroke="#aecf00" stroke-linejoin="round" stroke-miterlimit="10" stroke-width=".75"/><path d="m492.07 521.66v-7.087l7.087 3.544z" fill="#aecf00" fill-rule="evenodd"/><path d="m492.07 521.66v-7.087l7.087 3.544z" fill="none" stroke="#aecf00" stroke-linejoin="round" stroke-miterlimit="10" stroke-width=".75"/><path d="m390.59 521.66v-7.087l7.086 3.544z" fill="#aecf00" fill-rule="evenodd"/><path d="m390.59 521.66v-7.087l7.086 3.544z" fill="none" stroke="#aecf00" stroke-linejoin="round" stroke-miterlimit="10" stroke-width=".75"/><path d="m289.11 521.66v-7.087l7.086 3.544z" fill="#aecf00" fill-rule="evenodd"/><path d="m289.11 521.66v-7.087l7.086 3.544z" fill="none" stroke="#aecf00" stroke-linejoin="round" stroke-miterlimit="10" stroke-width=".75"/><path d="m187.62 500.88v-7.086l7.087 3.543z" fill="#aecf00" fill-rule="evenodd"/><path d="m187.62 500.88v-7.086l7.087 3.543z" fill="none" stroke="#aecf00" stroke-linejoin="round" stroke-miterlimit="10" stroke-width=".75"/><path d="m86.117 559.44v-7.087l7.086 3.544z" fill="#aecf00" fill-rule="evenodd"/><path d="m86.117 559.44v-7.087l7.086 3.544z" fill="none" stroke="#aecf00" stroke-linejoin="round" stroke-miterlimit="10" stroke-width=".75"/><path d="m800.05 475.28h-50.74v5.046h-50.74" fill="none" stroke="#314004" stroke-linejoin="round" stroke-miterlimit="10" stroke-width="2.2676"/><path d="m796.51 471.74h7.087l-3.544 7.087z" fill="#314004" fill-rule="evenodd"/><path d="m796.51 471.74h7.087l-3.544 7.087z" fill="none" stroke="#314004" stroke-linejoin="round" stroke-miterlimit="10" stroke-width=".75"/><path d="m695.03 476.79h7.086l-3.543 7.086z" fill="#314004" fill-rule="evenodd"/><path d="m695.03 476.79h7.086l-3.543 7.086z" fill="none" stroke="#314004" stroke-linejoin="round" stroke-miterlimit="10" stroke-width=".75"/><path d="m800.05 480.33h-50.74v-9.808h-50.74" fill="none" stroke="#83caff" stroke-linejoin="round" stroke-miterlimit="10" stroke-width="2.2676"/><path d="m796.51 483.87 3.543-7.086 3.544 7.086z" fill="#83caff" fill-rule="evenodd"/><path d="m796.51 483.87 3.543-7.086 3.544 7.086z" fill="none" stroke="#83caff" stroke-linejoin="round" stroke-miterlimit="10" stroke-width=".75"/><path d="m695.03 474.06 3.543-7.086 3.543 7.086z" fill="#83caff" fill-rule="evenodd"/><path d="m695.03 474.06 3.543-7.086 3.543 7.086z" fill="none" stroke="#83caff" stroke-linejoin="round" stroke-miterlimit="10" stroke-width=".75"/><path d="m800.05 485.66h-50.74v5.669h-50.74" fill="none" stroke="#7e0021" stroke-linejoin="round" stroke-miterlimit="10" stroke-width="2.2676"/><path d="m796.51 485.66 3.543-3.543 3.544 3.543-3.544 3.543z" fill="#7e0021" fill-rule="evenodd"/><path d="m796.51 485.66 3.543-3.543 3.544 3.543-3.544 3.543z" fill="none" stroke="#7e0021" stroke-linejoin="round" stroke-miterlimit="10" stroke-width=".75"/><path d="m695.03 491.33 3.543-3.543 3.543 3.543-3.543 3.544z" fill="#7e0021" fill-rule="evenodd"/><path d="m695.03 491.33 3.543-3.543 3.543 3.543-3.543 3.544z" fill="none" stroke="#7e0021" stroke-linejoin="round" stroke-miterlimit="10" stroke-width=".75"/><path d="m800.05 491.33h-50.74v6.01h-50.74" fill="none" stroke="#579d1c" stroke-linejoin="round" stroke-miterlimit="10" stroke-width="2.2676"/><path d="m796.51 494.87v-7.087h7.087v7.087z" fill="#579d1c" fill-rule="evenodd"/><path d="m796.51 494.87v-7.087h7.087v7.087z" fill="none" stroke="#579d1c" stroke-linejoin="round" stroke-miterlimit="10" stroke-width=".75"/><path d="m695.03 500.88v-7.086h7.086v7.086z" fill="#579d1c" fill-rule="evenodd"/><path d="m695.03 500.88v-7.086h7.086v7.086z" fill="none" stroke="#579d1c" stroke-linejoin="round" stroke-miterlimit="10" stroke-width=".75"/><path d="m800.05 497.34h-50.74v-11.679h-50.74" fill="none" stroke="#ffd320" stroke-linejoin="round" stroke-miterlimit="10" stroke-width="2.2676"/><path d="m799.34 500.88h1.417v-7.086h-1.417z" fill="#ffd320" fill-rule="evenodd"/><path d="m799.34 500.88h1.417v-7.086h-1.417z" fill="none" stroke="#ffd320" stroke-linejoin="round" stroke-miterlimit="10" stroke-width=".75"/><path d="m697.86 489.2h1.418v-7.086h-1.418z" fill="#ffd320" fill-rule="evenodd"/><path d="m697.86 489.2h1.418v-7.086h-1.418z" fill="none" stroke="#ffd320" stroke-linejoin="round" stroke-miterlimit="10" stroke-width=".75"/><path d="m800.05 503.77h-101.48" fill="none" stroke="#ff420e" stroke-linejoin="round" stroke-miterlimit="10" stroke-width="2.2676"/><path d="m796.51 504.48h7.087v-1.417h-7.087z" fill="#ff420e" fill-rule="evenodd"/><path d="m796.51 504.48h7.087v-1.417h-7.087z" fill="none" stroke="#ff420e" stroke-linejoin="round" stroke-miterlimit="10" stroke-width=".75"/><path d="m695.03 504.48h7.086v-1.417h-7.086z" fill="#ff420e" fill-rule="evenodd"/><path d="m695.03 504.48h7.086v-1.417h-7.086z" fill="none" stroke="#ff420e" stroke-linejoin="round" stroke-miterlimit="10" stroke-width=".75"/><path d="m800.05 510.66h-101.48" fill="none" stroke="#004586" stroke-linejoin="round" stroke-miterlimit="10" stroke-width="2.2676"/><path d="m799.795 514.204v-3.061l-3.004 1.729-.284-.482 3.005-1.729-3.005-1.729.284-.482 3.004 1.729v-3.062h.539v3.062l3.005-1.729.255.482-2.977 1.729 2.977 1.729-.255.482-3.005-1.729v3.061z" fill="#004586" fill-rule="evenodd"/><path d="m799.795 514.204v-3.061l-3.004 1.729-.284-.482 3.005-1.729-3.005-1.729.284-.482 3.004 1.729v-3.062h.539v3.062l3.005-1.729.255.482-2.977 1.729 2.977 1.729-.255.482-3.005-1.729v3.061z" fill="none" stroke="#004586" stroke-linejoin="round" stroke-miterlimit="10" stroke-width=".75"/><path d="m698.287 514.204v-3.061l-2.977 1.729-.283-.482 3.004-1.729-3.004-1.729.283-.482 2.977 1.729v-3.062h.567v3.062l2.976-1.729.283.482-2.976 1.729 2.976 1.729-.283.482-2.976-1.729v3.061z" fill="#004586" fill-rule="evenodd"/><path d="m698.287 514.204v-3.061l-2.977 1.729-.283-.482 3.004-1.729-3.004-1.729.283-.482 2.977 1.729v-3.062h.567v3.062l2.976-1.729.283.482-2.976 1.729 2.976 1.729-.283.482-2.976-1.729v3.061z" fill="none" stroke="#004586" stroke-linejoin="round" stroke-miterlimit="10" stroke-width=".75"/><path d="m800.05 518.12h-202.96" fill="none" stroke="#0084d1" stroke-linejoin="round" stroke-miterlimit="10" stroke-width="2.2676"/><path d="m799.8 521.66v-3.26h-3.288v-.538h3.288v-3.289h.539v3.289h3.26v.538h-3.26v3.26z" fill="#0084d1" fill-rule="evenodd"/><path d="m799.8 521.66v-3.26h-3.288v-.538h3.288v-3.289h.539v3.289h3.26v.538h-3.26v3.26z" fill="none" stroke="#0084d1" stroke-linejoin="round" stroke-miterlimit="10" stroke-width=".75"/><path d="m698.287 521.659v-3.26h-3.26v-.538h3.26v-3.289h.567v3.289h3.259v.538h-3.259v3.26z" fill="#0084d1" fill-rule="evenodd"/><path d="m698.287 521.659v-3.26h-3.26v-.538h3.26v-3.289h.567v3.289h3.259v.538h-3.259v3.26z" fill="none" stroke="#0084d1" stroke-linejoin="round" stroke-miterlimit="10" stroke-width=".75"/><path d="m596.806 521.659v-3.26h-3.26v-.538h3.26v-3.289h.567v3.289h3.26v.538h-3.26v3.26z" fill="#0084d1" fill-rule="evenodd"/><path d="m596.806 521.659v-3.26h-3.26v-.538h3.26v-3.289h.567v3.289h3.26v.538h-3.26v3.26z" fill="none" stroke="#0084d1" stroke-linejoin="round" stroke-miterlimit="10" stroke-width=".75"/><path d="m800.05 526.25h-152.22v8.873h-101.48v20.778h-101.51v-10.97h-101.45v-9.808h-50.74" fill="none" stroke="#c5000b" stroke-linejoin="round" stroke-miterlimit="10" stroke-width="2.2676"/><path d="m800.05 526.62-3.146 3.175-.397-.397 3.175-3.147-3.175-3.175.397-.368 3.146 3.146 3.175-3.146.369.368-3.147 3.175 3.147 3.147-.369.397z" fill="#c5000b" fill-rule="evenodd"/><path d="m800.05 526.62-3.146 3.175-.397-.397 3.175-3.147-3.175-3.175.397-.368 3.146 3.146 3.175-3.146.369.368-3.147 3.175 3.147 3.147-.369.397z" fill="none" stroke="#c5000b" stroke-linejoin="round" stroke-miterlimit="10" stroke-width=".75"/><path d="m698.57 526.62-3.146 3.175-.397-.397 3.146-3.147-3.146-3.175.397-.368 3.146 3.146 3.147-3.146.396.368-3.146 3.175 3.146 3.147-.396.397z" fill="#c5000b" fill-rule="evenodd"/><path d="m698.57 526.62-3.146 3.175-.397-.397 3.146-3.147-3.146-3.175.397-.368 3.146 3.146 3.147-3.146.396.368-3.146 3.175 3.146 3.147-.396.397z" fill="none" stroke="#c5000b" stroke-linejoin="round" stroke-miterlimit="10" stroke-width=".75"/><path d="m597.09 535.52-3.147 3.147-.397-.397 3.147-3.146-3.147-3.147.397-.397 3.147 3.147 3.146-3.147.397.397-3.146 3.147 3.146 3.146-.397.397z" fill="#c5000b" fill-rule="evenodd"/><path d="m597.09 535.52-3.147 3.147-.397-.397 3.147-3.146-3.147-3.147.397-.397 3.147 3.147 3.146-3.147.397.397-3.146 3.147 3.146 3.146-.397.397z" fill="none" stroke="#c5000b" stroke-linejoin="round" stroke-miterlimit="10" stroke-width=".75"/><path d="m495.609 556.298-3.174 3.147-.369-.397 3.147-3.146-3.147-3.147.369-.397 3.174 3.147 3.147-3.147.397.397-3.175 3.147 3.175 3.146-.397.397z" fill="#c5000b" fill-rule="evenodd"/><path d="m495.609 556.298-3.174 3.147-.369-.397 3.147-3.146-3.147-3.147.369-.397 3.174 3.147 3.147-3.147.397.397-3.175 3.147 3.175 3.146-.397.397z" fill="none" stroke="#c5000b" stroke-linejoin="round" stroke-miterlimit="10" stroke-width=".75"/><path d="m394.129 545.328-3.146 3.118-.397-.368 3.175-3.146-3.175-3.147.397-.397 3.146 3.175 3.175-3.175.368.397-3.146 3.147 3.146 3.146-.368.368z" fill="#c5000b" fill-rule="evenodd"/><path d="m394.129 545.328-3.146 3.118-.397-.368 3.175-3.146-3.175-3.147.397-.397 3.146 3.175 3.175-3.175.368.397-3.146 3.147 3.146 3.146-.368.368z" fill="none" stroke="#c5000b" stroke-linejoin="round" stroke-miterlimit="10" stroke-width=".75"/><path d="m292.649 535.52-3.147 3.147-.396-.397 3.146-3.146-3.146-3.147.396-.397 3.147 3.147 3.146-3.147.397.397-3.146 3.147 3.146 3.146-.397.397z" fill="#c5000b" fill-rule="evenodd"/><path d="m292.649 535.52-3.147 3.147-.396-.397 3.146-3.146-3.146-3.147.396-.397 3.147 3.147 3.146-3.147.397.397-3.146 3.147 3.146 3.146-.397.397z" fill="none" stroke="#c5000b" stroke-linejoin="round" stroke-miterlimit="10" stroke-width=".75"/><path d="m800.05 535.12h-152.22v-8.873h-405.92v-15.59h-50.74" fill="none" stroke="#ff950e" stroke-linejoin="round" stroke-miterlimit="10" stroke-width="2.2676"/><path d="m800.05 538.667.709-2.835 2.835-.708-2.835-.709-.709-2.835-.708 2.835-2.835.709 2.835.708z" fill="#ff950e" fill-rule="evenodd"/><path d="m800.05 538.667.709-2.835 2.835-.708-2.835-.709-.709-2.835-.708 2.835-2.835.709 2.835.708z" fill="none" stroke="#ff950e" stroke-linejoin="round" stroke-miterlimit="10" stroke-width=".75"/><path d="m698.57 538.667.709-2.835 2.834-.708-2.834-.709-.709-2.835-.709 2.835-2.834.709 2.834.708z" fill="#ff950e" fill-rule="evenodd"/><path d="m698.57 538.667.709-2.835 2.834-.708-2.834-.709-.709-2.835-.709 2.835-2.834.709 2.834.708z" fill="none" stroke="#ff950e" stroke-linejoin="round" stroke-miterlimit="10" stroke-width=".75"/><path d="m597.09 529.795.708-2.835 2.835-.709-2.835-.708-.708-2.835-.709 2.835-2.835.708 2.835.709z" fill="#ff950e" fill-rule="evenodd"/><path d="m597.09 529.795.708-2.835 2.835-.709-2.835-.708-.708-2.835-.709 2.835-2.835.708 2.835.709z" fill="none" stroke="#ff950e" stroke-linejoin="round" stroke-miterlimit="10" stroke-width=".75"/><path d="m495.609 529.795.709-2.835 2.835-.709-2.835-.708-.709-2.835-.708 2.835-2.835.708 2.835.709z" fill="#ff950e" fill-rule="evenodd"/><path d="m495.609 529.795.709-2.835 2.835-.709-2.835-.708-.709-2.835-.708 2.835-2.835.708 2.835.709z" fill="none" stroke="#ff950e" stroke-linejoin="round" stroke-miterlimit="10" stroke-width=".75"/><path d="m394.129 529.795.709-2.835 2.834-.709-2.834-.708-.709-2.835-.709 2.835-2.834.708 2.834.709z" fill="#ff950e" fill-rule="evenodd"/><path d="m394.129 529.795.709-2.835 2.834-.709-2.834-.708-.709-2.835-.709 2.835-2.834.708 2.834.709z" fill="none" stroke="#ff950e" stroke-linejoin="round" stroke-miterlimit="10" stroke-width=".75"/><path d="m292.649 529.795.708-2.835 2.835-.709-2.835-.708-.708-2.835-.709 2.835-2.834.708 2.834.709z" fill="#ff950e" fill-rule="evenodd"/><path d="m292.649 529.795.708-2.835 2.835-.709-2.835-.708-.708-2.835-.709 2.835-2.834.708 2.834.709z" fill="none" stroke="#ff950e" stroke-linejoin="round" stroke-miterlimit="10" stroke-width=".75"/><path d="m191.169 514.204.708-2.835 2.835-.708-2.835-.709-.708-2.835-.709 2.835-2.835.709 2.835.708z" fill="#ff950e" fill-rule="evenodd"/><path d="m191.169 514.204.708-2.835 2.835-.708-2.835-.709-.708-2.835-.709 2.835-2.835.709 2.835.708z" fill="none" stroke="#ff950e" stroke-linejoin="round" stroke-miterlimit="10" stroke-width=".75"/><path d="m800.05 544.93h-253.7v-9.808h-101.51v20.778h-202.93v-10.97h-101.48v37.785h-50.768" fill="none" stroke="#4b1f6f" stroke-linejoin="round" stroke-miterlimit="10" stroke-width="2.2676"/><path d="m803.594 544.932v.17.141l-.029.17v.142l-.028.17-.057.142-.028.142-.057.141-.056.142-.057.142-.085.142-.057.141-.085.142-.085.113-.085.142-.113.114-.085.113-.114.113-.113.114-.114.056-.113.114-.142.085-.113.085-.142.085-.142.057-.141.085-.142.056-.142.057-.141.057-.142.028-.142.057-.17.028h-.142l-.17.028h-.142-.17-.141-.142l-.17-.028h-.142l-.17-.028-.142-.057-.141-.028-.142-.057-.142-.057-.142-.056-.141-.085-.142-.057-.142-.085-.113-.085-.142-.085-.113-.114-.114-.056-.113-.114-.113-.113-.086-.113-.113-.114-.085-.142-.085-.113-.085-.142-.057-.141-.085-.142-.056-.142-.057-.142-.057-.141-.028-.142-.057-.142-.028-.17v-.142l-.029-.17v-.141l-.028-.17.028-.142v-.142l.029-.17v-.142l.028-.17.057-.142.028-.141.057-.142.057-.142.056-.141.085-.142.057-.142.085-.142.085-.113.085-.142.113-.113.086-.114.113-.113.113-.113.114-.085.113-.114.142-.085.113-.085.142-.085.142-.057.141-.085.142-.056.142-.057.142-.057.141-.028.142-.057.17-.028h.142l.17-.028h.142l.141-.029.17.029h.142l.17.028h.142l.17.028.142.057.142.028.141.057.142.057.142.056.141.085.142.057.142.085.113.085.142.085.113.114.114.085.113.113.114.113.085.114.113.113.085.142.085.113.085.142.057.142.085.142.057.141.056.142.057.142.028.141.057.142.028.17v.142l.029.17v.142z" fill="#4b1f6f" fill-rule="evenodd"/><path d="m803.594 544.932v.17.141l-.029.17v.142l-.028.17-.057.142-.028.142-.057.141-.056.142-.057.142-.085.142-.057.141-.085.142-.085.113-.085.142-.113.114-.085.113-.114.113-.113.114-.114.056-.113.114-.142.085-.113.085-.142.085-.142.057-.141.085-.142.056-.142.057-.141.057-.142.028-.142.057-.17.028h-.142l-.17.028h-.142-.17-.141-.142l-.17-.028h-.142l-.17-.028-.142-.057-.141-.028-.142-.057-.142-.057-.142-.056-.141-.085-.142-.057-.142-.085-.113-.085-.142-.085-.113-.114-.114-.056-.113-.114-.113-.113-.086-.113-.113-.114-.085-.142-.085-.113-.085-.142-.057-.141-.085-.142-.056-.142-.057-.142-.057-.141-.028-.142-.057-.142-.028-.17v-.142l-.029-.17v-.141l-.028-.17.028-.142v-.142l.029-.17v-.142l.028-.17.057-.142.028-.141.057-.142.057-.142.056-.141.085-.142.057-.142.085-.142.085-.113.085-.142.113-.113.086-.114.113-.113.113-.113.114-.085.113-.114.142-.085.113-.085.142-.085.142-.057.141-.085.142-.056.142-.057.142-.057.141-.028.142-.057.17-.028h.142l.17-.028h.142l.141-.029.17.029h.142l.17.028h.142l.17.028.142.057.142.028.141.057.142.057.142.056.141.085.142.057.142.085.113.085.142.085.113.114.114.085.113.113.114.113.085.114.113.113.085.142.085.113.085.142.057.142.085.142.057.141.056.142.057.142.028.141.057.142.028.17v.142l.029.17v.142z" fill="none" stroke="#4b1f6f" stroke-linejoin="round" stroke-miterlimit="10" stroke-width=".75"/><path d="m702.113 544.932v.17.141l-.028.17-.028.142-.029.17-.028.142-.057.142-.028.141-.057.142-.056.142-.085.142-.086.141-.056.142-.085.113-.114.142-.085.114-.113.113-.085.113-.113.114-.114.056-.142.114-.113.085-.142.085-.113.085-.142.057-.142.085-.141.056-.142.057-.142.057-.141.028-.171.057-.141.028h-.142l-.17.028h-.142-.17-.142-.17l-.141-.028h-.142l-.17-.028-.142-.057-.142-.028-.17-.057-.142-.057-.141-.056-.142-.085-.113-.057-.142-.085-.114-.085-.141-.085-.114-.114-.113-.056-.113-.114-.114-.113-.113-.113-.085-.114-.085-.142-.085-.113-.085-.142-.085-.141-.057-.142-.057-.142-.056-.142-.057-.141-.057-.142-.028-.142-.029-.17-.028-.142v-.17l-.028-.141v-.17-.142l.028-.142v-.17l.028-.142.029-.17.028-.142.057-.141.057-.142.056-.142.057-.141.057-.142.085-.142.085-.142.085-.113.085-.142.085-.113.113-.114.114-.113.113-.113.113-.085.114-.114.141-.085.114-.085.142-.085.113-.057.142-.085.141-.056.142-.057.17-.057.142-.028.142-.057.17-.028h.142l.141-.028h.17l.142-.029.17.029h.142l.17.028h.142l.141.028.171.057.141.028.142.057.142.057.141.056.142.085.142.057.113.085.142.085.113.085.142.114.114.085.113.113.085.113.113.114.085.113.114.142.085.113.056.142.086.142.085.142.056.141.057.142.028.142.057.141.028.142.029.17.028.142.028.17v.142z" fill="#4b1f6f" fill-rule="evenodd"/><path d="m702.113 544.932v.17.141l-.028.17-.028.142-.029.17-.028.142-.057.142-.028.141-.057.142-.056.142-.085.142-.086.141-.056.142-.085.113-.114.142-.085.114-.113.113-.085.113-.113.114-.114.056-.142.114-.113.085-.142.085-.113.085-.142.057-.142.085-.141.056-.142.057-.142.057-.141.028-.171.057-.141.028h-.142l-.17.028h-.142-.17-.142-.17l-.141-.028h-.142l-.17-.028-.142-.057-.142-.028-.17-.057-.142-.057-.141-.056-.142-.085-.113-.057-.142-.085-.114-.085-.141-.085-.114-.114-.113-.056-.113-.114-.114-.113-.113-.113-.085-.114-.085-.142-.085-.113-.085-.142-.085-.141-.057-.142-.057-.142-.056-.142-.057-.141-.057-.142-.028-.142-.029-.17-.028-.142v-.17l-.028-.141v-.17-.142l.028-.142v-.17l.028-.142.029-.17.028-.142.057-.141.057-.142.056-.142.057-.141.057-.142.085-.142.085-.142.085-.113.085-.142.085-.113.113-.114.114-.113.113-.113.113-.085.114-.114.141-.085.114-.085.142-.085.113-.057.142-.085.141-.056.142-.057.17-.057.142-.028.142-.057.17-.028h.142l.141-.028h.17l.142-.029.17.029h.142l.17.028h.142l.141.028.171.057.141.028.142.057.142.057.141.056.142.085.142.057.113.085.142.085.113.085.142.114.114.085.113.113.085.113.113.114.085.113.114.142.085.113.056.142.086.142.085.142.056.141.057.142.028.142.057.141.028.142.029.17.028.142.028.17v.142z" fill="none" stroke="#4b1f6f" stroke-linejoin="round" stroke-miterlimit="10" stroke-width=".75"/><path d="m600.633 544.932v.17l-.028.141v.17l-.029.142-.028.17-.028.142-.057.142-.057.141-.056.142-.057.142-.057.142-.085.141-.085.142-.085.113-.085.142-.085.114-.113.113-.114.113-.113.114-.114.056-.113.114-.113.085-.142.085-.142.085-.113.057-.142.085-.142.056-.141.057-.142.057-.17.028-.142.057-.142.028h-.17l-.141.028h-.171-.141-.17-.142l-.142-.028h-.17l-.142-.028-.141-.057-.17-.028-.142-.057-.142-.057-.142-.056-.141-.085-.142-.057-.113-.085-.142-.085-.114-.085-.113-.114-.142-.056-.085-.114-.113-.113-.113-.113-.086-.114-.085-.142-.085-.113-.085-.142-.085-.141-.056-.142-.085-.142-.057-.142-.028-.141-.057-.142-.029-.142-.028-.17-.028-.142-.029-.17v-.141-.17-.142-.142l.029-.17.028-.142.028-.17.029-.142.057-.141.028-.142.057-.142.085-.141.056-.142.085-.142.085-.142.085-.113.085-.142.086-.113.113-.114.113-.113.085-.113.142-.085.113-.114.114-.085.142-.085.113-.085.142-.057.141-.085.142-.056.142-.057.142-.057.17-.028.141-.057.142-.028h.17l.142-.028h.142l.17-.029.141.029h.171l.141.028h.17l.142.028.142.057.17.028.142.057.141.057.142.056.142.085.113.057.142.085.142.085.113.085.113.114.114.085.113.113.114.113.113.114.085.113.085.142.085.113.085.142.085.142.057.142.057.141.056.142.057.142.057.141.028.142.028.17.029.142v.17l.028.142z" fill="#4b1f6f" fill-rule="evenodd"/><path d="m600.633 544.932v.17l-.028.141v.17l-.029.142-.028.17-.028.142-.057.142-.057.141-.056.142-.057.142-.057.142-.085.141-.085.142-.085.113-.085.142-.085.114-.113.113-.114.113-.113.114-.114.056-.113.114-.113.085-.142.085-.142.085-.113.057-.142.085-.142.056-.141.057-.142.057-.17.028-.142.057-.142.028h-.17l-.141.028h-.171-.141-.17-.142l-.142-.028h-.17l-.142-.028-.141-.057-.17-.028-.142-.057-.142-.057-.142-.056-.141-.085-.142-.057-.113-.085-.142-.085-.114-.085-.113-.114-.142-.056-.085-.114-.113-.113-.113-.113-.086-.114-.085-.142-.085-.113-.085-.142-.085-.141-.056-.142-.085-.142-.057-.142-.028-.141-.057-.142-.029-.142-.028-.17-.028-.142-.029-.17v-.141-.17-.142-.142l.029-.17.028-.142.028-.17.029-.142.057-.141.028-.142.057-.142.085-.141.056-.142.085-.142.085-.142.085-.113.085-.142.086-.113.113-.114.113-.113.085-.113.142-.085.113-.114.114-.085.142-.085.113-.085.142-.057.141-.085.142-.056.142-.057.142-.057.17-.028.141-.057.142-.028h.17l.142-.028h.142l.17-.029.141.029h.171l.141.028h.17l.142.028.142.057.17.028.142.057.141.057.142.056.142.085.113.057.142.085.142.085.113.085.113.114.114.085.113.113.114.113.113.114.085.113.085.142.085.113.085.142.085.142.057.142.057.141.056.142.057.142.057.141.028.142.028.17.029.142v.17l.028.142z" fill="none" stroke="#4b1f6f" stroke-linejoin="round" stroke-miterlimit="10" stroke-width=".75"/><path d="m499.153 535.124v.141l-.029.17v.142l-.028.17-.028.142-.057.142-.028.17-.057.142-.057.141-.056.142-.057.142-.085.141-.085.114-.085.142-.085.113-.114.113-.085.114-.113.113-.113.114-.114.113-.113.085-.142.085-.113.085-.142.085-.142.085-.142.057-.141.085-.142.028-.142.057-.141.057-.142.028-.17.028-.142.029-.142.028h-.17-.142-.17-.141l-.17-.028-.142-.029-.142-.028-.17-.028-.142-.057-.141-.057-.142-.028-.142-.085-.142-.057-.141-.085-.142-.085-.113-.085-.114-.085-.142-.085-.113-.113-.113-.114-.114-.113-.085-.114-.113-.113-.085-.113-.085-.142-.085-.114-.057-.141-.085-.142-.057-.142-.056-.141-.057-.142-.028-.17-.029-.142-.028-.142-.029-.17-.028-.142v-.17-.141-.142-.17l.028-.142.029-.17.028-.142.029-.141.028-.171.057-.141.056-.142.057-.142.085-.141.057-.114.085-.142.085-.141.085-.114.113-.113.085-.113.114-.114.113-.113.113-.114.142-.085.114-.085.113-.085.142-.085.141-.085.142-.057.142-.056.142-.057.141-.057.142-.056.17-.029.142-.028.142-.028.17-.029h.141.17.142.17l.142.029.142.028.17.028.142.029.141.056.142.057.142.057.141.056.142.057.142.085.142.085.113.085.142.085.113.085.114.114.113.113.113.114.085.113.114.113.085.114.085.141.085.142.085.114.057.141.056.142.057.142.057.141.028.171.057.141.028.142.028.17v.142l.029.17z" fill="#4b1f6f" fill-rule="evenodd"/><path d="m499.153 535.124v.141l-.029.17v.142l-.028.17-.028.142-.057.142-.028.17-.057.142-.057.141-.056.142-.057.142-.085.141-.085.114-.085.142-.085.113-.114.113-.085.114-.113.113-.113.114-.114.113-.113.085-.142.085-.113.085-.142.085-.142.085-.142.057-.141.085-.142.028-.142.057-.141.057-.142.028-.17.028-.142.029-.142.028h-.17-.142-.17-.141l-.17-.028-.142-.029-.142-.028-.17-.028-.142-.057-.141-.057-.142-.028-.142-.085-.142-.057-.141-.085-.142-.085-.113-.085-.114-.085-.142-.085-.113-.113-.113-.114-.114-.113-.085-.114-.113-.113-.085-.113-.085-.142-.085-.114-.057-.141-.085-.142-.057-.142-.056-.141-.057-.142-.028-.17-.029-.142-.028-.142-.029-.17-.028-.142v-.17-.141-.142-.17l.028-.142.029-.17.028-.142.029-.141.028-.171.057-.141.056-.142.057-.142.085-.141.057-.114.085-.142.085-.141.085-.114.113-.113.085-.113.114-.114.113-.113.113-.114.142-.085.114-.085.113-.085.142-.085.141-.085.142-.057.142-.056.142-.057.141-.057.142-.056.17-.029.142-.028.142-.028.17-.029h.141.17.142.17l.142.029.142.028.17.028.142.029.141.056.142.057.142.057.141.056.142.057.142.085.142.085.113.085.142.085.113.085.114.114.113.113.113.114.085.113.114.113.085.114.085.141.085.142.085.114.057.141.056.142.057.142.057.141.028.171.057.141.028.142.028.17v.142l.029.17z" fill="none" stroke="#4b1f6f" stroke-linejoin="round" stroke-miterlimit="10" stroke-width=".75"/><path d="m397.672 555.902v.141.17l-.028.142-.028.142-.029.17-.028.142-.028.141-.057.17-.057.142-.056.142-.085.113-.057.142-.085.142-.085.113-.085.142-.114.113-.085.114-.113.113-.113.113-.114.114-.142.085-.113.085-.113.085-.142.085-.142.085-.142.057-.141.056-.142.057-.142.057-.141.057-.171.028-.141.028-.142.029h-.17l-.142.028h-.17-.142l-.17-.028h-.141l-.142-.029-.17-.028-.142-.028-.142-.057-.141-.057-.142-.057-.142-.056-.142-.057-.141-.085-.142-.085-.113-.085-.142-.085-.114-.085-.113-.114-.113-.113-.114-.113-.085-.114-.113-.113-.085-.142-.085-.113-.085-.142-.085-.142-.057-.113-.057-.142-.056-.142-.057-.17-.028-.141-.057-.142-.028-.17-.029-.142v-.142l-.028-.17v-.141-.17l.028-.142v-.17l.029-.142.028-.142.057-.17.028-.142.057-.141.056-.142.057-.142.057-.141.085-.142.085-.114.085-.141.085-.114.113-.141.085-.114.114-.113.113-.085.113-.114.114-.085.142-.113.113-.085.142-.057.141-.085.142-.085.142-.057.142-.056.141-.029.142-.056.142-.029.17-.028.142-.028.141-.029h.17.142.17.142l.17.029.142.028.141.028.171.029.141.056.142.029.142.056.141.057.142.085.142.085.142.057.113.085.113.113.142.085.114.114.113.085.113.113.085.114.114.141.085.114.085.141.085.114.057.142.085.141.056.142.057.142.057.141.028.142.028.17.029.142.028.142.028.17v.142z" fill="#4b1f6f" fill-rule="evenodd"/><path d="m397.672 555.902v.141.17l-.028.142-.028.142-.029.17-.028.142-.028.141-.057.17-.057.142-.056.142-.085.113-.057.142-.085.142-.085.113-.085.142-.114.113-.085.114-.113.113-.113.113-.114.114-.142.085-.113.085-.113.085-.142.085-.142.085-.142.057-.141.056-.142.057-.142.057-.141.057-.171.028-.141.028-.142.029h-.17l-.142.028h-.17-.142l-.17-.028h-.141l-.142-.029-.17-.028-.142-.028-.142-.057-.141-.057-.142-.057-.142-.056-.142-.057-.141-.085-.142-.085-.113-.085-.142-.085-.114-.085-.113-.114-.113-.113-.114-.113-.085-.114-.113-.113-.085-.142-.085-.113-.085-.142-.085-.142-.057-.113-.057-.142-.056-.142-.057-.17-.028-.141-.057-.142-.028-.17-.029-.142v-.142l-.028-.17v-.141-.17l.028-.142v-.17l.029-.142.028-.142.057-.17.028-.142.057-.141.056-.142.057-.142.057-.141.085-.142.085-.114.085-.141.085-.114.113-.141.085-.114.114-.113.113-.085.113-.114.114-.085.142-.113.113-.085.142-.057.141-.085.142-.085.142-.057.142-.056.141-.029.142-.056.142-.029.17-.028.142-.028.141-.029h.17.142.17.142l.17.029.142.028.141.028.171.029.141.056.142.029.142.056.141.057.142.085.142.085.142.057.113.085.113.113.142.085.114.114.113.085.113.113.085.114.114.141.085.114.085.141.085.114.057.142.085.141.056.142.057.142.057.141.028.142.028.17.029.142.028.142.028.17v.142z" fill="none" stroke="#4b1f6f" stroke-linejoin="round" stroke-miterlimit="10" stroke-width=".75"/><path d="m296.192 555.902v.141.17l-.028.142-.029.142-.028.17-.028.142-.057.141-.028.17-.057.142-.085.142-.057.113-.085.142-.085.142-.085.113-.085.142-.085.113-.113.114-.114.113-.085.113-.141.114-.114.085-.113.085-.142.085-.113.085-.142.085-.142.057-.142.056-.141.057-.142.057-.17.057-.142.028-.142.028-.17.029h-.141l-.142.028h-.17-.142l-.17-.028h-.142l-.17-.029-.142-.028-.141-.028-.17-.057-.142-.057-.142-.057-.142-.056-.141-.057-.114-.085-.141-.085-.142-.085-.114-.085-.113-.085-.113-.114-.114-.113-.113-.113-.113-.114-.085-.113-.086-.142-.085-.113-.085-.142-.085-.142-.056-.113-.057-.142-.057-.142-.056-.17-.057-.141-.028-.142-.029-.17-.028-.142v-.142l-.028-.17v-.141-.17l.028-.142v-.17l.028-.142.029-.142.028-.17.057-.142.056-.141.057-.142.057-.142.056-.141.085-.142.085-.114.085-.141.086-.114.085-.141.113-.114.113-.113.114-.085.113-.114.113-.085.114-.113.142-.085.141-.057.114-.085.141-.085.142-.057.142-.056.142-.029.17-.056.141-.029.142-.028.17-.028.142-.029h.17.142.17.142l.141.029.17.028.142.028.142.029.17.056.142.029.141.056.142.057.142.085.142.085.113.057.142.085.113.113.114.085.141.114.085.085.114.113.113.114.085.141.085.114.085.141.085.114.085.142.057.141.085.142.057.142.028.141.057.142.028.17.028.142.029.142.028.17v.142z" fill="#4b1f6f" fill-rule="evenodd"/><path d="m296.192 555.902v.141.17l-.028.142-.029.142-.028.17-.028.142-.057.141-.028.17-.057.142-.085.142-.057.113-.085.142-.085.142-.085.113-.085.142-.085.113-.113.114-.114.113-.085.113-.141.114-.114.085-.113.085-.142.085-.113.085-.142.085-.142.057-.142.056-.141.057-.142.057-.17.057-.142.028-.142.028-.17.029h-.141l-.142.028h-.17-.142l-.17-.028h-.142l-.17-.029-.142-.028-.141-.028-.17-.057-.142-.057-.142-.057-.142-.056-.141-.057-.114-.085-.141-.085-.142-.085-.114-.085-.113-.085-.113-.114-.114-.113-.113-.113-.113-.114-.085-.113-.086-.142-.085-.113-.085-.142-.085-.142-.056-.113-.057-.142-.057-.142-.056-.17-.057-.141-.028-.142-.029-.17-.028-.142v-.142l-.028-.17v-.141-.17l.028-.142v-.17l.028-.142.029-.142.028-.17.057-.142.056-.141.057-.142.057-.142.056-.141.085-.142.085-.114.085-.141.086-.114.085-.141.113-.114.113-.113.114-.085.113-.114.113-.085.114-.113.142-.085.141-.057.114-.085.141-.085.142-.057.142-.056.142-.029.17-.056.141-.029.142-.028.17-.028.142-.029h.17.142.17.142l.141.029.17.028.142.028.142.029.17.056.142.029.141.056.142.057.142.085.142.085.113.057.142.085.113.113.114.085.141.114.085.085.114.113.113.114.085.141.085.114.085.141.085.114.085.142.057.141.085.142.057.142.028.141.057.142.028.17.028.142.029.142.028.17v.142z" fill="none" stroke="#4b1f6f" stroke-linejoin="round" stroke-miterlimit="10" stroke-width=".75"/><path d="m194.712 544.932v.17l-.029.141v.17l-.028.142-.028.17-.029.142-.056.142-.057.141-.057.142-.056.142-.057.142-.085.141-.085.142-.085.113-.085.142-.085.114-.114.113-.113.113-.113.114-.114.056-.113.114-.142.085-.113.085-.142.085-.113.057-.142.085-.142.056-.142.057-.17.057-.141.028-.142.057-.17.028h-.142l-.142.028h-.17-.141-.171-.141l-.17-.028h-.142l-.142-.028-.17-.057-.142-.028-.141-.057-.142-.057-.142-.056-.142-.085-.141-.057-.114-.085-.141-.085-.114-.085-.142-.114-.113-.056-.113-.114-.085-.113-.114-.113-.085-.114-.113-.142-.085-.113-.057-.142-.085-.141-.085-.142-.057-.142-.056-.142-.029-.141-.056-.142-.029-.142-.028-.17-.028-.142-.029-.17v-.141-.17-.142-.142l.029-.17.028-.142.028-.17.029-.142.056-.141.029-.142.056-.142.057-.141.085-.142.085-.142.057-.142.085-.113.113-.142.085-.113.114-.114.085-.113.113-.113.113-.085.142-.114.114-.085.141-.085.114-.085.141-.057.142-.085.142-.056.142-.057.141-.057.142-.028.17-.057.142-.028h.142l.17-.028h.141l.171-.029.141.029h.17l.142.028h.142l.17.028.142.057.141.028.17.057.142.057.142.056.142.085.113.057.142.085.113.085.142.085.113.114.114.085.113.113.113.113.114.114.085.113.085.142.085.113.085.142.085.142.057.142.056.141.057.142.057.142.056.141.029.142.028.17.028.142v.17l.029.142z" fill="#4b1f6f" fill-rule="evenodd"/><path d="m194.712 544.932v.17l-.029.141v.17l-.028.142-.028.17-.029.142-.056.142-.057.141-.057.142-.056.142-.057.142-.085.141-.085.142-.085.113-.085.142-.085.114-.114.113-.113.113-.113.114-.114.056-.113.114-.142.085-.113.085-.142.085-.113.057-.142.085-.142.056-.142.057-.17.057-.141.028-.142.057-.17.028h-.142l-.142.028h-.17-.141-.171-.141l-.17-.028h-.142l-.142-.028-.17-.057-.142-.028-.141-.057-.142-.057-.142-.056-.142-.085-.141-.057-.114-.085-.141-.085-.114-.085-.142-.114-.113-.056-.113-.114-.085-.113-.114-.113-.085-.114-.113-.142-.085-.113-.057-.142-.085-.141-.085-.142-.057-.142-.056-.142-.029-.141-.056-.142-.029-.142-.028-.17-.028-.142-.029-.17v-.141-.17-.142-.142l.029-.17.028-.142.028-.17.029-.142.056-.141.029-.142.056-.142.057-.141.085-.142.085-.142.057-.142.085-.113.113-.142.085-.113.114-.114.085-.113.113-.113.113-.085.142-.114.114-.085.141-.085.114-.085.141-.057.142-.085.142-.056.142-.057.141-.057.142-.028.17-.057.142-.028h.142l.17-.028h.141l.171-.029.141.029h.17l.142.028h.142l.17.028.142.057.141.028.17.057.142.057.142.056.142.085.113.057.142.085.113.085.142.085.113.114.114.085.113.113.113.113.114.114.085.113.085.142.085.113.085.142.085.142.057.142.056.141.057.142.057.142.056.141.029.142.028.17.028.142v.17l.029.142z" fill="none" stroke="#4b1f6f" stroke-linejoin="round" stroke-miterlimit="10" stroke-width=".75"/><path d="m93.203 582.717v.142.17l-.028.142v.142l-.029.17-.056.141-.029.142-.056.142-.057.17-.057.142-.085.113-.056.142-.085.142-.085.113-.086.142-.113.113-.085.113-.113.114-.114.113-.113.085-.113.114-.142.085-.114.085-.141.085-.142.085-.142.056-.142.057-.141.057-.142.057-.142.028-.141.057-.171.028-.141.028h-.17l-.142.029h-.17-.142l-.142-.029h-.17l-.141-.028-.171-.028-.141-.057-.142-.028-.142-.057-.141-.057-.142-.057-.142-.056-.142-.085-.141-.085-.114-.085-.141-.085-.114-.114-.113-.085-.114-.113-.113-.114-.085-.113-.113-.113-.085-.142-.086-.113-.085-.142-.056-.142-.085-.113-.057-.142-.057-.17-.056-.142-.029-.142-.056-.141-.029-.17v-.142l-.028-.142v-.17l-.028-.142.028-.17v-.141l.028-.171v-.141l.029-.142.056-.17.029-.142.056-.142.057-.141.057-.142.085-.142.056-.141.085-.114.086-.142.085-.113.113-.142.085-.113.113-.113.114-.086.113-.113.114-.085.141-.113.114-.085.141-.085.142-.057.142-.085.142-.057.141-.057.142-.028.142-.057.141-.028.171-.028.141-.029.17-.028h.142.142.17.142l.17.028.141.029.171.028.141.028.142.057.142.028.141.057.142.057.142.085.142.057.141.085.114.085.142.113.113.085.113.113.114.086.113.113.085.113.113.142.086.113.085.142.085.114.056.141.085.142.057.142.057.141.056.142.029.142.056.17.029.142v.141l.028.171v.141z" fill="#4b1f6f" fill-rule="evenodd"/><path d="m93.203 582.717v.142.17l-.028.142v.142l-.029.17-.056.141-.029.142-.056.142-.057.17-.057.142-.085.113-.056.142-.085.142-.085.113-.086.142-.113.113-.085.113-.113.114-.114.113-.113.085-.113.114-.142.085-.114.085-.141.085-.142.085-.142.056-.142.057-.141.057-.142.057-.142.028-.141.057-.171.028-.141.028h-.17l-.142.029h-.17-.142l-.142-.029h-.17l-.141-.028-.171-.028-.141-.057-.142-.028-.142-.057-.141-.057-.142-.057-.142-.056-.142-.085-.141-.085-.114-.085-.141-.085-.114-.114-.113-.085-.114-.113-.113-.114-.085-.113-.113-.113-.085-.142-.086-.113-.085-.142-.056-.142-.085-.113-.057-.142-.057-.17-.056-.142-.029-.142-.056-.141-.029-.17v-.142l-.028-.142v-.17l-.028-.142.028-.17v-.141l.028-.171v-.141l.029-.142.056-.17.029-.142.056-.142.057-.141.057-.142.085-.142.056-.141.085-.114.086-.142.085-.113.113-.142.085-.113.113-.113.114-.086.113-.113.114-.085.141-.113.114-.085.141-.085.142-.057.142-.085.142-.057.141-.057.142-.028.142-.057.141-.028.171-.028.141-.029.17-.028h.142.142.17.142l.17.028.141.029.171.028.141.028.142.057.142.028.141.057.142.057.142.085.142.057.141.085.114.085.142.113.113.085.113.113.114.086.113.113.085.113.113.142.086.113.085.142.085.114.056.141.085.142.057.142.057.141.056.142.029.142.056.17.029.142v.141l.028.171v.141z" fill="none" stroke="#4b1f6f" stroke-linejoin="round" stroke-miterlimit="10" stroke-width=".75"/><path d="m800.05 555.9h-253.7v-10.97h-101.51v-9.808h-101.45v9.808h-101.48v23.414h-50.74" fill="none" stroke="#aecf00" stroke-linejoin="round" stroke-miterlimit="10" stroke-width="2.2676"/><path d="m796.51 552.36h7.087l-7.087 7.087h7.087z" fill="#aecf00" fill-rule="evenodd"/><path d="m796.51 552.36h7.087l-7.087 7.087h7.087z" fill="none" stroke="#aecf00" stroke-linejoin="round" stroke-miterlimit="10" stroke-width=".75"/><path d="m695.03 552.36h7.086l-7.086 7.087h7.086z" fill="#aecf00" fill-rule="evenodd"/><path d="m695.03 552.36h7.086l-7.086 7.087h7.086z" fill="none" stroke="#aecf00" stroke-linejoin="round" stroke-miterlimit="10" stroke-width=".75"/><path d="m593.55 552.36h7.087l-7.087 7.087h7.087z" fill="#aecf00" fill-rule="evenodd"/><path d="m593.55 552.36h7.087l-7.087 7.087h7.087z" fill="none" stroke="#aecf00" stroke-linejoin="round" stroke-miterlimit="10" stroke-width=".75"/><path d="m492.07 541.39h7.087l-7.087 7.058h7.087z" fill="#aecf00" fill-rule="evenodd"/><path d="m492.07 541.39h7.087l-7.087 7.058h7.087z" fill="none" stroke="#aecf00" stroke-linejoin="round" stroke-miterlimit="10" stroke-width=".75"/><path d="m390.59 531.58h7.086l-7.086 7.087h7.086z" fill="#aecf00" fill-rule="evenodd"/><path d="m390.59 531.58h7.086l-7.086 7.087h7.086z" fill="none" stroke="#aecf00" stroke-linejoin="round" stroke-miterlimit="10" stroke-width=".75"/><path d="m289.11 541.39h7.086l-7.086 7.058h7.086z" fill="#aecf00" fill-rule="evenodd"/><path d="m289.11 541.39h7.086l-7.086 7.058h7.086z" fill="none" stroke="#aecf00" stroke-linejoin="round" stroke-miterlimit="10" stroke-width=".75"/><path d="m187.62 564.8h7.087l-7.087 7.087h7.087z" fill="#aecf00" fill-rule="evenodd"/><path d="m187.62 564.8h7.087l-7.087 7.087h7.087z" fill="none" stroke="#aecf00" stroke-linejoin="round" stroke-miterlimit="10" stroke-width=".75"/><path d="m800.05 568.35h-558.14v-12.444h-50.74" fill="none" stroke="#314004" stroke-linejoin="round" stroke-miterlimit="10" stroke-width="2.2676"/><path d="m796.51 571.89v-7.087l7.087 7.087v-7.087z" fill="#314004" fill-rule="evenodd"/><path d="m796.51 571.89v-7.087l7.087 7.087v-7.087z" fill="none" stroke="#314004" stroke-linejoin="round" stroke-miterlimit="10" stroke-width=".75"/><path d="m695.03 571.89v-7.087l7.086 7.087v-7.087z" fill="#314004" fill-rule="evenodd"/><path d="m695.03 571.89v-7.087l7.086 7.087v-7.087z" fill="none" stroke="#314004" stroke-linejoin="round" stroke-miterlimit="10" stroke-width=".75"/><path d="m593.55 571.89v-7.087l7.087 7.087v-7.087z" fill="#314004" fill-rule="evenodd"/><path d="m593.55 571.89v-7.087l7.087 7.087v-7.087z" fill="none" stroke="#314004" stroke-linejoin="round" stroke-miterlimit="10" stroke-width=".75"/><path d="m492.07 571.89v-7.087l7.087 7.087v-7.087z" fill="#314004" fill-rule="evenodd"/><path d="m492.07 571.89v-7.087l7.087 7.087v-7.087z" fill="none" stroke="#314004" stroke-linejoin="round" stroke-miterlimit="10" stroke-width=".75"/><path d="m390.59 571.89v-7.087l7.086 7.087v-7.087z" fill="#314004" fill-rule="evenodd"/><path d="m390.59 571.89v-7.087l7.086 7.087v-7.087z" fill="none" stroke="#314004" stroke-linejoin="round" stroke-miterlimit="10" stroke-width=".75"/><path d="m289.11 571.89v-7.087l7.086 7.087v-7.087z" fill="#314004" fill-rule="evenodd"/><path d="m289.11 571.89v-7.087l7.086 7.087v-7.087z" fill="none" stroke="#314004" stroke-linejoin="round" stroke-miterlimit="10" stroke-width=".75"/><path d="m187.62 559.44v-7.087l7.087 7.087v-7.087z" fill="#314004" fill-rule="evenodd"/><path d="m187.62 559.44v-7.087l7.087 7.087v-7.087z" fill="none" stroke="#314004" stroke-linejoin="round" stroke-miterlimit="10" stroke-width=".75"/><path d="m800.05 582.72h-659.62v-14.371h-50.768" fill="none" stroke="#83caff" stroke-linejoin="round" stroke-miterlimit="10" stroke-width="2.2676"/><path d="m796.51 582.72 7.087-3.543v7.087z" fill="#83caff" fill-rule="evenodd"/><path d="m796.51 582.72 7.087-3.543v7.087z" fill="none" stroke="#83caff" stroke-linejoin="round" stroke-miterlimit="10" stroke-width=".75"/><path d="m695.03 582.72 7.086-3.543v7.087z" fill="#83caff" fill-rule="evenodd"/><path d="m695.03 582.72 7.086-3.543v7.087z" fill="none" stroke="#83caff" stroke-linejoin="round" stroke-miterlimit="10" stroke-width=".75"/><path d="m593.55 582.72 7.087-3.543v7.087z" fill="#83caff" fill-rule="evenodd"/><path d="m593.55 582.72 7.087-3.543v7.087z" fill="none" stroke="#83caff" stroke-linejoin="round" stroke-miterlimit="10" stroke-width=".75"/><path d="m492.07 582.72 7.087-3.543v7.087z" fill="#83caff" fill-rule="evenodd"/><path d="m492.07 582.72 7.087-3.543v7.087z" fill="none" stroke="#83caff" stroke-linejoin="round" stroke-miterlimit="10" stroke-width=".75"/><path d="m390.59 582.72 7.086-3.543v7.087z" fill="#83caff" fill-rule="evenodd"/><path d="m390.59 582.72 7.086-3.543v7.087z" fill="none" stroke="#83caff" stroke-linejoin="round" stroke-miterlimit="10" stroke-width=".75"/><path d="m289.11 582.72 7.086-3.543v7.087z" fill="#83caff" fill-rule="evenodd"/><path d="m289.11 582.72 7.086-3.543v7.087z" fill="none" stroke="#83caff" stroke-linejoin="round" stroke-miterlimit="10" stroke-width=".75"/><path d="m187.62 582.72 7.087-3.543v7.087z" fill="#83caff" fill-rule="evenodd"/><path d="m187.62 582.72 7.087-3.543v7.087z" fill="none" stroke="#83caff" stroke-linejoin="round" stroke-miterlimit="10" stroke-width=".75"/><path d="m86.117 568.35 7.086-3.544v7.087z" fill="#83caff" fill-rule="evenodd"/><path d="m86.117 568.35 7.086-3.544v7.087z" fill="none" stroke="#83caff" stroke-linejoin="round" stroke-miterlimit="10" stroke-width=".75"/><path d="m800.05 599.7h-50.74v20.806h-304.47v-20.806h-202.93v20.806h-101.48v-20.806h-50.768" fill="none" stroke="#7e0021" stroke-linejoin="round" stroke-miterlimit="10" stroke-width="2.2676"/><path d="m796.51 603.24v-7.086l7.087 3.543z" fill="#7e0021" fill-rule="evenodd"/><path d="m796.51 603.24v-7.086l7.087 3.543z" fill="none" stroke="#7e0021" stroke-linejoin="round" stroke-miterlimit="10" stroke-width=".75"/><path d="m695.03 624.05v-7.086l7.086 3.543z" fill="#7e0021" fill-rule="evenodd"/><path d="m695.03 624.05v-7.086l7.086 3.543z" fill="none" stroke="#7e0021" stroke-linejoin="round" stroke-miterlimit="10" stroke-width=".75"/><path d="m593.55 624.05v-7.086l7.087 3.543z" fill="#7e0021" fill-rule="evenodd"/><path d="m593.55 624.05v-7.086l7.087 3.543z" fill="none" stroke="#7e0021" stroke-linejoin="round" stroke-miterlimit="10" stroke-width=".75"/><path d="m492.07 624.05v-7.086l7.087 3.543z" fill="#7e0021" fill-rule="evenodd"/><path d="m492.07 624.05v-7.086l7.087 3.543z" fill="none" stroke="#7e0021" stroke-linejoin="round" stroke-miterlimit="10" stroke-width=".75"/><path d="m390.59 603.24v-7.086l7.086 3.543z" fill="#7e0021" fill-rule="evenodd"/><path d="m390.59 603.24v-7.086l7.086 3.543z" fill="none" stroke="#7e0021" stroke-linejoin="round" stroke-miterlimit="10" stroke-width=".75"/><path d="m289.11 603.24v-7.086l7.086 3.543z" fill="#7e0021" fill-rule="evenodd"/><path d="m289.11 603.24v-7.086l7.086 3.543z" fill="none" stroke="#7e0021" stroke-linejoin="round" stroke-miterlimit="10" stroke-width=".75"/><path d="m187.62 624.05v-7.086l7.087 3.543z" fill="#7e0021" fill-rule="evenodd"/><path d="m187.62 624.05v-7.086l7.087 3.543z" fill="none" stroke="#7e0021" stroke-linejoin="round" stroke-miterlimit="10" stroke-width=".75"/><path d="m86.117 603.24v-7.086l7.086 3.543z" fill="#7e0021" fill-rule="evenodd"/><path d="m86.117 603.24v-7.086l7.086 3.543z" fill="none" stroke="#7e0021" stroke-linejoin="round" stroke-miterlimit="10" stroke-width=".75"/><path d="m796.51 616.96h7.087l-3.544 7.086z" fill="#579d1c" fill-rule="evenodd"/><path d="m796.51 616.96h7.087l-3.544 7.086z" fill="none" stroke="#579d1c" stroke-linejoin="round" stroke-miterlimit="10" stroke-width=".75"/><path d="m695.03 596.15h7.086l-3.543 7.086z" fill="#579d1c" fill-rule="evenodd"/><path d="m695.03 596.15h7.086l-3.543 7.086z" fill="none" stroke="#579d1c" stroke-linejoin="round" stroke-miterlimit="10" stroke-width=".75"/><path d="m593.55 596.15h7.087l-3.543 7.086z" fill="#579d1c" fill-rule="evenodd"/><path d="m593.55 596.15h7.087l-3.543 7.086z" fill="none" stroke="#579d1c" stroke-linejoin="round" stroke-miterlimit="10" stroke-width=".75"/><path d="m492.07 596.15h7.087l-3.544 7.086z" fill="#579d1c" fill-rule="evenodd"/><path d="m492.07 596.15h7.087l-3.544 7.086z" fill="none" stroke="#579d1c" stroke-linejoin="round" stroke-miterlimit="10" stroke-width=".75"/><path d="m390.59 643.78h7.086l-3.543 7.086z" fill="#579d1c" fill-rule="evenodd"/><path d="m390.59 643.78h7.086l-3.543 7.086z" fill="none" stroke="#579d1c" stroke-linejoin="round" stroke-miterlimit="10" stroke-width=".75"/><path d="m289.11 643.78h7.086l-3.543 7.086z" fill="#579d1c" fill-rule="evenodd"/><path d="m289.11 643.78h7.086l-3.543 7.086z" fill="none" stroke="#579d1c" stroke-linejoin="round" stroke-miterlimit="10" stroke-width=".75"/><path d="m187.62 681.56h7.087l-3.543 7.087z" fill="#579d1c" fill-rule="evenodd"/><path d="m187.62 681.56h7.087l-3.543 7.087z" fill="none" stroke="#579d1c" stroke-linejoin="round" stroke-miterlimit="10" stroke-width=".75"/><path d="m796.51 650.86 3.543-7.086 3.544 7.086z" fill="#ffd320" fill-rule="evenodd"/><path d="m796.51 650.86 3.543-7.086 3.544 7.086z" fill="none" stroke="#ffd320" stroke-linejoin="round" stroke-miterlimit="10" stroke-width=".75"/><path d="m695.03 650.86 3.543-7.086 3.543 7.086z" fill="#ffd320" fill-rule="evenodd"/><path d="m695.03 650.86 3.543-7.086 3.543 7.086z" fill="none" stroke="#ffd320" stroke-linejoin="round" stroke-miterlimit="10" stroke-width=".75"/><path d="m593.55 650.86 3.544-7.086 3.543 7.086z" fill="#ffd320" fill-rule="evenodd"/><path d="m593.55 650.86 3.544-7.086 3.543 7.086z" fill="none" stroke="#ffd320" stroke-linejoin="round" stroke-miterlimit="10" stroke-width=".75"/><path d="m492.07 650.86 3.543-7.086 3.544 7.086z" fill="#ffd320" fill-rule="evenodd"/><path d="m492.07 650.86 3.543-7.086 3.544 7.086z" fill="none" stroke="#ffd320" stroke-linejoin="round" stroke-miterlimit="10" stroke-width=".75"/><path d="m390.59 624.05 3.543-7.086 3.543 7.086z" fill="#ffd320" fill-rule="evenodd"/><path d="m390.59 624.05 3.543-7.086 3.543 7.086z" fill="none" stroke="#ffd320" stroke-linejoin="round" stroke-miterlimit="10" stroke-width=".75"/><path d="m289.11 624.05 3.543-7.086 3.543 7.086z" fill="#ffd320" fill-rule="evenodd"/><path d="m289.11 624.05 3.543-7.086 3.543 7.086z" fill="none" stroke="#ffd320" stroke-linejoin="round" stroke-miterlimit="10" stroke-width=".75"/><path d="m187.62 603.24 3.544-7.086 3.543 7.086z" fill="#ffd320" fill-rule="evenodd"/><path d="m187.62 603.24 3.544-7.086 3.543 7.086z" fill="none" stroke="#ffd320" stroke-linejoin="round" stroke-miterlimit="10" stroke-width=".75"/><path d="m796.51 685.1 3.543-3.544 3.544 3.544-3.544 3.543z" fill="#ff420e" fill-rule="evenodd"/><path d="m796.51 685.1 3.543-3.544 3.544 3.544-3.544 3.543z" fill="none" stroke="#ff420e" stroke-linejoin="round" stroke-miterlimit="10" stroke-width=".75"/><path d="m695.03 685.1 3.543-3.544 3.543 3.544-3.543 3.543z" fill="#ff420e" fill-rule="evenodd"/><path d="m695.03 685.1 3.543-3.544 3.543 3.544-3.543 3.543z" fill="none" stroke="#ff420e" stroke-linejoin="round" stroke-miterlimit="10" stroke-width=".75"/><path d="m593.55 749.71 3.544-3.543 3.543 3.543-3.543 3.544z" fill="#ff420e" fill-rule="evenodd"/><path d="m593.55 749.71 3.544-3.543 3.543 3.543-3.543 3.544z" fill="none" stroke="#ff420e" stroke-linejoin="round" stroke-miterlimit="10" stroke-width=".75"/><path d="m492.07 749.71 3.543-3.543 3.544 3.543-3.544 3.544z" fill="#ff420e" fill-rule="evenodd"/><path d="m492.07 749.71 3.543-3.543 3.544 3.543-3.544 3.544z" fill="none" stroke="#ff420e" stroke-linejoin="round" stroke-miterlimit="10" stroke-width=".75"/><path d="m390.59 749.71 3.543-3.543 3.543 3.543-3.543 3.544z" fill="#ff420e" fill-rule="evenodd"/><path d="m390.59 749.71 3.543-3.543 3.543 3.543-3.543 3.544z" fill="none" stroke="#ff420e" stroke-linejoin="round" stroke-miterlimit="10" stroke-width=".75"/><path d="m289.11 749.71 3.543-3.543 3.543 3.543-3.543 3.544z" fill="#ff420e" fill-rule="evenodd"/><path d="m289.11 749.71 3.543-3.543 3.543 3.543-3.543 3.544z" fill="none" stroke="#ff420e" stroke-linejoin="round" stroke-miterlimit="10" stroke-width=".75"/><path d="m187.62 749.71 3.544-3.543 3.543 3.543-3.543 3.544z" fill="#ff420e" fill-rule="evenodd"/><path d="m187.62 749.71 3.544-3.543 3.543 3.543-3.543 3.544z" fill="none" stroke="#ff420e" stroke-linejoin="round" stroke-miterlimit="10" stroke-width=".75"/><path d="m800.05 749.71h-152.22v-64.601h-405.92v-37.786h-101.48v-26.816h-50.768" fill="none" stroke="#004586" stroke-linejoin="round" stroke-miterlimit="10" stroke-width="2.2676"/><path d="m796.51 753.25v-7.087h7.087v7.087z" fill="#004586" fill-rule="evenodd"/><path d="m796.51 753.25v-7.087h7.087v7.087z" fill="none" stroke="#004586" stroke-linejoin="round" stroke-miterlimit="10" stroke-width=".75"/><path d="m695.03 753.25v-7.087h7.086v7.087z" fill="#004586" fill-rule="evenodd"/><path d="m695.03 753.25v-7.087h7.086v7.087z" fill="none" stroke="#004586" stroke-linejoin="round" stroke-miterlimit="10" stroke-width=".75"/><path d="m593.55 688.65v-7.087h7.087v7.087z" fill="#004586" fill-rule="evenodd"/><path d="m593.55 688.65v-7.087h7.087v7.087z" fill="none" stroke="#004586" stroke-linejoin="round" stroke-miterlimit="10" stroke-width=".75"/><path d="m492.07 688.65v-7.087h7.087v7.087z" fill="#004586" fill-rule="evenodd"/><path d="m492.07 688.65v-7.087h7.087v7.087z" fill="none" stroke="#004586" stroke-linejoin="round" stroke-miterlimit="10" stroke-width=".75"/><path d="m390.59 688.65v-7.087h7.086v7.087z" fill="#004586" fill-rule="evenodd"/><path d="m390.59 688.65v-7.087h7.086v7.087z" fill="none" stroke="#004586" stroke-linejoin="round" stroke-miterlimit="10" stroke-width=".75"/><path d="m289.11 688.65v-7.087h7.086v7.087z" fill="#004586" fill-rule="evenodd"/><path d="m289.11 688.65v-7.087h7.086v7.087z" fill="none" stroke="#004586" stroke-linejoin="round" stroke-miterlimit="10" stroke-width=".75"/><path d="m187.62 650.86v-7.086h7.087v7.086z" fill="#004586" fill-rule="evenodd"/><path d="m187.62 650.86v-7.086h7.087v7.086z" fill="none" stroke="#004586" stroke-linejoin="round" stroke-miterlimit="10" stroke-width=".75"/></g><g font-family="DejaVu Sans" font-size="16" stroke-width="1.3334" transform="scale(1 .99996)"><text x="8.169554" y="457.71875"><tspan font-family="'DejaVu Sans'" font-size="16" stroke-width="1.7778" x="8.169554" y="457.71875">2017</tspan></text><text x="143.37794" y="457.71875"><tspan font-family="'DejaVu Sans'" font-size="16" stroke-width="1.7778" x="143.37794" y="457.71875">2018</tspan></text><text x="278.70001" y="457.71875"><tspan font-family="'DejaVu Sans'" font-size="16" stroke-width="1.7778" x="278.70001" y="457.71875">2019</tspan></text><text x="413.97516" y="457.71875"><tspan font-family="'DejaVu Sans'" font-size="16" stroke-width="1.7778" x="413.97516" y="457.71875">2020</tspan></text><text x="549.48865" y="457.71875"><tspan font-family="'DejaVu Sans'" font-size="16" stroke-width="1.7778" x="549.48865" y="457.71875">2021</tspan></text><text x="684.85883" y="457.71875"><tspan font-family="'DejaVu Sans'" font-size="16" stroke-width="1.7778" x="684.85883" y="457.71875">2022</tspan></text><text x="820.00513" y="457.71875"><tspan font-family="'DejaVu Sans'" font-size="16" stroke-width="1.7778" x="820.00513" y="457.71875">2023</tspan></text><text x="955.12006" y="457.71875"><tspan font-family="'DejaVu Sans'" font-size="16" stroke-width="1.7778" x="955.12006" y="457.71875">2024</tspan></text><text x="10.486222" y="13.074037"><tspan font-family="'DejaVu Sans'" font-size="16" stroke-width="1.7778" x="10.486222" y="13.074037">1</tspan></text><text x="10.611224" y="99.317871"><tspan font-family="'DejaVu Sans'" font-size="16" stroke-width="1.7778" x="10.611224" y="99.317871">2</tspan></text><text x="10.290908" y="149.58649"><tspan font-family="'DejaVu Sans'" font-size="16" stroke-width="1.7778" x="10.290908" y="149.58649">3</tspan></text><text x="9.908091" y="185.34996"><tspan font-family="'DejaVu Sans'" font-size="16" stroke-width="1.7778" x="9.908091" y="185.34996">4</tspan></text><text x="10.408096" y="212.97881"><tspan font-family="'DejaVu Sans'" font-size="16" stroke-width="1.7778" x="10.408096" y="212.97881">5</tspan></text><text x="-.10766" y="299.1839"><tspan font-family="'DejaVu Sans'" font-size="16" stroke-width="1.7778" x="-.10766" y="299.1839">10</tspan></text><text x="-.10766" y="385.32224"><tspan font-family="'DejaVu Sans'" font-size="16" stroke-width="1.7778" x="-.10766" y="385.32224">20</tspan></text></g><g transform="matrix(1.3333 0 0 -1.3333 -137.73 1030)"><path d="m141.53 396.28h22.677" fill="none" stroke="#004586" stroke-linejoin="round" stroke-miterlimit="10" stroke-width="2.2676"/><path d="m149.87 399.26v-5.981h5.981v5.981z" fill="#004586" fill-rule="evenodd"/><path d="m149.87 399.26v-5.981h5.981v5.981z" fill="none" stroke="#004586" stroke-linejoin="round" stroke-miterlimit="10" stroke-width=".75"/></g><g transform="matrix(1.3333 0 0 -1.3333 -119.73 1030)"><path d="m226.18 396.28h22.678" fill="none" stroke="#ff420e" stroke-linejoin="round" stroke-miterlimit="10" stroke-width="2.2676"/><path d="m234.51 396.28 3.005-3.005 2.976 3.005-2.976 2.976z" fill="#ff420e" fill-rule="evenodd"/><path d="m234.51 396.28 3.005-3.005 2.976 3.005-2.976 2.976z" fill="none" stroke="#ff420e" stroke-linejoin="round" stroke-miterlimit="10" stroke-width=".75"/></g><g transform="matrix(1.3333 0 0 -1.3333 -101.73 1030)"><path d="m331.82 396.28h22.677" fill="none" stroke="#ffd320" stroke-linejoin="round" stroke-miterlimit="10" stroke-width="2.2676"/><path d="m340.16 399.26 3.005-5.981 2.977 5.981z" fill="#ffd320" fill-rule="evenodd"/><path d="m340.16 399.26 3.005-5.981 2.977 5.981z" fill="none" stroke="#ffd320" stroke-linejoin="round" stroke-miterlimit="10" stroke-width=".75"/></g><g transform="matrix(1.3333 0 0 -1.3333 -83.726 1030)"><path d="m432.23 396.28h22.649" fill="none" stroke="#579d1c" stroke-linejoin="round" stroke-miterlimit="10" stroke-width="2.2676"/><path d="m440.56 393.28h5.952l-2.976 5.981z" fill="#579d1c" fill-rule="evenodd"/><path d="m440.56 393.28h5.952l-2.976 5.981z" fill="none" stroke="#579d1c" stroke-linejoin="round" stroke-miterlimit="10" stroke-width=".75"/></g><g transform="matrix(1.3333 0 0 -1.3333 -65.726 1030)"><path d="m557.35 396.28h22.677" fill="none" stroke="#7e0021" stroke-linejoin="round" stroke-miterlimit="10" stroke-width="2.2676"/><path d="m565.68 399.26v-5.981l5.981 3.005z" fill="#7e0021" fill-rule="evenodd"/><path d="m565.68 399.26v-5.981l5.981 3.005z" fill="none" stroke="#7e0021" stroke-linejoin="round" stroke-miterlimit="10" stroke-width=".75"/></g><g transform="matrix(1.3333 0 0 -1.3333 -47.726 1030)"><path d="m649.5 396.28h22.678" fill="none" stroke="#83caff" stroke-linejoin="round" stroke-miterlimit="10" stroke-width="2.2676"/><path d="m657.84 396.28 5.981-3.005v5.981z" fill="#83caff" fill-rule="evenodd"/><path d="m657.84 396.28 5.981-3.005v5.981z" fill="none" stroke="#83caff" stroke-linejoin="round" stroke-miterlimit="10" stroke-width=".75"/></g><g transform="matrix(1.3333 0 0 -1.3333 -137.73 1030)"><path d="m141.53 382.17h22.677" fill="none" stroke="#314004" stroke-linejoin="round" stroke-miterlimit="10" stroke-width="2.2676"/><path d="m149.87 385.14v-5.982l5.981 5.982v-5.982z" fill="#314004" fill-rule="evenodd"/><path d="m149.87 385.14v-5.982l5.981 5.982v-5.982z" fill="none" stroke="#314004" stroke-linejoin="round" stroke-miterlimit="10" stroke-width=".75"/></g><g transform="matrix(1.3333 0 0 -1.3333 -119.73 1030)"><path d="m226.18 382.17h22.678" fill="none" stroke="#aecf00" stroke-linejoin="round" stroke-miterlimit="10" stroke-width="2.2676"/><path d="m234.51 379.16h5.981l-5.981 5.982h5.981z" fill="#aecf00" fill-rule="evenodd"/><path d="m234.51 379.16h5.981l-5.981 5.982h5.981z" fill="none" stroke="#aecf00" stroke-linejoin="round" stroke-miterlimit="10" stroke-width=".75"/></g><g transform="matrix(1.3333 0 0 -1.3333 -101.73 1030)"><path d="m331.82 382.17h22.677" fill="none" stroke="#4b1f6f" stroke-linejoin="round" stroke-miterlimit="10" stroke-width="2.2676"/><path d="m346.139 382.166v.142.113l-.029.142-.028.113-.028.142-.029.114-.028.141-.028.114-.057.113-.057.142-.057.113-.056.114-.085.113-.057.113-.085.085-.085.114-.085.085-.085.113-.085.085-.114.085-.085.085-.113.057-.113.085-.114.057-.113.085-.114.056-.113.029-.113.056-.142.057-.113.029-.142.028-.114.028-.141.029h-.114-.141-.114-.142-.141-.114l-.141-.029-.114-.028-.141-.028-.114-.029-.142-.057-.113-.056-.113-.029-.114-.056-.113-.085-.114-.057-.113-.085-.113-.057-.085-.085-.114-.085-.085-.085-.085-.113-.085-.085-.085-.114-.085-.085-.057-.113-.085-.113-.056-.114-.057-.113-.057-.142-.056-.113-.029-.114-.028-.141-.028-.114-.029-.142-.028-.113-.029-.142v-.113-.142-.142-.113l.029-.142.028-.113.029-.142.028-.113.028-.142.029-.113.056-.114.057-.141.057-.114.056-.113.085-.114.057-.113.085-.085.085-.113.085-.085.085-.114.085-.085.114-.085.085-.085.113-.057.113-.085.114-.056.113-.085.114-.057.113-.028.113-.057.142-.057.114-.028.141-.029.114-.028.141-.028h.114.141l.142-.029.114.029h.141.114l.141.028.114.028.142.029.113.028.142.057.113.057.113.028.114.057.113.085.114.056.113.085.113.057.085.085.114.085.085.085.085.114.085.085.085.113.085.085.057.113.085.114.056.113.057.114.057.141.057.114.028.113.028.142.029.113.028.142.028.113.029.142v.113z" fill="#4b1f6f" fill-rule="evenodd"/><path d="m346.139 382.166v.142.113l-.029.142-.028.113-.028.142-.029.114-.028.141-.028.114-.057.113-.057.142-.057.113-.056.114-.085.113-.057.113-.085.085-.085.114-.085.085-.085.113-.085.085-.114.085-.085.085-.113.057-.113.085-.114.057-.113.085-.114.056-.113.029-.113.056-.142.057-.113.029-.142.028-.114.028-.141.029h-.114-.141-.114-.142-.141-.114l-.141-.029-.114-.028-.141-.028-.114-.029-.142-.057-.113-.056-.113-.029-.114-.056-.113-.085-.114-.057-.113-.085-.113-.057-.085-.085-.114-.085-.085-.085-.085-.113-.085-.085-.085-.114-.085-.085-.057-.113-.085-.113-.056-.114-.057-.113-.057-.142-.056-.113-.029-.114-.028-.141-.028-.114-.029-.142-.028-.113-.029-.142v-.113-.142-.142-.113l.029-.142.028-.113.029-.142.028-.113.028-.142.029-.113.056-.114.057-.141.057-.114.056-.113.085-.114.057-.113.085-.085.085-.113.085-.085.085-.114.085-.085.114-.085.085-.085.113-.057.113-.085.114-.056.113-.085.114-.057.113-.028.113-.057.142-.057.114-.028.141-.029.114-.028.141-.028h.114.141l.142-.029.114.029h.141.114l.141.028.114.028.142.029.113.028.142.057.113.057.113.028.114.057.113.085.114.056.113.085.113.057.085.085.114.085.085.085.085.114.085.085.085.113.085.085.057.113.085.114.056.113.057.114.057.141.057.114.028.113.028.142.029.113.028.142.028.113.029.142v.113z" fill="none" stroke="#4b1f6f" stroke-linejoin="round" stroke-miterlimit="10" stroke-width=".75"/></g><g transform="matrix(1.3333 0 0 -1.3333 -83.726 1030)"><path d="m432.23 382.17h22.649" fill="none" stroke="#ff950e" stroke-linejoin="round" stroke-miterlimit="10" stroke-width="2.2676"/><path d="m443.537 385.143.595-2.382 2.381-.595-2.381-.595-.595-2.41-.624 2.41-2.352.595 2.352.595z" fill="#ff950e" fill-rule="evenodd"/><path d="m443.537 385.143.595-2.382 2.381-.595-2.381-.595-.595-2.41-.624 2.41-2.352.595 2.352.595z" fill="none" stroke="#ff950e" stroke-linejoin="round" stroke-miterlimit="10" stroke-width=".75"/></g><g transform="matrix(1.3333 0 0 -1.3333 -65.726 1030)"><path d="m557.35 382.17h22.677" fill="none" stroke="#c5000b" stroke-linejoin="round" stroke-miterlimit="10" stroke-width="2.2676"/><path d="m568.687 382.506-2.665 2.637-.34-.312 2.664-2.665-2.664-2.664.34-.341 2.665 2.665 2.636-2.665.34.341-2.665 2.664 2.665 2.665-.34.312z" fill="#c5000b" fill-rule="evenodd"/><path d="m568.687 382.506-2.665 2.637-.34-.312 2.664-2.665-2.664-2.664.34-.341 2.665 2.665 2.636-2.665.34.341-2.665 2.664 2.665 2.665-.34.312z" fill="none" stroke="#c5000b" stroke-linejoin="round" stroke-miterlimit="10" stroke-width=".75"/></g><g transform="matrix(1.3333 0 0 -1.3333 -47.726 1030)"><path d="m649.5 382.17h22.678" fill="none" stroke="#0084d1" stroke-linejoin="round" stroke-miterlimit="10" stroke-width="2.2676"/><path d="m660.586 385.143v-2.75h-2.75v-.454h2.75v-2.778h.482v2.778h2.749v.454h-2.749v2.75z" fill="#0084d1" fill-rule="evenodd"/><path d="m660.586 385.143v-2.75h-2.75v-.454h2.75v-2.778h.482v2.778h2.749v.454h-2.749v2.75z" fill="none" stroke="#0084d1" stroke-linejoin="round" stroke-miterlimit="10" stroke-width=".75"/></g><g transform="matrix(1.3333 0 0 -1.3333 -137.73 1030)"><path d="m141.53 368.05h22.677" fill="none" stroke="#004586" stroke-linejoin="round" stroke-miterlimit="10" stroke-width="2.2676"/><path d="m152.617 371.026v-2.58l-2.523 1.474-.226-.425 2.523-1.445-2.523-1.446.226-.425 2.523 1.474v-2.608h.482v2.608l2.523-1.474.227.425-2.523 1.446 2.523 1.445-.227.425-2.523-1.474v2.58z" fill="#004586" fill-rule="evenodd"/><path d="m152.617 371.026v-2.58l-2.523 1.474-.226-.425 2.523-1.445-2.523-1.446.226-.425 2.523 1.474v-2.608h.482v2.608l2.523-1.474.227.425-2.523 1.446 2.523 1.445-.227.425-2.523-1.474v2.58z" fill="none" stroke="#004586" stroke-linejoin="round" stroke-miterlimit="10" stroke-width=".75"/></g><g transform="matrix(1.3333 0 0 -1.3333 -119.73 1030)"><path d="m226.18 368.05h22.678" fill="none" stroke="#ff420e" stroke-linejoin="round" stroke-miterlimit="10" stroke-width="2.2676"/><path d="m234.51 368.64h5.981v-1.191h-5.981z" fill="#ff420e" fill-rule="evenodd"/><path d="m234.51 368.64h5.981v-1.191h-5.981z" fill="none" stroke="#ff420e" stroke-linejoin="round" stroke-miterlimit="10" stroke-width=".75"/></g><g transform="matrix(1.3333 0 0 -1.3333 -101.73 1030)"><path d="m331.82 368.05h22.677" fill="none" stroke="#ffd320" stroke-linejoin="round" stroke-miterlimit="10" stroke-width="2.2676"/><path d="m342.54 371.03h1.218v-5.981h-1.218z" fill="#ffd320" fill-rule="evenodd"/><path d="m342.54 371.03h1.218v-5.981h-1.218z" fill="none" stroke="#ffd320" stroke-linejoin="round" stroke-miterlimit="10" stroke-width=".75"/></g><g transform="matrix(1.3333 0 0 -1.3333 -83.726 1030)"><path d="m432.23 368.05h22.649" fill="none" stroke="#579d1c" stroke-linejoin="round" stroke-miterlimit="10" stroke-width="2.2676"/><path d="m440.56 371.03v-5.981h5.952v5.981z" fill="#579d1c" fill-rule="evenodd"/><path d="m440.56 371.03v-5.981h5.952v5.981z" fill="none" stroke="#579d1c" stroke-linejoin="round" stroke-miterlimit="10" stroke-width=".75"/></g><g transform="matrix(1.3333 0 0 -1.3333 -65.726 1030)"><path d="m557.35 368.05h22.677" fill="none" stroke="#7e0021" stroke-linejoin="round" stroke-miterlimit="10" stroke-width="2.2676"/><path d="m565.68 368.05 3.005-3.005 2.976 3.005-2.976 2.976z" fill="#7e0021" fill-rule="evenodd"/><path d="m565.68 368.05 3.005-3.005 2.976 3.005-2.976 2.976z" fill="none" stroke="#7e0021" stroke-linejoin="round" stroke-miterlimit="10" stroke-width=".75"/></g><g transform="matrix(1.3333 0 0 -1.3333 -47.726 1030)"><path d="m649.5 368.05h22.678" fill="none" stroke="#83caff" stroke-linejoin="round" stroke-miterlimit="10" stroke-width="2.2676"/><path d="m657.84 371.03 3.005-5.981 2.976 5.981z" fill="#83caff" fill-rule="evenodd"/><path d="m657.84 371.03 3.005-5.981 2.976 5.981z" fill="none" stroke="#83caff" stroke-linejoin="round" stroke-miterlimit="10" stroke-width=".75"/></g><g transform="matrix(1.3333 0 0 -1.3333 -137.73 1030)"><path d="m141.53 353.93h22.677" fill="none" stroke="#314004" stroke-linejoin="round" stroke-miterlimit="10" stroke-width="2.2676"/><path d="m149.87 350.93h5.981l-2.977 5.981z" fill="#314004" fill-rule="evenodd"/><path d="m149.87 350.93h5.981l-2.977 5.981z" fill="none" stroke="#314004" stroke-linejoin="round" stroke-miterlimit="10" stroke-width=".75"/></g><g transform="matrix(1.3333 0 0 -1.3333 -119.73 1030)"><path d="m226.18 353.93h22.678" fill="none" stroke="#aecf00" stroke-linejoin="round" stroke-miterlimit="10" stroke-width="2.2676"/><path d="m234.51 356.91v-5.981l5.981 3.005z" fill="#aecf00" fill-rule="evenodd"/><path d="m234.51 356.91v-5.981l5.981 3.005z" fill="none" stroke="#aecf00" stroke-linejoin="round" stroke-miterlimit="10" stroke-width=".75"/></g><g transform="matrix(1.3333 0 0 -1.3333 -101.73 1030)"><path d="m331.82 353.93h22.677" fill="none" stroke="#4b1f6f" stroke-linejoin="round" stroke-miterlimit="10" stroke-width="2.2676"/><path d="m340.16 353.93 5.982-3.005v5.981z" fill="#4b1f6f" fill-rule="evenodd"/><path d="m340.16 353.93 5.982-3.005v5.981z" fill="none" stroke="#4b1f6f" stroke-linejoin="round" stroke-miterlimit="10" stroke-width=".75"/></g><g transform="matrix(1.3333 0 0 -1.3333 -83.726 1030)"><path d="m432.23 353.93h22.649" fill="none" stroke="#ff950e" stroke-linejoin="round" stroke-miterlimit="10" stroke-width="2.2676"/><path d="m440.56 356.91v-5.981l5.952 5.981v-5.981z" fill="#ff950e" fill-rule="evenodd"/><path d="m440.56 356.91v-5.981l5.952 5.981v-5.981z" fill="none" stroke="#ff950e" stroke-linejoin="round" stroke-miterlimit="10" stroke-width=".75"/></g><g transform="matrix(1.3333 0 0 -1.3333 -65.726 1030)"><path d="m557.35 353.93h22.677" fill="none" stroke="#c5000b" stroke-linejoin="round" stroke-miterlimit="10" stroke-width="2.2676"/><path d="m565.68 350.93h5.981l-5.981 5.981h5.981z" fill="#c5000b" fill-rule="evenodd"/><path d="m565.68 350.93h5.981l-5.981 5.981h5.981z" fill="none" stroke="#c5000b" stroke-linejoin="round" stroke-miterlimit="10" stroke-width=".75"/></g><g transform="matrix(1.3333 0 0 -1.3333 -47.726 1030)"><path d="m649.5 353.93h22.678" fill="none" stroke="#0084d1" stroke-linejoin="round" stroke-miterlimit="10" stroke-width="2.2676"/><path d="m663.817 353.933v.142.113l-.028.142-.028.113-.029.142-.028.113-.028.142-.029.114-.056.113-.057.142-.057.113-.057.113-.085.114-.056.113-.085.085-.085.114-.085.085-.085.113-.085.085-.114.085-.085.085-.113.057-.114.085-.113.057-.113.085-.114.056-.113.029-.114.056-.141.057-.114.028-.141.029-.114.028-.142.028h-.113-.142-.113-.142-.142-.113l-.142-.028-.113-.028-.142-.029-.113-.028-.142-.057-.113-.056-.114-.029-.113-.056-.113-.085-.114-.057-.113-.085-.114-.057-.085-.085-.113-.085-.085-.085-.085-.113-.085-.085-.085-.114-.085-.085-.057-.113-.085-.114-.057-.113-.056-.113-.057-.142-.057-.113-.028-.114-.028-.142-.029-.113-.028-.142-.028-.113-.029-.142v-.113-.142-.142-.113l.029-.142.028-.113.028-.142.029-.113.028-.142.028-.113.057-.114.057-.141.056-.114.057-.113.085-.114.057-.113.085-.085.085-.113.085-.086.085-.113.085-.085.113-.085.085-.085.114-.057.113-.085.114-.056.113-.085.113-.057.114-.029.113-.056.142-.057.113-.028.142-.029.113-.028.142-.028h.113.142l.142-.029.113.029h.142.113l.142.028.114.028.141.029.114.028.141.057.114.056.113.029.114.057.113.085.113.056.114.085.113.057.085.085.114.085.085.085.085.113.085.086.085.113.085.085.056.113.085.114.057.113.057.114.057.141.056.114.029.113.028.142.028.113.029.142.028.113.028.142v.113z" fill="#0084d1" fill-rule="evenodd"/><path d="m663.817 353.933v.142.113l-.028.142-.028.113-.029.142-.028.113-.028.142-.029.114-.056.113-.057.142-.057.113-.057.113-.085.114-.056.113-.085.085-.085.114-.085.085-.085.113-.085.085-.114.085-.085.085-.113.057-.114.085-.113.057-.113.085-.114.056-.113.029-.114.056-.141.057-.114.028-.141.029-.114.028-.142.028h-.113-.142-.113-.142-.142-.113l-.142-.028-.113-.028-.142-.029-.113-.028-.142-.057-.113-.056-.114-.029-.113-.056-.113-.085-.114-.057-.113-.085-.114-.057-.085-.085-.113-.085-.085-.085-.085-.113-.085-.085-.085-.114-.085-.085-.057-.113-.085-.114-.057-.113-.056-.113-.057-.142-.057-.113-.028-.114-.028-.142-.029-.113-.028-.142-.028-.113-.029-.142v-.113-.142-.142-.113l.029-.142.028-.113.028-.142.029-.113.028-.142.028-.113.057-.114.057-.141.056-.114.057-.113.085-.114.057-.113.085-.085.085-.113.085-.086.085-.113.085-.085.113-.085.085-.085.114-.057.113-.085.114-.056.113-.085.113-.057.114-.029.113-.056.142-.057.113-.028.142-.029.113-.028.142-.028h.113.142l.142-.029.113.029h.142.113l.142.028.114.028.141.029.114.028.141.057.114.056.113.029.114.057.113.085.113.056.114.085.113.057.085.085.114.085.085.085.085.113.085.086.085.113.085.085.056.113.085.114.057.113.057.114.057.141.056.114.029.113.028.142.028.113.029.142.028.113.028.142v.113z" fill="none" stroke="#0084d1" stroke-linejoin="round" stroke-miterlimit="10" stroke-width=".75"/></g><g transform="matrix(1.3333 0 0 -1.3333 -137.73 1030)"><path d="m141.53 339.82h22.677" fill="none" stroke="#004586" stroke-linejoin="round" stroke-miterlimit="10" stroke-width="2.2676"/><path d="m152.872 342.793.596-2.381 2.381-.595-2.381-.596-.596-2.409-.623 2.409-2.381.596 2.381.595z" fill="#004586" fill-rule="evenodd"/><path d="m152.872 342.793.596-2.381 2.381-.595-2.381-.596-.596-2.409-.623 2.409-2.381.596 2.381.595z" fill="none" stroke="#004586" stroke-linejoin="round" stroke-miterlimit="10" stroke-width=".75"/></g><g transform="matrix(1.3333 0 0 -1.3333 -119.73 1030)"><path d="m226.18 339.82h22.678" fill="none" stroke="#ff420e" stroke-linejoin="round" stroke-miterlimit="10" stroke-width="2.2676"/><path d="m237.515 340.157-2.665 2.636-.34-.312 2.665-2.664-2.665-2.665.34-.34 2.665 2.664 2.636-2.664.34.34-2.664 2.665 2.664 2.664-.34.312z" fill="#ff420e" fill-rule="evenodd"/><path d="m237.515 340.157-2.665 2.636-.34-.312 2.665-2.664-2.665-2.665.34-.34 2.665 2.664 2.636-2.664.34.34-2.664 2.665 2.664 2.664-.34.312z" fill="none" stroke="#ff420e" stroke-linejoin="round" stroke-miterlimit="10" stroke-width=".75"/></g><g transform="matrix(1.3333 0 0 -1.3333 -101.73 1030)"><path d="m331.82 339.82h22.677" fill="none" stroke="#ffd320" stroke-linejoin="round" stroke-miterlimit="10" stroke-width="2.2676"/><path d="m342.907 342.793v-2.75h-2.75v-.453h2.75v-2.778h.482v2.778h2.75v.453h-2.75v2.75z" fill="#ffd320" fill-rule="evenodd"/><path d="m342.907 342.793v-2.75h-2.75v-.453h2.75v-2.778h.482v2.778h2.75v.453h-2.75v2.75z" fill="none" stroke="#ffd320" stroke-linejoin="round" stroke-miterlimit="10" stroke-width=".75"/></g><g transform="matrix(1.3333 0 0 -1.3333 -83.726 1030)"><path d="m432.23 339.82h22.649" fill="none" stroke="#579d1c" stroke-linejoin="round" stroke-miterlimit="10" stroke-width="2.2676"/><path d="m443.282 342.793v-2.58l-2.495 1.474-.226-.425 2.494-1.445-2.494-1.446.226-.425 2.495 1.474v-2.608h.482v2.608l2.523-1.474.226.425-2.522 1.446 2.522 1.445-.226.425-2.523-1.474v2.58z" fill="#579d1c" fill-rule="evenodd"/><path d="m443.282 342.793v-2.58l-2.495 1.474-.226-.425 2.494-1.445-2.494-1.446.226-.425 2.495 1.474v-2.608h.482v2.608l2.523-1.474.226.425-2.522 1.446 2.522 1.445-.226.425-2.523-1.474v2.58z" fill="none" stroke="#579d1c" stroke-linejoin="round" stroke-miterlimit="10" stroke-width=".75"/></g><g transform="matrix(1.3333 0 0 -1.3333 -65.726 1030)"><path d="m557.35 339.82h22.677" fill="none" stroke="#7e0021" stroke-linejoin="round" stroke-miterlimit="10" stroke-width="2.2676"/><path d="m565.68 340.41h5.981v-1.191h-5.981z" fill="#7e0021" fill-rule="evenodd"/><path d="m565.68 340.41h5.981v-1.191h-5.981z" fill="none" stroke="#7e0021" stroke-linejoin="round" stroke-miterlimit="10" stroke-width=".75"/></g><g transform="matrix(1.3333 0 0 -1.3333 -47.726 1030)"><path d="m649.5 339.82h22.678" fill="none" stroke="#83caff" stroke-linejoin="round" stroke-miterlimit="10" stroke-width="2.2676"/><path d="m660.22 342.79h1.219v-5.981h-1.219z" fill="#83caff" fill-rule="evenodd"/><path d="m660.22 342.79h1.219v-5.981h-1.219z" fill="none" stroke="#83caff" stroke-linejoin="round" stroke-miterlimit="10" stroke-width=".75"/></g><g font-family="DejaVu Sans" stroke-width="1.3334"><g transform="scale(1 .99996)"><g font-size="13.342"><text x="88.997475" y="506.15051"><tspan font-family="'DejaVu Sans'" stroke-width="1.7778" x="88.997475" y="506.15051">PostgreSQL</tspan></text><text x="219.84926" y="506.15051"><tspan font-family="'DejaVu Sans'" stroke-width="1.7778" x="219.84926" y="506.15051">MySQL</tspan></text><text x="378.7063" y="506.15051"><tspan font-family="'DejaVu Sans'" stroke-width="1.7778" x="378.7063" y="506.15051">SQLite</tspan></text><text x="530.57257" y="506.15051"><tspan font-family="'DejaVu Sans'" stroke-width="1.7778" x="530.57257" y="506.15051">Microsoft SQL Server</tspan></text><text x="715.43298" y="506.15051"><tspan font-family="'DejaVu Sans'" stroke-width="1.7778" x="715.43298" y="506.15051">MongoDB</tspan></text></g><text font-size="16" x="892.66034" y="457.71875"><tspan font-family="'DejaVu Sans'" font-size="16" stroke-width="1.7778" x="892.66034" y="457.71875">Jahr</tspan></text></g><text font-size="16" transform="matrix(0 -1 .99996 0 0 0)" x="-70.747055" y="19.885956"><tspan font-family="'DejaVu Sans'" font-size="16" stroke-width="1.7778" x="-70.747055" y="19.885956">Rang</tspan></text><g font-size="13.342" transform="scale(1 .99996)"><text x="856.30096" y="506.15051"><tspan font-family="'DejaVu Sans'" stroke-width="1.7778" x="856.30096" y="506.15051">Redis</tspan></text><text x="88.997475" y="524.97101"><tspan font-family="'DejaVu Sans'" stroke-width="1.7778" x="88.997475" y="524.97101">MariaDB</tspan></text><text x="219.84926" y="524.97101"><tspan font-family="'DejaVu Sans'" stroke-width="1.7778" x="219.84926" y="524.97101">Elasticsearch</tspan></text><text x="378.7063" y="524.97101"><tspan font-family="'DejaVu Sans'" stroke-width="1.7778" x="378.7063" y="524.97101">Oracle</tspan></text><text x="530.57257" y="524.97101"><tspan font-family="'DejaVu Sans'" stroke-width="1.7778" x="530.57257" y="524.97101">Amazon DynamoDB</tspan></text><text x="715.43298" y="524.97101"><tspan font-family="'DejaVu Sans'" stroke-width="1.7778" x="715.43298" y="524.97101">Firebase</tspan></text><text x="856.30096" y="524.97101"><tspan font-family="'DejaVu Sans'" stroke-width="1.7778" x="856.30096" y="524.97101">Cloud Firestore</tspan></text><text x="88.997475" y="543.79285"><tspan font-family="'DejaVu Sans'" stroke-width="1.7778" x="88.997475" y="543.79285">BigQuery</tspan></text><text x="219.84926" y="543.79285"><tspan font-family="'DejaVu Sans'" stroke-width="1.7778" x="219.84926" y="543.79285">Microsoft Access</tspan></text><text x="378.7063" y="543.79285"><tspan font-family="'DejaVu Sans'" stroke-width="1.7778" x="378.7063" y="543.79285">Supabase</tspan></text><text x="530.57257" y="543.79285"><tspan font-family="'DejaVu Sans'" stroke-width="1.7778" x="530.57257" y="543.79285">H2</tspan></text><text x="715.43298" y="543.79285"><tspan font-family="'DejaVu Sans'" stroke-width="1.7778" x="715.43298" y="543.79285">Cosmos DB</tspan></text><text x="856.30096" y="543.79285"><tspan font-family="'DejaVu Sans'" stroke-width="1.7778" x="856.30096" y="543.79285">Snowflake</tspan></text><text x="88.997475" y="562.61469"><tspan font-family="'DejaVu Sans'" stroke-width="1.7778" x="88.997475" y="562.61469">InfluxDB</tspan></text><text x="219.84926" y="562.61469"><tspan font-family="'DejaVu Sans'" stroke-width="1.7778" x="219.84926" y="562.61469">Cassandra</tspan></text><text x="378.7063" y="562.61469"><tspan font-family="'DejaVu Sans'" stroke-width="1.7778" x="378.7063" y="562.61469">Databricks SQL</tspan></text><text x="530.57257" y="562.61469"><tspan font-family="'DejaVu Sans'" stroke-width="1.7778" x="530.57257" y="562.61469">Neo4J</tspan></text><text x="715.43298" y="562.61469"><tspan font-family="'DejaVu Sans'" stroke-width="1.7778" x="715.43298" y="562.61469">IBM DB2</tspan></text><text x="856.30096" y="562.61469"><tspan font-family="'DejaVu Sans'" stroke-width="1.7778" x="856.30096" y="562.61469">Clickhouse</tspan></text><text x="88.997475" y="581.43518"><tspan font-family="'DejaVu Sans'" stroke-width="1.7778" x="88.997475" y="581.43518">Solr</tspan></text><text x="219.84926" y="581.43518"><tspan font-family="'DejaVu Sans'" stroke-width="1.7778" x="219.84926" y="581.43518">DuckDB</tspan></text><text x="378.7063" y="581.43518"><tspan font-family="'DejaVu Sans'" stroke-width="1.7778" x="378.7063" y="581.43518">Firebird</tspan></text><text x="530.57257" y="581.43518"><tspan font-family="'DejaVu Sans'" stroke-width="1.7778" x="530.57257" y="581.43518">Couch DB</tspan></text><text x="715.43298" y="581.43518"><tspan font-family="'DejaVu Sans'" stroke-width="1.7778" x="715.43298" y="581.43518">CockroachDB</tspan></text><text x="856.30096" y="581.43518"><tspan font-family="'DejaVu Sans'" stroke-width="1.7778" x="856.30096" y="581.43518">Couchbase</tspan></text></g></g><g fill="none" stroke-linejoin="round" stroke-miterlimit="10"><path d="m800.05 535.12h-710.39" stroke="#000" stroke-linecap="round" stroke-width=".99702" transform="matrix(1.3413 0 0 -1.3333 -97.503 857.25)"/><path d="m800.05 535.12h-710.39" stroke="#000" stroke-linecap="round" stroke-width=".99702" transform="matrix(1.3413 0 0 -1.3333 -97.503 1093)"/><g transform="matrix(1.3333 0 0 -1.3333 -91.119 1006.8)"><path d="m800.05 620.5h-50.74v-20.806h-304.47v47.622h-202.93v37.786h-152.25" stroke="#579d1c" stroke-width="2.2676"/><g stroke="#ff420e"><path d="m800.05 685.1h-152.22v64.601h-558.17" stroke-width="2.2676"/><path d="m86.117 749.71 3.543-3.543 3.543 3.543-3.543 3.544z" stroke-width=".75"/></g></g></g><g transform="matrix(1.3333 0 0 -1.3333 -91.119 1006.8)"><path d="m86.117 749.71 3.543-3.543 3.543 3.543-3.543 3.544z" fill="#ff420e" fill-rule="evenodd"/><path d="m86.117 681.56h7.086l-3.543 7.087z" fill="#579d1c" fill-rule="evenodd"/><path d="m86.117 681.56h7.086l-3.543 7.087z" fill="none" stroke="#579d1c" stroke-linejoin="round" stroke-miterlimit="10" stroke-width=".75"/><path d="m86.117 650.86 3.543-7.086 3.543 7.086z" fill="#ffd320" fill-rule="evenodd"/><path d="m86.117 650.86 3.543-7.086 3.543 7.086z" fill="none" stroke="#ffd320" stroke-linejoin="round" stroke-miterlimit="10" stroke-width=".75"/><path d="m800.05 647.32h-355.21v-26.816h-202.93v-20.806h-101.48v47.622h-50.768" fill="none" stroke="#ffd320" stroke-linejoin="round" stroke-miterlimit="10" stroke-width="2.2676"/><path d="m86.117 624.05v-7.086h7.086v7.086z" fill="#004586" fill-rule="evenodd"/><path d="m86.117 624.05v-7.086h7.086v7.086z" fill="none" stroke="#004586" stroke-linejoin="round" stroke-miterlimit="10" stroke-width=".75"/></g><g font-family="'DejaVu Sans'" font-size="12" stroke-linecap="round" stroke-linejoin="round" stroke-width="4"><text fill="#fff" stroke="#fff" x="269.8118" y="421.07361"><tspan style="fill:#fff;font-family:DejaVu Sans;stroke:#fff;stroke-linecap:round;stroke-linejoin:round;stroke-width:4" x="269.8118" y="421.07361">https://survey.stackoverflow.co/2017 ... https://survey.stackoverflow.co/2024</tspan></text><text x="269.8118" y="421.07361"><tspan font-family="'DejaVu Sans'" stroke-linecap="round" stroke-linejoin="round" stroke-width="4" x="269.8118" y="421.07361">https://survey.stackoverflow.co/2017 ... https://survey.stackoverflow.co/2024</tspan></text></g></svg>