<svg height="48pt" viewBox="0 0 105 48" width="105pt" xmlns="http://www.w3.org/2000/svg"><path d="m23.253 36.014c-.02011-.25467-.0321-.42016-.0321-.42016s-.77223-5.2062-1.6915-6.7598c-.14542-.24628.01584-1.2578.42168-2.7559.23724.41024 1.2388 2.165 1.4399 2.7304.22648.63927.27411.82243.27411.82243s-.54928-2.8262-1.4506-4.4754c.19756-.66675.43356-1.4037.70062-2.1915.34149.59902 1.1589 2.0493 1.3388 2.5523.03634.10336.06703.1912.09454.27164.0088-.04833.01764-.09666.02646-.14499-.20638-.8756-.61172-2.3992-1.1666-3.525 1.2312-6.4082 5.4303-14.974 9.7353-18.795h-28.083c-1.8821 0-3.4221 1.5402-3.4221 3.4223v30.97c0 1.882 1.5399 3.4219 3.4221 3.4219h18.496c-.13335-1.6144-.1778-3.4005-.10372-5.1231" fill="#0f80cc"/><g fill="#003b57"><path d="m43.989 23.869h.47484v3.955h-.50306c-.115-1.0932-.51047-1.9466-1.1864-2.5604-.67663-.61278-1.5268-.92004-2.5527-.92004-.91158 0-1.6446.23036-2.2006.69039-.55598.45967-.83397 1.0735-.83397 1.8408 0 .7094.23001 1.3565.69039 1.9409.45967.58526 1.4573 1.3371 2.9916 2.2589 1.7829 1.064 2.9813 1.9929 3.5948 2.7894.61348.79555.92004 1.7064.92004 2.7322 0 1.3229-.46813 2.4543-1.4058 3.3937-.93909.93983-2.069 1.4094-3.3895 1.4094-.76623 0-1.7424-.21096-2.9295-.63334-.48789-.17237-.79939-.25781-.9331-.25781-.27799 0-.49283.21523-.64629.64699h-.50341v-4.559h.50341c.0092 1.2562.41875 2.2628 1.2273 3.0205.80857.75667 1.7533 1.1352 2.8342 1.1352 1.0248 0 1.8443-.27231 2.4624-.81979.61701-.54723.92569-1.2761.92569-2.1881 0-.68114-.254-1.3334-.76094-1.9568-.50659-.62396-1.5674-1.4276-3.1803-2.4123-1.3144-.81276-2.1922-1.4524-2.6328-1.923-.44062-.47018-.76623-.98559-.97684-1.5473-.21061-.56056-.31609-1.1775-.31609-1.8485 0-1.2947.42474-2.3453 1.2732-3.1514.84843-.80539 1.9533-1.2083 3.3143-1.2083.74789 0 1.5632.14852 2.4451.44556.41169.13441.69956.20144.86219.20144.13511 0 .22578-.02858.27305-.08608.04868-.05786.1016-.18697.15875-.38841"/><path d="m63.203 32.67c0-2.5795-.59019-4.6115-1.7695-6.0978-1.1797-1.4858-2.7037-2.2288-4.5741-2.2288-1.9844 0-3.568.74612-4.7519 2.236-1.1846 1.4914-1.7755 3.4828-1.7755 5.9756 0 2.4258.58702 4.3989 1.7611 5.9183 1.1751 1.5194 2.7062 2.2786 4.5946 2.2786 1.9657 0 3.5426-.73562 4.7311-2.2073 1.1885-1.4722 1.7844-3.4301 1.7844-5.8745zm2.9326 12.972.18662.46041c-.82409.37402-1.7586.56085-2.8035.56085-.86289 0-1.664-.11314-2.4021-.33789-.73731-.22571-1.4312-.57051-2.0775-1.0357-.647-.46496-1.4362-1.2394-2.3661-2.322-.82515-.95928-1.4577-1.5544-1.8983-1.784-1.9272-.39232-3.5825-1.4097-4.9685-3.0481-1.3854-1.6393-2.0782-3.5097-2.0782-5.6092 0-1.5627.39794-3.0339 1.1934-4.4146.79587-1.3808 1.8747-2.4617 3.2371-3.2424 1.3603-.78211 2.8706-1.1726 4.529-1.1726 2.5601 0 4.717.85125 6.4721 2.5526 1.7537 1.7012 2.6307 3.7942 2.6307 6.277 0 2.091-.67522 3.9519-2.0271 5.5867-1.3522 1.6355-3.0829 2.6588-5.1915 3.0705.20179.16151.56233.5697 1.0795 1.2223 1.1003 1.362 2.0207 2.286 2.7584 2.77.73871.48274 1.4721.72542 2.2013.72542.53728 0 1.0463-.0868 1.5247-.25937"/><path d="m78.526377 38.400634-.28116 2.694482h-11.00385l.0233-.53619c.59654-.061 1.01458-.21413 1.25835-.45861.24342-.24624.36654-.81111.37571-1.699682l.0127-11.904593c-.004-.621877-.0346-1.050502-.0861-1.284393-.13828-.653698-.75565-.980017-1.85984-.980017l-.0236-.535164h5.74393l.0219.535164c-.61242.04163-1.03152.206728-1.26612.496711-.23212.291042-.34713.880533-.34678 1.767699l-.0441 12.029053c.002.204646.0191.391901.0572.565538.1845.877674.88053 1.315474 2.08774 1.315474h1.03681c1.34161 0 2.27259-.15088 2.79788-.45226.52388-.29919.8569-.818023 1.00048-1.553212h.49565"/><path d="m82.175157 26.903252c.25965 0 .49883.09095.71967.273685.21837.182034.36054.407071.41522.674829.0533.25975.009.48507-.133.676769-.14217.191523-.34114.28702-.60078.28702-.26846 0-.51858-.0955-.75001-.28702-.23283-.191699-.37535-.417019-.42827-.676769-.0547-.267758-.0106-.492795.14605-.674829.15311-.182738.36266-.273685.63112-.273685zm1.75754 4.127783-.0176 7.535404c.003.526662.03.900957.0769 1.122117.0607.30688.19685.5147.40111.6248.20778.11081.67133.1662 1.39065.1662l.0166.50299h-5.17702l.0123-.50299c.70979 0 1.14582-.0656 1.31198-.1947.16475-.12887.24941-.56307.25859-1.301433l.0325-5.335094c-.006-.291042-.0243-.518548-.0586-.683613-.1016-.493219-.42686-.740587-.97367-.740587l-1.12324.143616-.005-.589527 3.26319-.747183h.59161"/><path d="m92.617 31.289.0247.80507h-2.7054l-.0194 6.729c0 .18341.0109.34106.0423.47611.11465.55605.41945.83467.90946.83467.79728 0 1.7071-.52239 2.7397-1.5676l.43427.36615c-1.4302 1.5872-2.7968 2.3801-4.1003 2.3801-.901 0-1.4383-.41229-1.6129-1.2368-.072-.34438-.10795-1.0256-.11077-2.0418l.037-5.9398h-1.7695l-.0205-.50271c1.5184-.1531 2.5047-1.107 2.9609-2.8618h.51752l-.005 2.5594h2.6776"/><path d="m96.748 36.121c2.83-.54642 4.0943-1.5278 3.7991-2.9464-.0603-.28882-.24483-.55245-.54716-.79153-.30656-.23992-.61418-.35998-.92921-.35998-.71932 0-1.3081.42446-1.7618 1.2725-.4572.84885-.6417 1.791-.56091 2.8254zm-.0162.53344c.024.24871.0575.48394.10442.70418.36089 1.7254 1.3328 2.5884 2.914 2.5884 1.1501 0 2.6726-.69441 3.4283-2.0847l.38312.39522c-.47378 1.0717-.9899 1.8485-1.5466 2.3315-.55527.48327-1.8768.72414-2.8243.72414-1.0178 0-1.8616-.28497-2.5326-.85548-.67204-.57076-1.1141-1.3783-1.3346-2.4231-.37465-1.7838-.0843-3.405.86854-4.8683.95779-1.4609 2.1914-2.1933 3.7059-2.1933.59584 0 1.6651.15212 2.0757.45364.40535.30166.66393.70707.77118 1.2146.18027.85411-.78352 1.6609-1.7448 2.4237-.96203.76232-2.3873 1.2918-4.2683 1.5896"/><path d="m39.494 2.3093c-1.9233-1.7152-4.252-1.0262-6.5504 1.0135-.34114.30304-.68157.63923-1.0202.99836-3.9317 4.1709-7.5812 11.897-8.715 17.797.44168.8957.7867 2.0387 1.0139 2.9118.05821.22401.11077.43427.15275.61313.09984.4233.15346.69779.15346.69779s-.03528-.13338-.17992-.5528c-.02752-.08043-.05821-.16828-.09454-.27164-.01552-.04269-.03704-.09454-.06068-.14993-.25647-.59619-.96591-1.8546-1.2781-2.4024-.26705.78775-.50306 1.5247-.70062 2.1915.90135 1.6492 1.4506 4.4754 1.4506 4.4754s-.04762-.18316-.27411-.82243c-.20108-.5654-1.2026-2.3202-1.4399-2.7304-.40584 1.4982-.56709 2.5097-.42168 2.7559.28233.4772.55122 1.3006.78733 2.2112.5334 2.0514.90417 4.5486.90417 4.5486s.01199.16549.0321.42016c-.07408 1.7227-.02963 3.5088.10372 5.1231.17674 2.1371.50941 3.9729.93345 4.9554l.28787-.15695c-.62265-1.9357-.87559-4.4726-.76482-7.3981.16757-4.4718 1.1966-9.8647 3.0981-15.486 3.2124-8.485 7.6694-15.293 11.749-18.544-3.7179 3.3577-8.7499 14.226-10.256 18.251-1.6866 4.5071-2.8818 8.7366-3.6022 12.789 1.2428-3.799 5.2613-5.4319 5.2613-5.4319s1.971-2.4307 4.2743-5.9035c-1.3797.31468-3.6453.85337-4.4041 1.1723-1.1194.46955-1.421.62971-1.421.62971s3.6258-2.208 6.7366-3.2078c4.2781-6.7381 8.939-16.31 4.2453-20.497"/></g></svg>