<svg height="150pt" viewBox="0 0 173 150" width="173pt" xmlns="http://www.w3.org/2000/svg"><g transform="matrix(1.3333333 0 0 1.3333333 -311.92666 -527.05199)"><g fill="#242265"><text font-family="Noto Sans" font-size="8.235" font-weight="bold" x="291.56003" y="504.68881"><tspan x="291.56003 296.24573 300.85733" y="504.68881">yEd</tspan></text><text x="239.10002" y="521.9823"><tspan x="239.10002" y="521.9823"/></text><text x="335.63617" y="521.9823"><tspan x="335.63617" y="521.9823"/></text></g><path d="m233.945 395.293h128l.098 21.367c.062 14.211-7.457 27.375-19.723 34.543l-24.164 14.102c-12.269 7.168-27.433 7.238-39.773.187l-24.293-13.871c-12.34-7.047-19.981-20.141-20.043-34.351" fill="#c0fc1a" transform="translate(.824002 1.123803)"/><path d="m365.035 452.2758-13.563 7.852m16.141-65.832v15.664m-2.578-17.172-13.563 7.856m-17.171-8.727 15.109 8.727m1.031 1.781v17.453m-1.031 1.781-15.109 8.727m17.171-8.727 15.11 8.727m-34.344-38.469-15.109 8.727m-55.125-7.856-13.567 7.856m16.145-6.348v15.664m68.687-17.449v17.449m-34.343-18.637v18.637m14.593 12.574-13.562 7.852m18.719-7.852 13.562 7.852m-16.141-6.348v15.668m-34.343-37.281v15.668m-2.578 4.441-13.563 7.852m16.141-6.348v15.668m-48.942-46.918 13.563 7.856m51.519 11.101-13.566 7.852m-18.715-7.852 13.563 7.852" fill="#242265"/><path d="m264.44525 396.4162v1.63477h.27356v-1.63477zm34.34436 0v1.63477h.27246v-1.63477zm34.34326 0v1.63477h.27136v-1.63477zm-94.05616.0011-.06701.11755 1.41174.81848.13733-.2362-1.2085-.69983zm16.38721 0-1.20849.69983.13733.2362 1.41174-.81848-.06812-.11755zm68.7096 0-1.2085.69763.13623.23621 1.41394-.81629-.06811-.11755zm17.9176 0-.06811.11755 1.41504.81629.13623-.23621-1.2085-.69763zm16.40589 0-1.2074.69983.13623.2362 1.41174-.81848-.06811-.11755zm-36.23951 1.10632-1.41394.81848.13733.23401 1.41394-.81628zm22.0243 0-.13733.23621 1.41394.81628.13733-.23401zm-103.01661.0033-.13623.2351 1.41174.81849.13733-.23511zm12.28382 0-1.41395.81848.13624.23511 1.41394-.81849zm103.03308 0-1.41394.81848.13623.23511 1.41394-.81849zm-36.44495 1.22278-1.41394.81628.13623.23511 1.41394-.81629zm26.26502 0-.13623.2351 1.41394.81629.13623-.23511zm-103.01771.00439-.13623.23621 1.41394.81848.13514-.23621zm8.04529 0-1.41394.81848.13623.23621 1.41394-.81848zm103.03309 0-1.41394.81848.13623.23621 1.41504-.81848zm-90.01758.11316v1.63257h.27356v-1.63257zm34.34436 0v1.63257h.27246v-1.63257zm34.34326 0v1.63257h.27136v-1.63257zm-85.72303.90637c-.4928 0-.92906.24631-1.19421.62073l-.71191-.41199-.13623.23401.71191.41309c-.08507.18521-.13184.39049-.13184.60644 0 .80364.65521 1.46558 1.46228 1.46558.80397 0 1.45899-.66194 1.45899-1.46558 0-.21646-.04763-.42198-.13294-.60754l.70972-.41199-.13733-.23621-.70971.41199c-.2648-.373-.69892-.61853-1.18873-.61853zm34.34437 0c-.80708 0-1.46558.65913-1.46558 1.46228 0 .75781.58519 1.38912 1.32825 1.45899v1.3634h.27356v-1.3634c.74017-.0699 1.32275-.70145 1.32275-1.45899 0-.80287-.65501-1.46228-1.45898-1.46228zm34.34326 0c-.80708 0-1.46228.65941-1.46228 1.46228 0 .80364.6552 1.46558 1.46228 1.46558.80475 0 1.45898-.66194 1.45898-1.46558 0-.2156-.04723-.42036-.13183-.60534l.72729-.41968-.13623-.23621-.72729.41968c-.26448-.37442-.69954-.62073-1.19092-.62073zm34.34436 0c-.49047 0-.92729.24475-1.19312.61853l-.72509-.41748-.13733.23621.72619.41748c-.08572.1856-.13403.39078-.13403.60754 0 .75859.58547 1.3892 1.32605 1.45899v1.3634h.27136v-1.3634c.74161-.06873 1.32825-.69939 1.32825-1.45899 0-.2167-.04841-.42202-.13403-.60754l.70862-.41199-.13733-.23401-.70752.40979c-.26585-.37362-.70167-.61853-1.19202-.61853zm-85.99658 1.54248v1.63367h.27356v-1.63367zm34.34436 0v1.63367h.27246v-1.63367zm34.34326 0v1.63367h.27136v-1.63367zm-68.68762 2.44995v1.63257h.27356v-1.63257zm34.34436 0v1.63257h.27246v-1.63257zm34.34326 0v1.63257h.27136v-1.63257zm-51.51599 1.10852v1.63367h.27356v-1.63367zm68.68762 0v1.63367h.27136v-1.63367zm-85.85925 1.34034v1.63256h.27356v-1.63256zm34.34436 0v1.63256h.27246v-1.63256zm34.34326 0v1.63256h.27136v-1.63256zm-51.51599 1.10962v1.63256h.27356v-1.63256zm68.68762 0v1.63256h.27136v-1.63256zm-85.85925 1.33923v1.03052c-.74349.06932-1.32825.6983-1.32825 1.45568 0 .80392.6585 1.46558 1.46557 1.46558.49059 0 .92515-.2462 1.18982-.62073l1.18653.68665.13513-.23621-1.18652-.68664c.0853-.1858.13403-.39197.13403-.60865 0-.75681-.58257-1.38591-1.32275-1.45568v-1.03052zm34.34436 0v1.03052c-.74177.06924-1.32825.69752-1.32825 1.45568 0 .21697.04817.42391.13403.60975l-1.18322.68554.13623.23401 1.18432-.68335c.26633.3736.70272.61963 1.19312.61963.80398 0 1.45898-.66193 1.45898-1.46558 0-.75681-.58257-1.38591-1.32275-1.45568v-1.03052zm34.34326 0v1.14477c-.56029.169-.97229.69001-.97229 1.30298 0 .74938.61507 1.36341 1.3634 1.36341.74908 0 1.36121-.61433 1.36121-1.36341 0-.74833-.61183-1.3612-1.36121-1.3612-.04011 0-.08047.00204-.11975.00549v-1.09204zm-51.51599 1.10962v1.63257h.27356v-1.63257zm68.68762 0v1.63257h.27136v-1.63257zm-68.68762 2.44885v1.63367h.27356v-1.63367zm68.68762 0v1.63367h.27136v-1.63367zm-82.50403.63171-.13623.23621 1.41394.81848.13623-.2373zm27.90418 0-1.41175.81739.13733.2373 1.41175-.81848zm-25.78272 1.22828-.13623.234 1.41174.81849.13623-.23401zm23.66455 0-1.41504.81628.13733.23621 1.41394-.81849zm-11.9696.58996v1.63257h.27356v-1.63257zm68.68762 0v1.63257h.27136v-1.63257zm-78.26331.63611-.13733.23621 1.41504.81848.13623-.23621zm19.42383 0-1.41174.81848.13623.23511 1.41174-.81848zm-17.30456 1.22717-.13733.23621 1.41394.81848.13733-.23621zm15.1853 0-1.41394.81848.13623.23401 1.41394-.81628zm-7.72888.58557v.70203c-1.10025.04587-2.06062.64014-2.61365 1.51611l-.60315-.34936-.13623.2362.60315.34937c-.23166.44601-.36255.95194-.36255 1.48865 0 .5375.13156 1.04425.36365 1.49084l-1.17224.67896.13403.2373 1.17444-.68005c.55314.87594 1.51273 1.47022 2.61255 1.51611v1.36231h.27356v-1.36231c1.72385-.072 3.10803-1.49723 3.10803-3.24316 0-.53625-.13154-1.04182-.36255-1.48755l.60645-.35156-.13733-.23511-.60535.35046c-.55227-.87645-1.51132-1.47139-2.60925-1.51721v-.70203zm68.68762 0v1.63477h.27136v-1.63477zm-63.078.64051-1.41394.81848.13623.2362 1.41284-.81848zm-10.94568.00219-.13623.23401 1.41174.81848.13733-.234zm39.81665.05603c-1.79057 0-3.24756 1.45326-3.24756 3.24427 0 .53715.132 1.04336.36365 1.48974l-1.17664.68006.13733.2373 1.17444-.68005c.55295.87623 1.51284 1.47057 2.61255 1.51611v1.36231h.27136v-1.36231c1.09937-.04522 2.05907-.64066 2.61145-1.51831l1.17774.68225.13623-.2373-1.17884-.68116c.23101-.44606.36255-.95201.36255-1.48864 0-1.79101-1.45643-3.24427-3.24426-3.24427zm34.20703 1.75232v.03955c-.73968.06935-1.32605.69461-1.32605 1.4524 0 .21697.04831.4239.13403.60974l-1.18432.68335.13623.2362 1.18542-.68444c.26587.374.70178.62072 1.19202.62072.49019 0 .92614-.24569 1.19202-.61963l1.18432.68335.13733-.2362-1.18542-.68445c.08546-.18561.13403-.39195.13403-.60864 0-.75886-.58746-1.38418-1.32825-1.4524v-.03955zm-3.08386 3.19373-1.41394.81628.13623.23621 1.41504-.81628zm6.44128 0-.13623.23621 1.41394.81628.13623-.23621zm-76.67358.87671-1.41394.81848.13623.23621 1.41394-.81849zm34.34216 0-1.41284.81848.13733.23621 1.41174-.81849zm9.53284 0-.13513.2362 1.41284.81849.13623-.23621zm34.92004.34717-.13733.2373 1.41504.81629.13623-.23511zm-10.6842.00219-1.41394.81629.13733.23511 1.41394-.81629zm-70.2323.87891-1.41175.81848.13623.23511 1.41285-.81848zm34.34436 0-1.41284.81848.13513.23511 1.41394-.81848zm13.77356 0-.13733.23511 1.41394.81848.13513-.23511zm19.99402.34607-1.41394.81628.13623.23621 1.41394-.81848zm14.92602 0-.13733.23401 1.41394.81848.13733-.23621zm-85.15723.8811-1.41394.81848.13733.23621 1.41394-.81848zm34.34437 0-1.41395.81848.13624.23621 1.41394-.81848zm18.01208 0-.13733.23621 1.41394.81848.13733-.23621zm15.7533.34388-1.41394.81628.13623.23621 1.41504-.81629zm19.16784 0-.13623.2362 1.41394.81629.13623-.23621zm-78.40832.04614v1.63257h.27356v-1.63257zm34.34436 0v1.63257h.27136v-1.63257zm-45.33179.83606-1.41504.81848.13733.2362 1.41174-.81848zm34.34107.00219-1.41175.81849.13623.234 1.41284-.81848zm22.2517 0-.13403.23401 1.41174.81848.13733-.234zm11.51368.33948-1.41394.81848.13733.23401 1.41394-.81628zm23.41076 0-.13732.23621.78991.45593.06812-.11755v-.15711zm-93.63867.8866-1.41174.81848.13623.23511 1.41174-.81848zm34.34326 0-1.41394.81848.13733.23621 1.41394-.81849zm26.49243 0-.13623.2362 1.41394.81849.13404-.23621zm7.27186.34058-1.41394.81628.13623.23621 1.41394-.81849zm-54.99866.04504v1.63257h.27356v-1.63257zm34.34436 0v1.63257h.27136v-1.63257zm17.56274.40979c-.58169 0-1.08338.36941-1.27771.8844l-.78332-.45264-.13623.23621.84375.48779.00659-.01208c-.0112.06963-.01648.1416-.01648.21423 0 .74938.61507 1.3623 1.3634 1.3623.74908 0 1.36121-.61322 1.36121-1.3623 0-.74607-.61213-1.35791-1.36121-1.35791zm-68.94141.17139c-.80597 0-1.46557.65583-1.46557 1.45898 0 .80703.6596 1.46558 1.46557 1.46558.80398 0 1.45899-.66194 1.45899-1.46558 0-.21611-.04889-.42044-.13403-.60535l.61743-.35705-.13623-.23621-.61743.35706c-.26494-.37258-.69904-.61743-1.18873-.61743zm34.34327 0c-.80365 0-1.46448.655-1.46448 1.45898 0 .80785.66083 1.46558 1.46448 1.46558.80398 0 1.45898-.66194 1.45898-1.46558 0-.21605-.04784-.42048-.13293-.60535l.61523-.35705-.13513-.23621-.61743.35706c-.26493-.37258-.69904-.61743-1.18872-.61743zm-17.30896 1.86767v1.63257h.27356v-1.63257zm34.34436 0v1.63257h.27136v-1.63257zm-34.34436 2.44885v1.63257h.27356v-1.63257zm34.34436 0v1.63257h.27136v-1.63257zm-34.34436 2.44996v1.63256h.27356v-1.63256zm34.34436 0v1.63256h.27136v-1.63256zm-34.34436 2.44885v.70532c-.74225.06944-1.32825.69679-1.32825 1.45679 0 .80393.6596 1.46118 1.46558 1.46118.80287 0 1.45898-.65753 1.45898-1.46118 0-.75975-.58339-1.38732-1.32275-1.45679v-.70532zm34.34436 0v.70532c-.74248.06904-1.32605.69673-1.32605 1.45679 0 .80365.6563 1.46118 1.46228 1.46118.80364 0 1.45898-.65753 1.45898-1.46118 0-.76042-.58298-1.38826-1.32385-1.45679v-.70532zm34.48059.69873c-.80287 0-1.46338.6563-1.46338 1.46338 0 .80476.66051 1.46118 1.46338 1.46118s1.46228-.65615 1.46228-1.46118c0-.80735-.65941-1.46338-1.46228-1.46338zm12.35742 13.979-1.41284.81848.13513.23621 1.34583-.77893v-.1582zm-2.11926 1.22827-1.41394.81849.13623.234 1.41394-.81848zm-2.12146 1.22718-1.41174.81848.13623.2362 1.41284-.81848zm-2.11926 1.22607-1.41394.81848.13733.23621 1.41394-.81848zm-2.11927 1.22827-1.41394.81848.13733.23401 1.41175-.81738zm-3.87817.93933c-.80287 0-1.46338.65773-1.46338 1.46558 0 .80398.66051 1.45898 1.46338 1.45898s1.46228-.65472 1.46228-1.45898c0-.21875-.04867-.4265-.13513-.61304l.56689-.32849-.13623-.2362-.56799.32849c-.26623-.37249-.70126-.61634-1.18982-.61634z" fill="#242265" stroke-dasharray="1.63301 .816504" stroke-miterlimit="10"/><g transform="translate(.824002 1.123803)"><path d="m274.191 461.121.047 10.367c.024 5.285 2.864 10.157 7.45 12.782l9.007 5.132c4.59 2.621 10.231 2.598 14.797-.066l8.957-5.234c4.574-2.653 7.375-7.547 7.348-12.832l-.047-10.368c-.031-5.273-2.871-10.125-7.449-12.734l-9.008-5.133c-4.59-2.621-10.231-2.597-14.797.067l-8.957 5.234c-4.57 2.652-7.375 7.547-7.348 12.836" fill="#fff"/><path d="m276.355 461.43.043 9.425c.02 4.805 2.602 9.235 6.774 11.618l8.187 4.668c4.172 2.382 9.301 2.359 13.45-.063l8.144-4.758c4.156-2.41 6.707-6.859 6.68-11.664l-.043-9.426c-.028-4.792-2.61-9.203-6.774-11.574l-8.187-4.668c-4.172-2.383-9.301-2.359-13.449.063l-8.145 4.758c-4.156 2.41-6.703 6.863-6.68 11.668" fill="#242265"/><g fill="#c0fc1a"><path d="m310.898 470.395c-1.57-.739-3.132.25-3.96 1.589-.383.7-.805 1.383-1.262 2.039-.539.68-1.199 1.254-1.953 1.684l-.063.039-.062.035c-.75.442-1.578.739-2.442.867-.801.106-1.601.047-2.402.075h-1.442c-.8-.028-1.597.031-2.398-.075-.863-.128-1.691-.425-2.441-.867l-.063-.035-.062-.039c-.75-.434-1.414-1.004-1.953-1.684-.465-.656-.895-1.339-1.286-2.039-.05-.074-.714-1.183-.714-1.183-.375-.711-.825-1.375-1.141-2.121-.324-.809-.488-1.676-.488-2.547-.008-.051-.008-.098 0-.149 0-.871.164-1.734.488-2.546.332-.727.762-1.411 1.141-2.118 0 0 1.05-1.769 1.152-1.953.383-.742.875-1.418 1.465-2.004.429-.367.894-.691 1.386-.976.497-.282 1.02-.516 1.559-.699.805-.231 1.641-.329 2.477-.297 1.535 0 3.32-.207 4.027-1.829.547-1.316-.031-2.832-1.32-3.449-1.571-.738-3.129.254-3.957 1.59-.426.68-.778 1.399-1.262 2.043-.543.68-1.203 1.25-1.953 1.684l-.067.035-.062.039c-.75.437-1.578.73-2.438.863-.8.106-1.597.051-2.402.074-.504.02-.996.121-1.465.305-.539.152-1.012.477-1.344.926-.406.555-.582 1.246-.492 1.926.141.886.465 1.73.949 2.48.442.703.77 1.469.973 2.27.117.558.176 1.129.176 1.703 0 .57-.059 1.14-.176 1.699-.203.805-.531 1.57-.973 2.27-.558.835-.894 1.796-.976 2.796v.059c-.008.551.156 1.094.473 1.547.359.484.878.832 1.464.973.723.203 1.477.296 2.227.273.832-.039 1.664.055 2.465.273.543.18 1.066.414 1.562.7.492.281.957.605 1.387.976.59.586 1.082 1.258 1.465 2 .449.91 1.129 1.684 1.973 2.25l.054.028c.129.074.266.132.406.183h.075c.25.074.507.113.769.117.278.02.555-.007.82-.074h.079c.14-.051.273-.109.406-.18l.055-.031c.836-.574 1.511-1.355 1.953-2.269.379-.739.875-1.411 1.461-2 .433-.368.898-.692 1.39-.973.496-.285 1.016-.52 1.559-.699.805-.223 1.637-.313 2.469-.274 1.539 0 3.328-.211 4.031-1.824.562-1.328-.02-2.859-1.324-3.473"/><path d="m311.078 461.566c1.25-.734 1.672-2.343.938-3.597-.735-1.25-2.344-1.672-3.598-.942-1.25.731-1.676 2.34-.949 3.594.73 1.254 2.336 1.684 3.593.957z"/></g></g></g></svg>