<svg height="276pt" viewBox="0 0 578 276" width="578pt" xmlns="http://www.w3.org/2000/svg"><path d="m424.74 707.91a3.8863 3.8863 0 0 1 -3.876-3.6958h-192.29a3.8863 3.8863 0 0 1 -3.5848 2.3873 3.8863 3.8863 0 0 1 -3.8859-3.887 3.8863 3.8863 0 0 1 .68005-2.1863l-35.141-35.566a3.8863 3.8863 0 0 1 -1.1492.18018 3.8863 3.8863 0 0 1 -3.887-3.887 3.8863 3.8863 0 0 1 .19336-1.1942l-36.053-36.489a3.8863 3.8863 0 0 1 -1.5161.30762 3.8863 3.8863 0 0 1 -3.8859-3.8859 3.8863 3.8863 0 0 1 3.8859-3.887 3.8863 3.8863 0 0 1 1.671.37903l36.694-35.668a3.8863 3.8863 0 0 1 -.63172-2.1193 3.8863 3.8863 0 0 1 3.887-3.8859 3.8863 3.8863 0 0 1 3.8122 3.1344l75.472-.02088a3.8863 3.8863 0 0 1 3.8079-3.1366 3.8863 3.8863 0 0 1 3.887 3.8859 3.8863 3.8863 0 0 1 -.67896 2.194l35.487 36.075a3.8863 3.8863 0 0 1 2.1379-.6449 3.8863 3.8863 0 0 1 3.7683 2.9443h24.497a3.8863 3.8863 0 0 1 3.8079-3.1366 3.8863 3.8863 0 0 1 .50757.03625l10.786-34.781a3.8863 3.8863 0 0 1 -2.0434-3.4146 3.8863 3.8863 0 0 1 3.887-3.8859 3.8863 3.8863 0 0 1 3.8859 3.8859 3.8863 3.8863 0 0 1 -3.8859 3.887 3.8863 3.8863 0 0 1 -.41418-.02307l-10.795 34.813a3.8863 3.8863 0 0 1 .43835.28894l77.833-78.186a3.8863 3.8863 0 0 1 -.44605-1.7985 3.8863 3.8863 0 0 1 3.887-3.8859 3.8863 3.8863 0 0 1 3.8859 3.8859 3.8863 3.8863 0 0 1 -.39661 1.7106l81.844 78.371a3.8863 3.8863 0 0 1 2.2313-.71191 3.8863 3.8863 0 0 1 3.8859 3.8859 3.8863 3.8863 0 0 1 -3.8859 3.887 3.8863 3.8863 0 0 1 -2.2412-.71851l-50.711 48.228a3.8863 3.8863 0 0 1 .55811 2.0061 3.8863 3.8863 0 0 1 -3.887 3.8859 3.8863 3.8863 0 0 1 -2.1665-.66577l-26.529 25.23a3.8863 3.8863 0 0 1 .54712 1.9863 3.8863 3.8863 0 0 1 -3.8859 3.8859zm-195.86-5.1954h192.21a3.8863 3.8863 0 0 1 1.0294-1.5469l-25.716-25.542a3.8863 3.8863 0 0 1 -2.2039.68555 3.8863 3.8863 0 0 1 -3.887-3.8859 3.8863 3.8863 0 0 1 .67456-2.1786l-47.198-46.881a3.8863 3.8863 0 0 1 -1.9314.51416 3.8863 3.8863 0 0 1 -3.8079-3.1366h-24.42a3.8863 3.8863 0 0 1 -3.8452 3.3289 3.8863 3.8863 0 0 1 -2.1775-.67346l-35.216 34.899a3.8863 3.8863 0 0 1 .65259 2.1478 3.8863 3.8863 0 0 1 -3.887 3.887 3.8863 3.8863 0 0 1 -2.1764-.67347l-38.266 37.922a3.8863 3.8863 0 0 1 .16919 1.1338zm198.2-1.7952 26.469-25.174a3.8863 3.8863 0 0 1 -.59326-1.4788l-26.714-.49548v26.668a3.8863 3.8863 0 0 1 .83826.48011zm-3.6442-.55371a3.8863 3.8863 0 0 1 1.3063-.22852v-26.394l-26.75-.49769a3.8863 3.8863 0 0 1 -.54602 1.3063zm-195.47-.15601 37.958-37.615a3.8863 3.8863 0 0 1 -.63171-1.7545l-35.862-11.129a3.8863 3.8863 0 0 1 -3.4134 2.0424 3.8863 3.8863 0 0 1 -3.3794-1.9797l-33.282 10.997a3.8863 3.8863 0 0 1 .03077.4845 3.8863 3.8863 0 0 1 -1.3711 2.9564l34.842 35.263a3.8863 3.8863 0 0 1 2.139-.646 3.8863 3.8863 0 0 1 2.9696 1.381zm225.02-27.444a3.8863 3.8863 0 0 1 .56579-1.3304l-25.876-25.697a3.8863 3.8863 0 0 1 -1.4282.59436v25.937zm-28.238-.52405v-25.913a3.8863 3.8863 0 0 1 -1.4842-.63611l-25.789 24.641a3.8863 3.8863 0 0 1 .54712 1.4128zm34.354-1.7721 50.682-48.2a3.8863 3.8863 0 0 1 -.5625-1.526h-79.911a3.8863 3.8863 0 0 1 -3.063 3.063v14.905a3.8863 3.8863 0 0 1 3.1366 3.8079 3.8863 3.8863 0 0 1 -.65369 2.1555l25.877 25.698a3.8863 3.8863 0 0 1 2.1742-.67126 3.8863 3.8863 0 0 1 2.3203.76794zm-62.667-1.2173 25.788-24.641a3.8863 3.8863 0 0 1 -.61194-2.0918 3.8863 3.8863 0 0 1 3.1366-3.8079v-14.91a3.8863 3.8863 0 0 1 -3.0586-3.0586h-34.83a3.8863 3.8863 0 0 1 -3.8134 3.1366 3.8863 3.8863 0 0 1 -3.809-3.1366h-33.565a3.8863 3.8863 0 0 1 -.74817 1.6381l47.129 46.809a3.8863 3.8863 0 0 1 2.1478-.65259 3.8863 3.8863 0 0 1 2.2346.71411zm-207.55-9.9053 33.28-10.996a3.8863 3.8863 0 0 1 -.03296-.48449 3.8863 3.8863 0 0 1 3.8859-3.8859 3.8863 3.8863 0 0 1 3.386 1.9775l38.936-12.866-.03077-12.349h-81.882l-.1593 36.703a3.8863 3.8863 0 0 1 2.618 1.9006zm76.559-.03076a3.8863 3.8863 0 0 1 2.9542-2.6774l-.05603-21.968-38.47 12.712a3.8863 3.8863 0 0 1 .03186.4834 3.8863 3.8863 0 0 1 -.02417.41418zm-82.869-.61084a3.8863 3.8863 0 0 1 2.1918-1.2601l.15931-36.702h-36.875a3.8863 3.8863 0 0 1 -1.0382 1.971zm88.759-1.4722 35.217-34.898a3.8863 3.8863 0 0 1 -.14611-.2417l-36.564 12.082.05603 22.462a3.8863 3.8863 0 0 1 1.437.59656zm-1.4963-24.637 35.87-11.853h-35.9zm-121.79-13.353h36.886l.1593-36.739a3.8863 3.8863 0 0 1 -1.4403-.61414l-36.528 35.508a3.8863 3.8863 0 0 1 .92395 1.8457zm38.385 0h81.871l-.09229-36.758a3.8863 3.8863 0 0 1 -3.0685-3.0597l-75.472.02197a3.8863 3.8863 0 0 1 -3.0795 3.0674zm83.371 0h36.213a3.8863 3.8863 0 0 1 .5614-1.247l-35.487-36.078a3.8863 3.8863 0 0 1 -1.3799.568zm75.863 0h33.57a3.8863 3.8863 0 0 1 3.809-3.1366 3.8863 3.8863 0 0 1 2.2445.7207l36.926-35.065a3.8863 3.8863 0 0 1 -.60535-2.0808 3.8863 3.8863 0 0 1 3.1366-3.8079v-35.135a3.8863 3.8863 0 0 1 -1.7446-.83386l-77.788 78.14a3.8863 3.8863 0 0 1 .45154 1.1986zm41.188 0h34.834a3.8863 3.8863 0 0 1 3.0586-3.0586v-32.694a3.8863 3.8863 0 0 1 -1.4941-.6438l-36.927 35.065a3.8863 3.8863 0 0 1 .52844 1.3316zm42.451 0h79.989a3.8863 3.8863 0 0 1 .49438-1.1514l-81.717-78.251a3.8863 3.8863 0 0 1 -1.8248.90197v35.125a3.8863 3.8863 0 0 1 3.1366 3.8134 3.8863 3.8863 0 0 1 -3.1366 3.8134v32.69a3.8863 3.8863 0 0 1 3.0586 3.0586z" stroke-linecap="round" stroke-linejoin="round" transform="matrix(1.3333 0 0 -1.3333 -114.72 969.38)"/><g font-family="Ubuntu" stroke-width=".75" transform="matrix(1.3333 0 0 1.3333 -116.18 968.14)"><text font-size="9" x="187.32701" y="-703.74719"><tspan font-family="Ubuntu" font-size="9" stroke-width=".75" x="187.32701" y="-703.74719">U. Utah</tspan></text><text font-size="10" x="250.07776" y="-717.3399"><tspan font-family="Ubuntu" font-size="10" font-weight="bold" stroke-width=".75" x="250.07776" y="-717.3399">ARPA Network Topology (example)</tspan></text><g font-size="9"><text x="435.77731" y="-703.17859"><tspan font-family="Ubuntu" font-size="9" stroke-width=".75" x="435.77731" y="-703.17859">Lincoln Lab</tspan></text><text x="464.06989" y="-674.5274"><tspan font-family="Ubuntu" font-size="9" stroke-width=".75" x="464.06989" y="-674.5274">Harvard U.</tspan></text><text x="345.61523" y="-675.08441"><tspan font-family="Ubuntu" font-size="9" stroke-width=".75" x="345.61523" y="-675.08441">Proj. MAC</tspan></text><text x="433.33026" y="-637.2854"><tspan font-family="Ubuntu" font-size="9" stroke-width=".75" x="433.33026" y="-637.2854">BBN</tspan></text><text x="433.33026" xml:space="preserve" y="-621.35992"><tspan font-family="Ubuntu" font-size="9" stroke-width=".75" x="433.33026" y="-621.35992">B.T.L. </tspan></text><text font-family="Ubuntu" font-size="9" stroke-width=".75" text-anchor="end" x="504.89233" y="-622.23541"><tspan x="504.89233" y="-622.23541">Dartmouth</tspan><tspan x="504.89233" y="-610.98541">College</tspan></text><text font-family="Ubuntu" font-size="9" stroke-width=".75" x="427.93216" xml:space="preserve" y="-595.97992"><tspan x="427.93216" y="-595.97992">Carnegie </tspan><tspan x="427.93216" y="-584.72992">Mellon U.</tspan></text><text x="367.81927" y="-626.1427"><tspan font-family="Ubuntu" font-size="9" stroke-width=".75" x="367.81927" y="-626.1427">Pentagon</tspan></text><text x="408.3454" xml:space="preserve" y="-521.72906"><tspan font-family="Ubuntu" font-size="9" stroke-width=".75" x="408.3454" y="-521.72906">U. Michigan </tspan></text><text font-family="Ubuntu" font-size="9" stroke-width=".75" text-anchor="end" x="348.91266" xml:space="preserve" y="-588.07416"><tspan x="348.91266" y="-588.07416">Washington </tspan><tspan x="348.91266" y="-579.07416">Univ.</tspan></text><text x="307.12869" y="-604.72821"><tspan font-family="Ubuntu" font-size="9" stroke-width=".75" x="307.12869" y="-604.72821">SDC</tspan></text><text x="278.17407" y="-661.21136"><tspan font-family="Ubuntu" font-size="9" stroke-width=".75" x="278.17407" y="-661.21136">UCLA</tspan></text><text font-family="Ubuntu" font-size="9" stroke-width=".75" x="194.08688" y="-633.76898"><tspan x="194.08688" y="-633.76898">UC Santa</tspan><tspan x="194.08688" y="-624.76898">Barbara</tspan></text><text x="165.4594" y="-661.78455"><tspan font-family="Ubuntu" font-size="9" stroke-width=".75" x="165.4594" y="-661.78455">SRI</tspan></text><text x="280.2334" y="-571.41412"><tspan font-family="Ubuntu" font-size="9" stroke-width=".75" x="280.2334" y="-571.41412">RAND</tspan></text><text x="131.69141" xml:space="preserve" y="-571.49512"><tspan font-family="Ubuntu" font-size="9" stroke-width=".75" x="131.69141" y="-571.49512">Stanford U. </tspan></text><text x="87.470032" y="-618.0354"><tspan font-family="Ubuntu" font-size="9" stroke-width=".75" x="87.470032" y="-618.0354">UC Berkeley</tspan></text><text font-family="Ubuntu" font-size="9" stroke-width=".75" x="316.31274" y="-637.01489"><tspan x="316.31274" y="-637.01489">Univ. of</tspan><tspan x="316.31274" y="-625.76489">Illinois</tspan></text></g></g></svg>