<svg height="134pt" viewBox="0 0 1047 134" width="1047pt" xmlns="http://www.w3.org/2000/svg" xmlns:xlink="http://www.w3.org/1999/xlink"><linearGradient id="a" x2="0" y2="1"><stop offset="0" stop-color="#a9a9a9" stop-opacity=".19608"/><stop offset="1" stop-color="#a9a9a9" stop-opacity=".19608"/></linearGradient><linearGradient id="b" x2="0" y2="1"><stop offset="0" stop-color="#fcfcfc"/><stop offset="1" stop-color="#fcfcfc"/></linearGradient><linearGradient id="c" x2="0" y2="1"><stop offset="0" stop-color="#ffff80"/><stop offset="1" stop-color="#ffff80"/></linearGradient><linearGradient id="d" x2="0" y2="1"><stop offset="0" stop-color="#d2e9ff"/><stop offset="1" stop-color="#d2e9ff"/></linearGradient><linearGradient id="e" x2="0" y2="1"><stop offset="0" stop-color="#c5cbff"/><stop offset="1" stop-color="#c5cbff"/></linearGradient><linearGradient id="f" x2="0" y2="1"><stop offset="0" stop-color="#f3f3f3"/><stop offset="1" stop-color="#e1e1e1"/></linearGradient><linearGradient id="g" x2="0" y2="1"><stop offset="0" stop-color="#4aa5ff"/><stop offset="1" stop-color="#4aa5ff"/></linearGradient><linearGradient id="h" gradientTransform="matrix(1.4193 0 0 .70455 29.701 309.89)" gradientUnits="userSpaceOnUse" x2="0" xlink:href="#a" y2="174.19"/><linearGradient id="i" gradientTransform="matrix(2.2192 0 0 .45061 21.701 327.89)" gradientUnits="userSpaceOnUse" x1="-.2253" x2="-.2253" xlink:href="#b" y1="-1.1096" y2="110.3"/><linearGradient id="j" gradientTransform="matrix(2.993 0 0 .33412 21.701 377.09)" gradientUnits="userSpaceOnUse" x1="-.16706" x2="-.16706" xlink:href="#b" y1="-1.4965" y2="81.109"/><linearGradient id="k" gradientTransform="matrix(.99738 0 0 1.0026 29.701 334.93)" gradientUnits="userSpaceOnUse" x1="-.57651" x2="-.57651" xlink:href="#c" y1="-.81104" y2="12.474"/><linearGradient id="l" gradientUnits="userSpaceOnUse" x1="29.126" x2="29.126" xlink:href="#d" y1="357.54" y2="369.69"/><linearGradient id="m" gradientTransform="matrix(.98481 0 0 1.0154 29.701 384.04)" gradientUnits="userSpaceOnUse" x1="-.41286" x2="-.41286" xlink:href="#e" y1="-.80082" y2="12.483"/><linearGradient id="n" gradientTransform="matrix(3.4374 0 0 .29092 21.701 403.69)" gradientUnits="userSpaceOnUse" x1="-.14546" x2="-.14546" xlink:href="#b" y1="-1.7187" y2="70.206"/><linearGradient id="o" gradientTransform="matrix(1.1144 0 0 .89736 158.32 408.66)" gradientUnits="userSpaceOnUse" x1="-.61828" x2="-.61828" xlink:href="#f" y1="-.76781" y2="10.102"/><linearGradient id="p" gradientTransform="matrix(1.0891 0 0 .9182 136.79 408.66)" gradientUnits="userSpaceOnUse" x1="-.38932" x2="-.38932" xlink:href="#f" y1="-.75038" y2="10.128"/><linearGradient id="q" gradientTransform="matrix(.98191 0 0 1.0184 114.93 408.72)" gradientUnits="userSpaceOnUse" x1="-.36007" x2="-.36007" xlink:href="#f" y1="-.69431" y2="8.988"/><linearGradient id="r" gradientTransform="matrix(3.0263 0 0 .33044 21.701 301.89)" gradientUnits="userSpaceOnUse" x1="-.17899" x2="-.17899" xlink:href="#g" y1="-1.5131" y2="80.196"/><linearGradient id="s" gradientTransform="matrix(1.4447 0 0 .69219 809.7 69.888)" gradientUnits="userSpaceOnUse" x2="0" xlink:href="#a" y2="177.3"/><linearGradient id="t" gradientTransform="matrix(2.2588 0 0 .4427 801.7 87.888)" gradientUnits="userSpaceOnUse" x1="-.22135" x2="-.22135" xlink:href="#b" y1="-1.1294" y2="112.26"/><linearGradient id="u" gradientTransform="matrix(3.0464 0 0 .32826 801.7 137.09)" gradientUnits="userSpaceOnUse" x1="-.16413" x2="-.16413" xlink:href="#b" y1="-1.5232" y2="82.557"/><linearGradient id="v" gradientTransform="matrix(.99738 0 0 1.0026 809.7 94.928)" gradientUnits="userSpaceOnUse" x1="-.57651" x2="-.57651" xlink:href="#c" y1="-.81104" y2="12.474"/><linearGradient id="w" gradientUnits="userSpaceOnUse" x1="809.13" x2="809.13" xlink:href="#d" y1="117.54" y2="129.69"/><linearGradient id="x" gradientTransform="matrix(.98481 0 0 1.0154 809.7 144.04)" gradientUnits="userSpaceOnUse" x1="-.41286" x2="-.41286" xlink:href="#e" y1="-.80082" y2="12.483"/><linearGradient id="y" gradientTransform="matrix(3.4988 0 0 .28581 801.7 163.69)" gradientUnits="userSpaceOnUse" x1="-.14291" x2="-.14291" xlink:href="#b" y1="-1.7494" y2="71.459"/><linearGradient id="z" gradientTransform="matrix(1.1144 0 0 .89736 942.77 168.66)" gradientUnits="userSpaceOnUse" x1="-.61828" x2="-.61828" xlink:href="#f" y1="-.76781" y2="10.102"/><linearGradient id="A" gradientTransform="matrix(1.0891 0 0 .9182 921.25 168.66)" gradientUnits="userSpaceOnUse" x1="-.38932" x2="-.38932" xlink:href="#f" y1="-.75038" y2="10.128"/><linearGradient id="B" gradientTransform="matrix(.98191 0 0 1.0184 899.38 168.72)" gradientUnits="userSpaceOnUse" x1="-.36007" x2="-.36007" xlink:href="#f" y1="-.69431" y2="8.988"/><linearGradient id="C" gradientTransform="matrix(3.0803 0 0 .32464 801.7 61.888)" gradientUnits="userSpaceOnUse" x1="-.17585" x2="-.17585" xlink:href="#g" y1="-1.5401" y2="81.628"/><linearGradient id="D" gradientTransform="matrix(1.4101 0 0 .70918 429.7 309.89)" gradientUnits="userSpaceOnUse" x2="0" xlink:href="#a" y2="173.05"/><linearGradient id="E" gradientTransform="matrix(2.2047 0 0 .45357 421.7 327.89)" gradientUnits="userSpaceOnUse" x1="-.22678" x2="-.22678" xlink:href="#b" y1="-1.1024" y2="109.58"/><linearGradient id="F" gradientTransform="matrix(2.9734 0 0 .33632 421.7 377.09)" gradientUnits="userSpaceOnUse" x1="-.16816" x2="-.16816" xlink:href="#b" y1="-1.4867" y2="80.579"/><linearGradient id="G" gradientTransform="matrix(.99738 0 0 1.0026 429.7 334.93)" gradientUnits="userSpaceOnUse" x1="-.57651" x2="-.57651" xlink:href="#c" y1="-.81104" y2="12.474"/><linearGradient id="H" gradientUnits="userSpaceOnUse" x1="429.13" x2="429.13" xlink:href="#d" y1="357.54" y2="369.69"/><linearGradient id="I" gradientTransform="matrix(.98481 0 0 1.0154 429.7 384.04)" gradientUnits="userSpaceOnUse" x1="-.41286" x2="-.41286" xlink:href="#e" y1="-.80082" y2="12.483"/><linearGradient id="J" gradientTransform="matrix(3.415 0 0 .29283 421.7 403.69)" gradientUnits="userSpaceOnUse" x1="-.14642" x2="-.14642" xlink:href="#b" y1="-1.7075" y2="69.747"/><linearGradient id="K" gradientTransform="matrix(1.1144 0 0 .89736 556.71 408.66)" gradientUnits="userSpaceOnUse" x1="-.61828" x2="-.61828" xlink:href="#f" y1="-.76781" y2="10.102"/><linearGradient id="L" gradientTransform="matrix(1.0891 0 0 .9182 535.18 408.66)" gradientUnits="userSpaceOnUse" x1="-.38932" x2="-.38932" xlink:href="#f" y1="-.75038" y2="10.128"/><linearGradient id="M" gradientTransform="matrix(.98191 0 0 1.0184 513.32 408.72)" gradientUnits="userSpaceOnUse" x1="-.36007" x2="-.36007" xlink:href="#f" y1="-.69431" y2="8.988"/><linearGradient id="N" gradientTransform="matrix(3.0065 0 0 .33261 421.7 301.89)" gradientUnits="userSpaceOnUse" x1="-.18017" x2="-.18017" xlink:href="#g" y1="-1.5033" y2="79.673"/><g fill-rule="evenodd"><path d="m9.6806 21.888c0-6.6274 5.3726-12 12-12h223.23c6.627 0 12 5.3726 12 12v98.724c0 6.627-5.373 12-12 12h-223.23c-6.6274 0-12-5.373-12-12z" fill="url(#h)"/><g stroke-linecap="square" stroke-linejoin="bevel"><path d="m1.6806 27.888h246.23v49.2h-246.23z" fill="url(#i)" stroke="#d7d7d7"/><path d="m1.6806 77.088h246.23v26.6h-246.23z" fill="url(#j)" stroke="#d7d7d7"/><path d="m12.37 34.928-2.6889 2.6889v6.7222l2.6889 2.6889 1.3444-1.3444v-2.6889h1.3444l1.3444 1.3444 2.6889-2.6889 2.6889 2.6889v-5.3778h-8.0667v-2.6889z" fill="url(#k)" stroke="#897416" stroke-width="1.15"/><g font-family="Noto Sans" font-size="14.667" font-style="italic"><text fill="#2b7dba" font-weight="700" x="26.930386" y="46.71735">id</text><text fill="#4964a6" font-weight="700" x="64.627289" xml:space="preserve" y="46.71735"> integer</text><text fill="#25682d" font-weight="400" x="206.75839" y="46.71735">« pk »</text></g><circle cx="15.181" cy="63.608" fill="url(#l)" r="5.5" stroke="#5a9ee4" stroke-width="1.15"/><g font-family="Noto Sans" font-size="14.667" font-style="italic"><text font-weight="400" x="25.830387" y="69.317352">name</text><text fill="#4964a6" font-weight="700" x="64.627289" xml:space="preserve" y="69.317352"> varchar(255)</text><text fill="#25682d" font-weight="400" x="205.50839" y="69.317352">« nn »</text></g><path d="m16.403 84.038-6.7222 6.7222 5.3778 5.3778h6.7222v-6.7222z" fill="url(#m)" stroke="#4c4c98" stroke-width="1.15"/><g font-family="Noto Sans" font-size="14.667" font-style="italic"><text fill="#082061" font-weight="400" x="26.761986" y="95.917358">student_id_pk</text><text fill="#4964a6" font-weight="700" x="118.13739" xml:space="preserve" y="95.917358"> constraint</text><text fill="#25682d" font-weight="400" x="206.75839" y="95.917358">« pk »</text></g><path d="m1.68055 103.68805h246.23v7.924l-.182 2.0838-.542 2.0204-.884 1.8958-1.2 1.7135-1.479 1.479-1.713 1.1998-1.896.884-2.02.5414-2.084.1823h-222.23l-2.0838-.1823-2.0205-.5414-1.8958-.884-1.7134-1.1998-1.4791-1.479-1.1998-1.7135-.88401-1.8958-.54138-2.0204-.18231-2.0838z" fill="url(#n)" stroke="#d7d7d7"/><g stroke="#bebebe"><path d="m138.3 108.66h11l-5.5 8.8z" fill="url(#o)" opacity=".4"/><path d="m122.27 108.66-5.5 8.8h11z" fill="url(#p)"/><path d="m99.31 108.72 4.4 4.4-4.4 4.4-4.4-4.4z" fill="url(#q)"/></g><path d="m1.68055 13.88805.18231-2.0838.54138-2.0205.88401-1.8958 1.1998-1.7134 1.4791-1.4791 1.7134-1.1998 1.8958-.88401 2.0205-.54138 2.0838-.18231h222.23l2.084.18231 2.02.54138 1.896.88401 1.713 1.1998 1.479 1.4791 1.2 1.7134.884 1.8958.542 2.0205.182 2.0838v14h-246.23z" fill="url(#r)" stroke="#3175b0"/><g font-family="Noto Sans" font-size="14.667"><text font-style="italic" font-weight="400" x="73.867889" y="19.219364">public.</text><text fill="#fff" font-weight="700" x="118.2114" y="19.219364">student</text></g></g><path d="m789.68 21.888c0-6.6274 5.3726-12 12-12h232.14c6.628 0 12 5.3726 12 12v98.724c0 6.627-5.372 12-12 12h-232.14c-6.6274 0-12-5.373-12-12z" fill="url(#s)"/><g stroke-linecap="square" stroke-linejoin="bevel"><path d="m781.68 27.888h255.14v49.2h-255.14z" fill="url(#t)" stroke="#d7d7d7"/><path d="m781.68 77.09h255.14v26.6h-255.14z" fill="url(#u)" stroke="#d7d7d7"/><path d="m792.37 34.928-2.6889 2.6889v6.7222l2.6889 2.6889 1.3444-1.3444v-2.6889h1.3444l1.3444 1.3444 2.6889-2.6889 2.6889 2.6889v-5.3778h-8.0667v-2.6889z" fill="url(#v)" stroke="#897416" stroke-width="1.15"/><g font-family="Noto Sans" font-size="14.667" font-style="italic"><text fill="#2b7dba" font-weight="700" x="806.93042" y="46.719349">id</text><text fill="#4964a6" font-weight="700" x="844.62738" xml:space="preserve" y="46.719349"> integer</text><text fill="#25682d" font-weight="400" x="995.66034" y="46.719349">« pk »</text></g><circle cx="795.18" cy="63.61" fill="url(#w)" r="5.5" stroke="#5a9ee4" stroke-width="1.15"/><g font-family="Noto Sans" font-size="14.667" font-style="italic"><text font-weight="400" x="805.83038" y="69.319359">name</text><text fill="#4964a6" font-weight="700" x="844.62738" xml:space="preserve" y="69.319359"> varchar(255)</text><text fill="#25682d" font-weight="400" x="994.41034" y="69.319359">« nn »</text></g><path d="m796.4 84.04-6.7222 6.7222 5.3778 5.3778h6.7222v-6.7222z" fill="url(#x)" stroke="#4c4c98" stroke-width="1.15"/><g font-family="Noto Sans" font-size="14.667" font-style="italic"><text fill="#082061" font-weight="400" x="806.76239" y="95.91935">professor_id_pl</text><text fill="#4964a6" font-weight="700" x="907.0434" xml:space="preserve" y="95.91935"> constraint</text><text fill="#25682d" font-weight="400" x="995.66034" y="95.91935">« pk »</text></g><path d="m781.67955 103.69005h255.14005v7.924l-.182 2.0838-.542 2.0204-.884 1.8958-1.199 1.7135-1.479 1.479-1.714 1.1998-1.896.884-2.02.5414-2.084.1823h-231.14005l-2.0838-.1823-2.0205-.5414-1.8958-.884-1.7134-1.1998-1.4791-1.479-1.1998-1.7135-.88401-1.8958-.54138-2.0204-.18231-2.0838z" fill="url(#y)" stroke="#d7d7d7"/><g stroke="#bebebe"><path d="m922.75 108.66h11l-5.5 8.8z" fill="url(#z)" opacity=".4"/><path d="m906.73 108.66-5.5 8.8h11z" fill="url(#A)"/><path d="m883.76 108.72 4.4 4.4-4.4 4.4-4.4-4.4z" fill="url(#B)"/></g><path d="m781.67955 13.88805.18231-2.0838.54138-2.0205.88401-1.8958 1.1998-1.7134 1.4791-1.4791 1.7134-1.1998 1.8958-.88401 2.0205-.54138 2.0838-.18231h231.14005l2.084.18231 2.02.54138 1.896.88401 1.7139 1.1998 1.479 1.4791 1.1991 1.7134.884 1.8958.5419 2.0205.1821 2.0838v14h-255.14005z" fill="url(#C)" stroke="#3175b0"/><g font-family="Noto Sans" font-size="14.667"><text font-style="italic" font-weight="400" x="852.11792" y="19.221348">public.</text><text fill="#fff" font-weight="700" x="896.46136" y="19.221348">professor</text></g></g><path d="m401.28 21.888c0-6.6274 5.3726-12 12-12h220.02c6.628 0 12 5.3726 12 12v98.724c0 6.627-5.372 12-12 12h-220.02c-6.6274 0-12-5.373-12-12z" fill="url(#D)"/><g stroke-linecap="square" stroke-linejoin="bevel"><path d="m393.28 27.888h243.02v49.2h-243.02z" fill="url(#E)" stroke="#d7d7d7"/><path d="m393.28 77.088h243.02v26.6h-243.02z" fill="url(#F)" stroke="#d7d7d7"/><path d="m403.98 34.928-2.6889 2.6889v6.7222l2.6889 2.6889 1.3444-1.3444v-2.6889h1.3444l1.3444 1.3444 2.6889-2.6889 2.6889 2.6889v-5.3778h-8.0667v-2.6889z" fill="url(#G)" stroke="#897416" stroke-width="1.15"/><g font-family="Noto Sans" font-size="14.667" font-style="italic"><text fill="#2b7dba" font-weight="700" x="418.53583" y="46.71735">id</text><text fill="#4964a6" font-weight="700" x="443.57684" xml:space="preserve" y="46.71735"> integer</text><text fill="#25682d" font-weight="400" x="595.14484" y="46.71735">« pk »</text></g><circle cx="406.78" cy="63.608" fill="url(#H)" r="5.5" stroke="#5a9ee4" stroke-width="1.15"/><g font-family="Noto Sans" font-size="14.667" font-style="italic"><text font-weight="400" x="417.43582" y="69.317352">title</text><text fill="#4964a6" font-weight="700" x="443.57684" xml:space="preserve" y="69.317352"> varchar(255)</text><text fill="#25682d" font-weight="400" x="593.89484" y="69.317352">« nn »</text></g><path d="m408 84.038-6.7222 6.7222 5.3778 5.3778h6.7222v-6.7222z" fill="url(#I)" stroke="#4c4c98" stroke-width="1.15"/><g font-family="Noto Sans" font-size="14.667" font-style="italic"><text fill="#082061" font-weight="400" x="418.36783" y="95.917358">module_id_pl</text><text fill="#4964a6" font-weight="700" x="506.52383" xml:space="preserve" y="95.917358"> constraint</text><text fill="#25682d" font-weight="400" x="595.14484" y="95.917358">« pk »</text></g><path d="m393.28584 103.68605h243.015v7.924l-.182 2.0838-.542 2.0204-.884 1.8958-1.199 1.7135-1.479 1.479-1.714 1.1998-1.896.884-2.02.5414-2.084.1823h-219.015l-2.08378-.1823-2.02046-.5414-1.89576-.884-1.71345-1.1998-1.47908-1.479-1.19977-1.7135-.88401-1.8958-.54138-2.0204-.18231-2.0838z" fill="url(#J)" stroke="#d7d7d7"/><g stroke="#bebebe"><path d="m528.3 108.66h11l-5.5 8.8z" fill="url(#K)" opacity=".4"/><path d="m512.26 108.66-5.5 8.8h11z" fill="url(#L)"/><path d="m489.3 108.72 4.4 4.4-4.4 4.4-4.4-4.4z" fill="url(#M)"/></g><path d="m393.285 13.88805.18231-2.0838.54138-2.0205.88401-1.8958 1.1998-1.7134 1.4791-1.4791 1.7134-1.1998 1.8958-.88401 2.0205-.54138 2.0838-.18231h219.02l2.084.18231 2.02.54138 1.896.88401 1.714 1.1998 1.479 1.4791 1.199 1.7134.884 1.8958.542 2.0205.182 2.0838v14h-243.02z" fill="url(#N)" stroke="#3175b0"/><g font-family="Noto Sans" font-size="14.667"><text font-style="italic" font-weight="400" x="464.73892" y="19.219364">public.</text><text fill="#fff" font-weight="700" x="509.08286" y="19.219364">module</text></g></g></g></svg>